<svg xmlns="http://www.w3.org/2000/svg" width="300" viewBox="0 0 300 75" height="75" version="1.0"><defs><clipPath id="a"><path d="M 29 15 L 54.925781 15 L 54.925781 60 L 29 60 Z M 29 15"/></clipPath></defs><g clip-path="url(#a)"><path fill="#737373" d="M 39.058594 37.433594 L 53.59375 22.644531 C 55.171875 21.042969 55.171875 18.441406 53.59375 16.839844 C 52.019531 15.234375 49.464844 15.234375 47.890625 16.839844 L 30.335938 34.695312 C 28.847656 36.210938 28.847656 38.660156 30.335938 40.167969 L 47.890625 58.027344 C 49.464844 59.628906 52.019531 59.628906 53.59375 58.027344 C 55.171875 56.421875 55.171875 53.824219 53.59375 52.21875 Z M 39.058594 37.433594"/></g><g fill="#737373"><g><g><path d="M 6.796875 0.234375 C 5.671875 0.234375 4.675781 0.078125 3.8125 -0.234375 C 2.957031 -0.554688 2.140625 -1.066406 1.359375 -1.765625 C 1.035156 -2.046875 0.875 -2.363281 0.875 -2.71875 C 0.875 -2.988281 0.976562 -3.234375 1.1875 -3.453125 C 1.40625 -3.679688 1.660156 -3.796875 1.953125 -3.796875 C 2.210938 -3.796875 2.4375 -3.710938 2.625 -3.546875 C 3.238281 -2.972656 3.867188 -2.550781 4.515625 -2.28125 C 5.171875 -2.019531 5.914062 -1.890625 6.75 -1.890625 C 7.707031 -1.890625 8.519531 -2.109375 9.1875 -2.546875 C 9.863281 -2.992188 10.203125 -3.554688 10.203125 -4.234375 C 10.179688 -5.035156 9.84375 -5.65625 9.1875 -6.09375 C 8.539062 -6.53125 7.550781 -6.894531 6.21875 -7.1875 C 4.632812 -7.507812 3.414062 -8.035156 2.5625 -8.765625 C 1.707031 -9.503906 1.28125 -10.523438 1.28125 -11.828125 C 1.28125 -12.734375 1.519531 -13.523438 2 -14.203125 C 2.476562 -14.890625 3.140625 -15.414062 3.984375 -15.78125 C 4.828125 -16.15625 5.773438 -16.34375 6.828125 -16.34375 C 7.785156 -16.34375 8.6875 -16.1875 9.53125 -15.875 C 10.375 -15.570312 11.054688 -15.164062 11.578125 -14.65625 C 11.929688 -14.351562 12.109375 -14.023438 12.109375 -13.671875 C 12.109375 -13.390625 12.003906 -13.140625 11.796875 -12.921875 C 11.585938 -12.710938 11.335938 -12.609375 11.046875 -12.609375 C 10.828125 -12.609375 10.648438 -12.671875 10.515625 -12.796875 C 10.117188 -13.191406 9.566406 -13.523438 8.859375 -13.796875 C 8.148438 -14.078125 7.472656 -14.21875 6.828125 -14.21875 C 5.804688 -14.21875 4.988281 -14.003906 4.375 -13.578125 C 3.769531 -13.160156 3.46875 -12.609375 3.46875 -11.921875 C 3.46875 -11.171875 3.769531 -10.59375 4.375 -10.1875 C 4.988281 -9.789062 5.894531 -9.457031 7.09375 -9.1875 C 8.289062 -8.925781 9.265625 -8.617188 10.015625 -8.265625 C 10.773438 -7.910156 11.363281 -7.414062 11.78125 -6.78125 C 12.195312 -6.15625 12.40625 -5.335938 12.40625 -4.328125 C 12.40625 -3.429688 12.15625 -2.640625 11.65625 -1.953125 C 11.15625 -1.265625 10.472656 -0.726562 9.609375 -0.34375 C 8.753906 0.0390625 7.816406 0.234375 6.796875 0.234375 Z M 6.796875 0.234375" transform="translate(95.253 45.765)"/></g></g></g><g fill="#737373"><g><g><path d="M 12.21875 -6.484375 C 12.207031 -6.210938 12.09375 -5.976562 11.875 -5.78125 C 11.65625 -5.59375 11.398438 -5.5 11.109375 -5.5 L 3.015625 -5.5 C 3.117188 -4.382812 3.539062 -3.488281 4.28125 -2.8125 C 5.03125 -2.132812 5.941406 -1.796875 7.015625 -1.796875 C 7.753906 -1.796875 8.351562 -1.898438 8.8125 -2.109375 C 9.269531 -2.328125 9.675781 -2.609375 10.03125 -2.953125 C 10.257812 -3.085938 10.484375 -3.15625 10.703125 -3.15625 C 10.960938 -3.15625 11.179688 -3.0625 11.359375 -2.875 C 11.535156 -2.6875 11.625 -2.472656 11.625 -2.234375 C 11.625 -1.910156 11.46875 -1.617188 11.15625 -1.359375 C 10.71875 -0.910156 10.128906 -0.53125 9.390625 -0.21875 C 8.648438 0.0820312 7.898438 0.234375 7.140625 0.234375 C 5.890625 0.234375 4.789062 -0.0234375 3.84375 -0.546875 C 2.90625 -1.066406 2.175781 -1.796875 1.65625 -2.734375 C 1.144531 -3.671875 0.890625 -4.734375 0.890625 -5.921875 C 0.890625 -7.203125 1.15625 -8.328125 1.6875 -9.296875 C 2.21875 -10.273438 2.914062 -11.023438 3.78125 -11.546875 C 4.65625 -12.078125 5.585938 -12.34375 6.578125 -12.34375 C 7.566406 -12.34375 8.488281 -12.085938 9.34375 -11.578125 C 10.207031 -11.066406 10.898438 -10.363281 11.421875 -9.46875 C 11.941406 -8.582031 12.207031 -7.585938 12.21875 -6.484375 Z M 6.578125 -10.3125 C 5.722656 -10.3125 4.976562 -10.066406 4.34375 -9.578125 C 3.71875 -9.097656 3.304688 -8.351562 3.109375 -7.34375 L 9.890625 -7.34375 L 9.890625 -7.53125 C 9.816406 -8.34375 9.453125 -9.007812 8.796875 -9.53125 C 8.148438 -10.050781 7.410156 -10.3125 6.578125 -10.3125 Z M 6.578125 -10.3125" transform="translate(108.639 45.765)"/></g></g></g><g fill="#737373"><g><g><path d="M 4.90625 -9.921875 L 4.90625 -3.0625 C 4.90625 -2.289062 5.25 -1.90625 5.9375 -1.90625 C 6.039062 -1.90625 6.1875 -1.929688 6.375 -1.984375 C 6.5625 -2.046875 6.707031 -2.078125 6.8125 -2.078125 C 7.007812 -2.078125 7.175781 -1.988281 7.3125 -1.8125 C 7.457031 -1.644531 7.53125 -1.429688 7.53125 -1.171875 C 7.53125 -0.847656 7.34375 -0.570312 6.96875 -0.34375 C 6.601562 -0.113281 6.191406 0 5.734375 0 C 5.222656 0 4.753906 -0.0507812 4.328125 -0.15625 C 3.910156 -0.269531 3.535156 -0.546875 3.203125 -0.984375 C 2.878906 -1.421875 2.71875 -2.082031 2.71875 -2.96875 L 2.71875 -9.921875 L 1.375 -9.921875 C 1.082031 -9.921875 0.84375 -10.015625 0.65625 -10.203125 C 0.46875 -10.398438 0.375 -10.644531 0.375 -10.9375 C 0.375 -11.226562 0.46875 -11.460938 0.65625 -11.640625 C 0.84375 -11.828125 1.082031 -11.921875 1.375 -11.921875 L 2.71875 -11.921875 L 2.71875 -13.859375 C 2.71875 -14.160156 2.820312 -14.414062 3.03125 -14.625 C 3.238281 -14.84375 3.503906 -14.953125 3.828125 -14.953125 C 4.128906 -14.953125 4.382812 -14.84375 4.59375 -14.625 C 4.800781 -14.414062 4.90625 -14.160156 4.90625 -13.859375 L 4.90625 -11.921875 L 6.8125 -11.921875 C 7.101562 -11.921875 7.34375 -11.820312 7.53125 -11.625 C 7.726562 -11.4375 7.828125 -11.195312 7.828125 -10.90625 C 7.828125 -10.613281 7.726562 -10.375 7.53125 -10.1875 C 7.34375 -10.007812 7.101562 -9.921875 6.8125 -9.921875 Z M 4.90625 -9.921875" transform="translate(121.748 45.765)"/></g></g></g><g fill="#737373"><g><g><path d="M 4.90625 -9.921875 L 4.90625 -3.0625 C 4.90625 -2.289062 5.25 -1.90625 5.9375 -1.90625 C 6.039062 -1.90625 6.1875 -1.929688 6.375 -1.984375 C 6.5625 -2.046875 6.707031 -2.078125 6.8125 -2.078125 C 7.007812 -2.078125 7.175781 -1.988281 7.3125 -1.8125 C 7.457031 -1.644531 7.53125 -1.429688 7.53125 -1.171875 C 7.53125 -0.847656 7.34375 -0.570312 6.96875 -0.34375 C 6.601562 -0.113281 6.191406 0 5.734375 0 C 5.222656 0 4.753906 -0.0507812 4.328125 -0.15625 C 3.910156 -0.269531 3.535156 -0.546875 3.203125 -0.984375 C 2.878906 -1.421875 2.71875 -2.082031 2.71875 -2.96875 L 2.71875 -9.921875 L 1.375 -9.921875 C 1.082031 -9.921875 0.84375 -10.015625 0.65625 -10.203125 C 0.46875 -10.398438 0.375 -10.644531 0.375 -10.9375 C 0.375 -11.226562 0.46875 -11.460938 0.65625 -11.640625 C 0.84375 -11.828125 1.082031 -11.921875 1.375 -11.921875 L 2.71875 -11.921875 L 2.71875 -13.859375 C 2.71875 -14.160156 2.820312 -14.414062 3.03125 -14.625 C 3.238281 -14.84375 3.503906 -14.953125 3.828125 -14.953125 C 4.128906 -14.953125 4.382812 -14.84375 4.59375 -14.625 C 4.800781 -14.414062 4.90625 -14.160156 4.90625 -13.859375 L 4.90625 -11.921875 L 6.8125 -11.921875 C 7.101562 -11.921875 7.34375 -11.820312 7.53125 -11.625 C 7.726562 -11.4375 7.828125 -11.195312 7.828125 -10.90625 C 7.828125 -10.613281 7.726562 -10.375 7.53125 -10.1875 C 7.34375 -10.007812 7.101562 -9.921875 6.8125 -9.921875 Z M 4.90625 -9.921875" transform="translate(130.488 45.765)"/></g></g></g><g fill="#737373"><g><g><path d="M 3.703125 -1.109375 C 3.703125 -0.796875 3.597656 -0.53125 3.390625 -0.3125 C 3.179688 -0.101562 2.914062 0 2.59375 0 C 2.289062 0 2.035156 -0.101562 1.828125 -0.3125 C 1.617188 -0.53125 1.515625 -0.796875 1.515625 -1.109375 L 1.515625 -11.078125 C 1.515625 -11.378906 1.617188 -11.632812 1.828125 -11.84375 C 2.035156 -12.0625 2.289062 -12.171875 2.59375 -12.171875 C 2.914062 -12.171875 3.179688 -12.0625 3.390625 -11.84375 C 3.597656 -11.632812 3.703125 -11.378906 3.703125 -11.078125 Z M 2.609375 -13.6875 C 2.160156 -13.6875 1.835938 -13.765625 1.640625 -13.921875 C 1.453125 -14.085938 1.359375 -14.347656 1.359375 -14.703125 L 1.359375 -15.078125 C 1.359375 -15.441406 1.460938 -15.703125 1.671875 -15.859375 C 1.878906 -16.015625 2.195312 -16.09375 2.625 -16.09375 C 3.0625 -16.09375 3.375 -16.007812 3.5625 -15.84375 C 3.75 -15.6875 3.84375 -15.429688 3.84375 -15.078125 L 3.84375 -14.703125 C 3.84375 -14.335938 3.742188 -14.078125 3.546875 -13.921875 C 3.347656 -13.765625 3.035156 -13.6875 2.609375 -13.6875 Z M 2.609375 -13.6875" transform="translate(139.228 45.765)"/></g></g></g><g fill="#737373"><g><g><path d="M 7.78125 -12.34375 C 10.539062 -12.34375 11.921875 -10.679688 11.921875 -7.359375 L 11.921875 -1.109375 C 11.921875 -0.796875 11.816406 -0.53125 11.609375 -0.3125 C 11.398438 -0.101562 11.132812 0 10.8125 0 C 10.507812 0 10.253906 -0.101562 10.046875 -0.3125 C 9.835938 -0.53125 9.734375 -0.796875 9.734375 -1.109375 L 9.734375 -7.34375 C 9.734375 -8.25 9.523438 -8.96875 9.109375 -9.5 C 8.703125 -10.039062 8.03125 -10.3125 7.09375 -10.3125 C 6.476562 -10.3125 5.921875 -10.175781 5.421875 -9.90625 C 4.921875 -9.632812 4.53125 -9.269531 4.25 -8.8125 C 3.96875 -8.363281 3.828125 -7.875 3.828125 -7.34375 L 3.828125 -1.109375 C 3.828125 -0.796875 3.722656 -0.53125 3.515625 -0.3125 C 3.304688 -0.101562 3.039062 0 2.71875 0 C 2.394531 0 2.132812 -0.101562 1.9375 -0.3125 C 1.738281 -0.519531 1.640625 -0.785156 1.640625 -1.109375 L 1.640625 -10.953125 C 1.640625 -11.265625 1.738281 -11.523438 1.9375 -11.734375 C 2.144531 -11.953125 2.40625 -12.0625 2.71875 -12.0625 C 3.039062 -12.0625 3.304688 -11.953125 3.515625 -11.734375 C 3.722656 -11.523438 3.828125 -11.265625 3.828125 -10.953125 L 3.828125 -10.15625 C 4.222656 -10.769531 4.773438 -11.285156 5.484375 -11.703125 C 6.203125 -12.128906 6.96875 -12.34375 7.78125 -12.34375 Z M 7.78125 -12.34375" transform="translate(144.45 45.765)"/></g></g></g><g fill="#737373"><g><g><path d="M 11.71875 -12.21875 C 12.039062 -12.21875 12.300781 -12.113281 12.5 -11.90625 C 12.707031 -11.695312 12.8125 -11.425781 12.8125 -11.09375 L 12.8125 -0.96875 C 12.8125 0.269531 12.546875 1.304688 12.015625 2.140625 C 11.492188 2.984375 10.78125 3.601562 9.875 4 C 8.96875 4.40625 7.945312 4.609375 6.8125 4.609375 C 6.195312 4.609375 5.476562 4.5 4.65625 4.28125 C 3.832031 4.0625 3.304688 3.835938 3.078125 3.609375 C 2.609375 3.367188 2.375 3.0625 2.375 2.6875 C 2.375 2.601562 2.40625 2.484375 2.46875 2.328125 C 2.632812 1.941406 2.914062 1.75 3.3125 1.75 C 3.507812 1.75 3.722656 1.796875 3.953125 1.890625 C 5.179688 2.359375 6.140625 2.59375 6.828125 2.59375 C 8.054688 2.59375 9 2.296875 9.65625 1.703125 C 10.3125 1.117188 10.640625 0.3125 10.640625 -0.71875 L 10.640625 -1.953125 C 10.316406 -1.359375 9.773438 -0.84375 9.015625 -0.40625 C 8.253906 0.0195312 7.453125 0.234375 6.609375 0.234375 C 5.546875 0.234375 4.578125 -0.03125 3.703125 -0.5625 C 2.828125 -1.101562 2.140625 -1.851562 1.640625 -2.8125 C 1.140625 -3.78125 0.890625 -4.859375 0.890625 -6.046875 C 0.890625 -7.242188 1.140625 -8.320312 1.640625 -9.28125 C 2.140625 -10.238281 2.820312 -10.988281 3.6875 -11.53125 C 4.5625 -12.070312 5.519531 -12.34375 6.5625 -12.34375 C 7.40625 -12.34375 8.191406 -12.148438 8.921875 -11.765625 C 9.648438 -11.378906 10.222656 -10.910156 10.640625 -10.359375 L 10.640625 -11.09375 C 10.640625 -11.414062 10.738281 -11.679688 10.9375 -11.890625 C 11.132812 -12.109375 11.394531 -12.21875 11.71875 -12.21875 Z M 6.859375 -1.796875 C 7.609375 -1.796875 8.273438 -1.972656 8.859375 -2.328125 C 9.441406 -2.691406 9.894531 -3.195312 10.21875 -3.84375 C 10.550781 -4.5 10.71875 -5.234375 10.71875 -6.046875 C 10.71875 -6.859375 10.550781 -7.585938 10.21875 -8.234375 C 9.894531 -8.878906 9.441406 -9.382812 8.859375 -9.75 C 8.273438 -10.125 7.609375 -10.3125 6.859375 -10.3125 C 6.117188 -10.3125 5.457031 -10.125 4.875 -9.75 C 4.289062 -9.382812 3.832031 -8.875 3.5 -8.21875 C 3.175781 -7.570312 3.015625 -6.847656 3.015625 -6.046875 C 3.015625 -5.253906 3.175781 -4.53125 3.5 -3.875 C 3.832031 -3.226562 4.289062 -2.71875 4.875 -2.34375 C 5.457031 -1.976562 6.117188 -1.796875 6.859375 -1.796875 Z M 6.859375 -1.796875" transform="translate(157.996 45.765)"/></g></g></g><g fill="#737373"><g><g><path d="M 0.9375 -1.890625 C 0.800781 -2.097656 0.734375 -2.304688 0.734375 -2.515625 C 0.734375 -2.816406 0.894531 -3.078125 1.21875 -3.296875 C 1.375 -3.398438 1.550781 -3.453125 1.75 -3.453125 C 2.019531 -3.453125 2.273438 -3.335938 2.515625 -3.109375 C 2.972656 -2.585938 3.460938 -2.195312 3.984375 -1.9375 C 4.515625 -1.675781 5.148438 -1.546875 5.890625 -1.546875 C 6.472656 -1.554688 6.984375 -1.6875 7.421875 -1.9375 C 7.867188 -2.195312 8.09375 -2.609375 8.09375 -3.171875 C 8.09375 -3.691406 7.867188 -4.085938 7.421875 -4.359375 C 6.972656 -4.640625 6.3125 -4.894531 5.4375 -5.125 C 4.570312 -5.363281 3.851562 -5.609375 3.28125 -5.859375 C 2.71875 -6.109375 2.238281 -6.472656 1.84375 -6.953125 C 1.457031 -7.441406 1.265625 -8.078125 1.265625 -8.859375 C 1.265625 -9.546875 1.457031 -10.148438 1.84375 -10.671875 C 2.238281 -11.203125 2.757812 -11.613281 3.40625 -11.90625 C 4.0625 -12.195312 4.773438 -12.34375 5.546875 -12.34375 C 6.285156 -12.34375 7.019531 -12.203125 7.75 -11.921875 C 8.476562 -11.648438 9.070312 -11.226562 9.53125 -10.65625 C 9.71875 -10.4375 9.8125 -10.210938 9.8125 -9.984375 C 9.8125 -9.742188 9.6875 -9.507812 9.4375 -9.28125 C 9.28125 -9.132812 9.085938 -9.0625 8.859375 -9.0625 C 8.585938 -9.0625 8.363281 -9.15625 8.1875 -9.34375 C 7.863281 -9.707031 7.46875 -9.988281 7 -10.1875 C 6.539062 -10.394531 6.023438 -10.5 5.453125 -10.5 C 4.867188 -10.5 4.375 -10.378906 3.96875 -10.140625 C 3.5625 -9.898438 3.359375 -9.5 3.359375 -8.9375 C 3.378906 -8.394531 3.613281 -7.992188 4.0625 -7.734375 C 4.507812 -7.472656 5.203125 -7.21875 6.140625 -6.96875 C 6.953125 -6.757812 7.625 -6.53125 8.15625 -6.28125 C 8.695312 -6.039062 9.148438 -5.675781 9.515625 -5.1875 C 9.890625 -4.707031 10.078125 -4.078125 10.078125 -3.296875 C 10.078125 -2.566406 9.867188 -1.9375 9.453125 -1.40625 C 9.046875 -0.882812 8.503906 -0.476562 7.828125 -0.1875 C 7.160156 0.09375 6.453125 0.234375 5.703125 0.234375 C 4.742188 0.234375 3.851562 0.0664062 3.03125 -0.265625 C 2.207031 -0.609375 1.507812 -1.148438 0.9375 -1.890625 Z M 0.9375 -1.890625" transform="translate(172.417 45.765)"/></g></g></g><g fill="#737373"><g><g><path d="M 8.359375 -16.109375 C 9.171875 -16.109375 9.921875 -15.890625 10.609375 -15.453125 C 11.296875 -15.015625 11.84375 -14.421875 12.25 -13.671875 C 12.65625 -12.921875 12.859375 -12.09375 12.859375 -11.1875 C 12.859375 -10.28125 12.65625 -9.441406 12.25 -8.671875 C 11.84375 -7.910156 11.296875 -7.304688 10.609375 -6.859375 C 9.921875 -6.410156 9.171875 -6.1875 8.359375 -6.1875 L 4.03125 -6.1875 L 4.03125 -1.109375 C 4.03125 -0.796875 3.925781 -0.53125 3.71875 -0.3125 C 3.519531 -0.101562 3.269531 0 2.96875 0 C 2.644531 0 2.382812 -0.101562 2.1875 -0.3125 C 2 -0.519531 1.90625 -0.785156 1.90625 -1.109375 L 1.90625 -15 C 1.90625 -15.3125 2.015625 -15.570312 2.234375 -15.78125 C 2.453125 -16 2.710938 -16.109375 3.015625 -16.109375 Z M 8.359375 -8.28125 C 8.765625 -8.28125 9.144531 -8.414062 9.5 -8.6875 C 9.851562 -8.957031 10.132812 -9.3125 10.34375 -9.75 C 10.550781 -10.195312 10.65625 -10.675781 10.65625 -11.1875 C 10.65625 -11.96875 10.425781 -12.628906 9.96875 -13.171875 C 9.519531 -13.722656 8.984375 -14 8.359375 -14 L 4.03125 -14 L 4.03125 -8.28125 Z M 8.359375 -8.28125" transform="translate(189.76 45.765)"/></g></g></g><g fill="#737373"><g><g><path d="M 11.421875 -12.21875 C 11.742188 -12.21875 12.003906 -12.113281 12.203125 -11.90625 C 12.410156 -11.695312 12.515625 -11.425781 12.515625 -11.09375 L 12.515625 -1.109375 C 12.515625 -0.796875 12.410156 -0.53125 12.203125 -0.3125 C 12.003906 -0.101562 11.742188 0 11.421875 0 C 11.097656 0 10.832031 -0.101562 10.625 -0.3125 C 10.425781 -0.519531 10.328125 -0.785156 10.328125 -1.109375 L 10.328125 -1.703125 C 9.929688 -1.160156 9.390625 -0.703125 8.703125 -0.328125 C 8.015625 0.046875 7.269531 0.234375 6.46875 0.234375 C 5.425781 0.234375 4.476562 -0.03125 3.625 -0.5625 C 2.769531 -1.101562 2.097656 -1.851562 1.609375 -2.8125 C 1.128906 -3.78125 0.890625 -4.859375 0.890625 -6.046875 C 0.890625 -7.242188 1.128906 -8.320312 1.609375 -9.28125 C 2.097656 -10.238281 2.765625 -10.988281 3.609375 -11.53125 C 4.453125 -12.070312 5.378906 -12.34375 6.390625 -12.34375 C 7.210938 -12.34375 7.972656 -12.171875 8.671875 -11.828125 C 9.367188 -11.492188 9.921875 -11.066406 10.328125 -10.546875 L 10.328125 -11.09375 C 10.328125 -11.414062 10.425781 -11.679688 10.625 -11.890625 C 10.832031 -12.109375 11.097656 -12.21875 11.421875 -12.21875 Z M 6.71875 -1.796875 C 7.4375 -1.796875 8.078125 -1.976562 8.640625 -2.34375 C 9.203125 -2.71875 9.640625 -3.222656 9.953125 -3.859375 C 10.265625 -4.503906 10.421875 -5.234375 10.421875 -6.046875 C 10.421875 -6.847656 10.265625 -7.570312 9.953125 -8.21875 C 9.640625 -8.863281 9.203125 -9.375 8.640625 -9.75 C 8.078125 -10.125 7.4375 -10.3125 6.71875 -10.3125 C 6 -10.3125 5.359375 -10.125 4.796875 -9.75 C 4.234375 -9.382812 3.796875 -8.878906 3.484375 -8.234375 C 3.171875 -7.585938 3.015625 -6.859375 3.015625 -6.046875 C 3.015625 -5.234375 3.171875 -4.503906 3.484375 -3.859375 C 3.796875 -3.222656 4.234375 -2.71875 4.796875 -2.34375 C 5.359375 -1.976562 6 -1.796875 6.71875 -1.796875 Z M 6.71875 -1.796875" transform="translate(203.559 45.765)"/></g></g></g><g fill="#737373"><g><g><path d="M 11.71875 -12.21875 C 12.039062 -12.21875 12.300781 -12.113281 12.5 -11.90625 C 12.707031 -11.695312 12.8125 -11.425781 12.8125 -11.09375 L 12.8125 -0.96875 C 12.8125 0.269531 12.546875 1.304688 12.015625 2.140625 C 11.492188 2.984375 10.78125 3.601562 9.875 4 C 8.96875 4.40625 7.945312 4.609375 6.8125 4.609375 C 6.195312 4.609375 5.476562 4.5 4.65625 4.28125 C 3.832031 4.0625 3.304688 3.835938 3.078125 3.609375 C 2.609375 3.367188 2.375 3.0625 2.375 2.6875 C 2.375 2.601562 2.40625 2.484375 2.46875 2.328125 C 2.632812 1.941406 2.914062 1.75 3.3125 1.75 C 3.507812 1.75 3.722656 1.796875 3.953125 1.890625 C 5.179688 2.359375 6.140625 2.59375 6.828125 2.59375 C 8.054688 2.59375 9 2.296875 9.65625 1.703125 C 10.3125 1.117188 10.640625 0.3125 10.640625 -0.71875 L 10.640625 -1.953125 C 10.316406 -1.359375 9.773438 -0.84375 9.015625 -0.40625 C 8.253906 0.0195312 7.453125 0.234375 6.609375 0.234375 C 5.546875 0.234375 4.578125 -0.03125 3.703125 -0.5625 C 2.828125 -1.101562 2.140625 -1.851562 1.640625 -2.8125 C 1.140625 -3.78125 0.890625 -4.859375 0.890625 -6.046875 C 0.890625 -7.242188 1.140625 -8.320312 1.640625 -9.28125 C 2.140625 -10.238281 2.820312 -10.988281 3.6875 -11.53125 C 4.5625 -12.070312 5.519531 -12.34375 6.5625 -12.34375 C 7.40625 -12.34375 8.191406 -12.148438 8.921875 -11.765625 C 9.648438 -11.378906 10.222656 -10.910156 10.640625 -10.359375 L 10.640625 -11.09375 C 10.640625 -11.414062 10.738281 -11.679688 10.9375 -11.890625 C 11.132812 -12.109375 11.394531 -12.21875 11.71875 -12.21875 Z M 6.859375 -1.796875 C 7.609375 -1.796875 8.273438 -1.972656 8.859375 -2.328125 C 9.441406 -2.691406 9.894531 -3.195312 10.21875 -3.84375 C 10.550781 -4.5 10.71875 -5.234375 10.71875 -6.046875 C 10.71875 -6.859375 10.550781 -7.585938 10.21875 -8.234375 C 9.894531 -8.878906 9.441406 -9.382812 8.859375 -9.75 C 8.273438 -10.125 7.609375 -10.3125 6.859375 -10.3125 C 6.117188 -10.3125 5.457031 -10.125 4.875 -9.75 C 4.289062 -9.382812 3.832031 -8.875 3.5 -8.21875 C 3.175781 -7.570312 3.015625 -6.847656 3.015625 -6.046875 C 3.015625 -5.253906 3.175781 -4.53125 3.5 -3.875 C 3.832031 -3.226562 4.289062 -2.71875 4.875 -2.34375 C 5.457031 -1.976562 6.117188 -1.796875 6.859375 -1.796875 Z M 6.859375 -1.796875" transform="translate(217.681 45.765)"/></g></g></g><g fill="#737373"><g><g><path d="M 12.21875 -6.484375 C 12.207031 -6.210938 12.09375 -5.976562 11.875 -5.78125 C 11.65625 -5.59375 11.398438 -5.5 11.109375 -5.5 L 3.015625 -5.5 C 3.117188 -4.382812 3.539062 -3.488281 4.28125 -2.8125 C 5.03125 -2.132812 5.941406 -1.796875 7.015625 -1.796875 C 7.753906 -1.796875 8.351562 -1.898438 8.8125 -2.109375 C 9.269531 -2.328125 9.675781 -2.609375 10.03125 -2.953125 C 10.257812 -3.085938 10.484375 -3.15625 10.703125 -3.15625 C 10.960938 -3.15625 11.179688 -3.0625 11.359375 -2.875 C 11.535156 -2.6875 11.625 -2.472656 11.625 -2.234375 C 11.625 -1.910156 11.46875 -1.617188 11.15625 -1.359375 C 10.71875 -0.910156 10.128906 -0.53125 9.390625 -0.21875 C 8.648438 0.0820312 7.898438 0.234375 7.140625 0.234375 C 5.890625 0.234375 4.789062 -0.0234375 3.84375 -0.546875 C 2.90625 -1.066406 2.175781 -1.796875 1.65625 -2.734375 C 1.144531 -3.671875 0.890625 -4.734375 0.890625 -5.921875 C 0.890625 -7.203125 1.15625 -8.328125 1.6875 -9.296875 C 2.21875 -10.273438 2.914062 -11.023438 3.78125 -11.546875 C 4.65625 -12.078125 5.585938 -12.34375 6.578125 -12.34375 C 7.566406 -12.34375 8.488281 -12.085938 9.34375 -11.578125 C 10.207031 -11.066406 10.898438 -10.363281 11.421875 -9.46875 C 11.941406 -8.582031 12.207031 -7.585938 12.21875 -6.484375 Z M 6.578125 -10.3125 C 5.722656 -10.3125 4.976562 -10.066406 4.34375 -9.578125 C 3.71875 -9.097656 3.304688 -8.351562 3.109375 -7.34375 L 9.890625 -7.34375 L 9.890625 -7.53125 C 9.816406 -8.34375 9.453125 -9.007812 8.796875 -9.53125 C 8.148438 -10.050781 7.410156 -10.3125 6.578125 -10.3125 Z M 6.578125 -10.3125" transform="translate(232.102 45.765)"/></g></g></g></svg>