<?xml version="1.0" encoding="UTF-8"?><svg xmlns="http://www.w3.org/2000/svg" xmlns:xlink="http://www.w3.org/1999/xlink" contentScriptType="text/ecmascript" width="500.25" zoomAndPan="magnify" contentStyleType="text/css" viewBox="0 0 500.25 299.999988" height="299.999988" preserveAspectRatio="xMidYMid meet" version="1.0"><defs><clipPath id="clip-0"><path d="M 314 58.679688 L 374 58.679688 L 374 118 L 314 118 Z M 314 58.679688 " clip-rule="nonzero"/></clipPath><clipPath id="clip-1"><path d="M 256.582031 124 L 431.820312 124 L 431.820312 241.40625 L 256.582031 241.40625 Z M 256.582031 124 " clip-rule="nonzero"/></clipPath><clipPath id="clip-2"><path d="M 125 58.679688 L 185 58.679688 L 185 118 L 125 118 Z M 125 58.679688 " clip-rule="nonzero"/></clipPath><clipPath id="clip-3"><path d="M 67.359375 124 L 242.597656 124 L 242.597656 241.40625 L 67.359375 241.40625 Z M 67.359375 124 " clip-rule="nonzero"/></clipPath></defs><g clip-path="url(#clip-0)"><path fill="rgb(57.249451%, 54.508972%, 52.159119%)" d="M 344.132812 58.679688 C 327.933594 58.640625 314.796875 71.722656 314.621094 88.058594 C 314.449219 104.488281 327.78125 117.996094 344.121094 117.9375 C 360.265625 117.882812 373.386719 104.601562 373.390625 88.300781 C 373.398438 72.015625 360.261719 58.71875 344.132812 58.679688 Z M 344.132812 58.679688 " fill-opacity="1" fill-rule="nonzero"/></g><g clip-path="url(#clip-1)"><path fill="rgb(57.249451%, 54.508972%, 52.159119%)" d="M 316.015625 241.40625 C 310.441406 238.820312 308.429688 234.46875 308.5 228.34375 C 308.730469 208.863281 308.585938 189.378906 308.585938 169.894531 C 308.585938 168.425781 308.585938 166.953125 308.585938 164.253906 C 306.757812 166.273438 305.746094 167.328125 304.808594 168.449219 C 295.402344 179.714844 286.023438 190.996094 276.609375 202.257812 C 271.90625 207.882812 269.042969 208.121094 263.453125 203.449219 C 262.382812 202.558594 261.304688 201.683594 260.269531 200.753906 C 255.839844 196.796875 255.511719 193.800781 259.300781 189.21875 C 269.832031 176.480469 280.441406 163.804688 291.019531 151.105469 C 297.34375 143.511719 303.472656 135.734375 310.121094 128.429688 C 312.066406 126.296875 315.460938 124.347656 318.234375 124.292969 C 335.5 123.925781 352.78125 124.179688 370.058594 124.09375 C 373.832031 124.074219 376.359375 125.675781 378.691406 128.492188 C 396.3125 149.785156 414.03125 170.996094 431.71875 192.234375 C 431.71875 193.777344 431.71875 195.324219 431.71875 196.871094 C 429.417969 199.132812 427.234375 201.527344 424.792969 203.621094 C 419.550781 208.117188 416.515625 207.789062 411.996094 202.386719 C 402.394531 190.90625 392.832031 179.390625 383.238281 167.902344 C 382.320312 166.804688 381.285156 165.804688 379.441406 163.847656 C 379.441406 166.773438 379.441406 168.425781 379.441406 170.078125 C 379.441406 189.230469 379.285156 208.382812 379.535156 227.535156 C 379.613281 233.671875 377.953125 238.371094 372.476562 241.40625 C 353.65625 241.40625 334.839844 241.40625 316.015625 241.40625 Z M 316.015625 241.40625 " fill-opacity="1" fill-rule="evenodd"/></g><g clip-path="url(#clip-2)"><path fill="rgb(57.249451%, 54.508972%, 52.159119%)" d="M 154.910156 58.679688 C 138.714844 58.640625 125.574219 71.722656 125.402344 88.058594 C 125.226562 104.488281 138.558594 117.996094 154.898438 117.9375 C 171.046875 117.882812 184.164062 104.601562 184.167969 88.300781 C 184.175781 72.015625 171.042969 58.71875 154.910156 58.679688 Z M 154.910156 58.679688 " fill-opacity="1" fill-rule="nonzero"/></g><g clip-path="url(#clip-3)"><path fill="rgb(57.249451%, 54.508972%, 52.159119%)" d="M 126.792969 241.40625 C 121.21875 238.820312 119.207031 234.46875 119.277344 228.34375 C 119.507812 208.863281 119.363281 189.378906 119.363281 169.894531 C 119.363281 168.425781 119.363281 166.953125 119.363281 164.253906 C 117.539062 166.273438 116.523438 167.328125 115.585938 168.449219 C 106.179688 179.714844 96.800781 190.996094 87.386719 202.257812 C 82.683594 207.882812 79.824219 208.121094 74.230469 203.449219 C 73.164062 202.558594 72.082031 201.683594 71.046875 200.753906 C 66.617188 196.796875 66.289062 193.800781 70.078125 189.21875 C 80.609375 176.480469 91.21875 163.804688 101.796875 151.105469 C 108.121094 143.511719 114.25 135.734375 120.898438 128.429688 C 122.84375 126.296875 126.238281 124.347656 129.011719 124.292969 C 146.277344 123.925781 163.558594 124.179688 180.835938 124.09375 C 184.609375 124.074219 187.136719 125.675781 189.46875 128.492188 C 207.089844 149.785156 224.808594 170.996094 242.496094 192.234375 C 242.496094 193.777344 242.496094 195.324219 242.496094 196.871094 C 240.195312 199.132812 238.011719 201.527344 235.570312 203.621094 C 230.328125 208.117188 227.292969 207.789062 222.773438 202.386719 C 213.171875 190.90625 203.609375 179.390625 194.015625 167.902344 C 193.097656 166.804688 192.0625 165.804688 190.21875 163.847656 C 190.21875 166.773438 190.21875 168.425781 190.21875 170.078125 C 190.21875 189.230469 190.0625 208.382812 190.3125 227.535156 C 190.390625 233.671875 188.730469 238.371094 183.257812 241.40625 C 164.433594 241.40625 145.617188 241.40625 126.792969 241.40625 Z M 126.792969 241.40625 " fill-opacity="1" fill-rule="evenodd"/></g></svg>