<?xml version="1.0" encoding="UTF-8"?><svg xmlns="http://www.w3.org/2000/svg" xmlns:xlink="http://www.w3.org/1999/xlink" contentScriptType="text/ecmascript" width="500.25" zoomAndPan="magnify" contentStyleType="text/css" viewBox="0 0 500.25 299.999988" height="299.999988" preserveAspectRatio="xMidYMid meet" version="1.0"><defs><clipPath id="clip-0"><path d="M 57 61.914062 L 115 61.914062 L 115 119 L 57 119 Z M 57 61.914062 " clip-rule="nonzero"/></clipPath><clipPath id="clip-1"><path d="M 1.621094 124 L 170.867188 124 L 170.867188 237.898438 L 1.621094 237.898438 Z M 1.621094 124 " clip-rule="nonzero"/></clipPath><clipPath id="clip-2"><path d="M 385 61.914062 L 442 61.914062 L 442 119 L 385 119 Z M 385 61.914062 " clip-rule="nonzero"/></clipPath><clipPath id="clip-3"><path d="M 329.875 124 L 497.625 124 L 497.625 236.402344 L 329.875 236.402344 Z M 329.875 124 " clip-rule="nonzero"/></clipPath><clipPath id="clip-4"><path d="M 192 142.222656 L 224 142.222656 L 224 174 L 192 174 Z M 192 142.222656 " clip-rule="nonzero"/></clipPath><clipPath id="clip-5"><path d="M 162.457031 176 L 254.570312 176 L 254.570312 238.078125 L 162.457031 238.078125 Z M 162.457031 176 " clip-rule="nonzero"/></clipPath><clipPath id="clip-6"><path d="M 279 142.222656 L 310 142.222656 L 310 174 L 279 174 Z M 279 142.222656 " clip-rule="nonzero"/></clipPath><clipPath id="clip-7"><path d="M 248.578125 176 L 340.691406 176 L 340.691406 238.078125 L 248.578125 238.078125 Z M 248.578125 176 " clip-rule="nonzero"/></clipPath></defs><g clip-path="url(#clip-0)"><path fill="rgb(57.249451%, 54.508972%, 52.159119%)" d="M 86.179688 61.914062 C 70.535156 61.875 57.84375 74.472656 57.679688 90.207031 C 57.511719 106.03125 70.386719 119.039062 86.167969 118.984375 C 101.761719 118.933594 114.433594 106.140625 114.4375 90.441406 C 114.445312 74.757812 101.757812 61.949219 86.179688 61.914062 Z M 86.179688 61.914062 " fill-opacity="1" fill-rule="nonzero"/></g><g clip-path="url(#clip-1)"><path fill="rgb(57.249451%, 54.508972%, 52.159119%)" d="M 59.023438 237.898438 C 53.640625 235.410156 51.695312 231.21875 51.765625 225.316406 C 51.984375 206.558594 51.84375 187.789062 51.84375 169.027344 C 51.84375 167.609375 51.84375 166.191406 51.84375 163.59375 C 50.082031 165.539062 49.101562 166.554688 48.199219 167.632812 C 39.113281 178.480469 30.054688 189.351562 20.964844 200.195312 C 16.421875 205.613281 13.65625 205.84375 8.253906 201.339844 C 7.222656 200.484375 6.179688 199.640625 5.179688 198.746094 C 0.902344 194.9375 0.585938 192.050781 4.246094 187.636719 C 14.417969 175.367188 24.664062 163.160156 34.878906 150.929688 C 40.988281 143.613281 46.910156 136.125 53.332031 129.089844 C 55.207031 127.035156 58.488281 125.160156 61.164062 125.105469 C 77.84375 124.753906 94.53125 125 111.21875 124.914062 C 114.863281 124.894531 117.304688 126.4375 119.558594 129.152344 C 136.574219 149.660156 153.6875 170.085938 170.773438 190.539062 C 170.773438 192.027344 170.773438 193.519531 170.773438 195.007812 C 168.550781 197.183594 166.441406 199.488281 164.082031 201.507812 C 159.019531 205.839844 156.089844 205.523438 151.726562 200.320312 C 142.449219 189.261719 133.214844 178.171875 123.949219 167.109375 C 123.0625 166.050781 122.0625 165.085938 120.28125 163.199219 C 120.28125 166.019531 120.28125 167.609375 120.28125 169.203125 C 120.28125 187.648438 120.128906 206.097656 120.371094 224.539062 C 120.449219 230.449219 118.84375 234.976562 113.558594 237.898438 C 95.378906 237.898438 77.203125 237.898438 59.023438 237.898438 Z M 59.023438 237.898438 " fill-opacity="1" fill-rule="evenodd"/></g><g clip-path="url(#clip-2)"><path fill="rgb(57.249451%, 54.508972%, 52.159119%)" d="M 413.683594 61.914062 C 398.175781 61.875 385.597656 74.367188 385.433594 89.964844 C 385.265625 105.65625 398.03125 118.554688 413.671875 118.5 C 429.128906 118.445312 441.6875 105.765625 441.695312 90.199219 C 441.699219 74.648438 429.125 61.949219 413.683594 61.914062 Z M 413.683594 61.914062 " fill-opacity="1" fill-rule="nonzero"/></g><g clip-path="url(#clip-3)"><path fill="rgb(57.249451%, 54.508972%, 52.159119%)" d="M 386.765625 236.402344 C 381.433594 233.933594 379.503906 229.777344 379.570312 223.925781 C 379.792969 205.324219 379.652344 186.71875 379.652344 168.113281 C 379.652344 166.710938 379.652344 165.304688 379.652344 162.726562 C 377.90625 164.65625 376.933594 165.664062 376.035156 166.730469 C 367.03125 177.488281 358.050781 188.265625 349.042969 199.015625 C 344.539062 204.390625 341.800781 204.617188 336.445312 200.15625 C 335.421875 199.304688 334.390625 198.46875 333.398438 197.582031 C 329.15625 193.804688 328.84375 190.945312 332.472656 186.566406 C 342.550781 174.402344 352.710938 162.300781 362.835938 150.171875 C 368.890625 142.917969 374.761719 135.492188 381.125 128.519531 C 382.984375 126.480469 386.234375 124.621094 388.890625 124.566406 C 405.421875 124.21875 421.964844 124.460938 438.503906 124.378906 C 442.113281 124.359375 444.535156 125.886719 446.769531 128.578125 C 463.636719 148.910156 480.597656 169.167969 497.53125 189.445312 C 497.53125 190.921875 497.53125 192.398438 497.53125 193.875 C 495.328125 196.03125 493.238281 198.320312 490.902344 200.320312 C 485.882812 204.613281 482.976562 204.300781 478.652344 199.140625 C 469.460938 188.175781 460.304688 177.179688 451.121094 166.210938 C 450.242188 165.164062 449.25 164.207031 447.488281 162.335938 C 447.488281 165.132812 447.488281 166.710938 447.488281 168.289062 C 447.488281 186.578125 447.335938 204.867188 447.574219 223.15625 C 447.652344 229.015625 446.058594 233.503906 440.820312 236.402344 C 422.800781 236.402344 404.785156 236.402344 386.765625 236.402344 Z M 386.765625 236.402344 " fill-opacity="1" fill-rule="evenodd"/></g><g clip-path="url(#clip-4)"><path fill="rgb(57.249451%, 54.508972%, 52.159119%)" d="M 208.476562 142.222656 C 199.964844 142.203125 193.058594 149.066406 192.964844 157.636719 C 192.875 166.253906 199.882812 173.339844 208.46875 173.308594 C 216.957031 173.28125 223.851562 166.3125 223.855469 157.761719 C 223.859375 149.21875 216.957031 142.246094 208.476562 142.222656 Z M 208.476562 142.222656 " fill-opacity="1" fill-rule="nonzero"/></g><g clip-path="url(#clip-5)"><path fill="rgb(57.249451%, 54.508972%, 52.159119%)" d="M 193.699219 238.078125 C 190.769531 236.722656 189.710938 234.441406 189.75 231.226562 C 189.867188 221.007812 189.792969 210.785156 189.792969 200.566406 C 189.792969 199.796875 189.792969 199.023438 189.792969 197.605469 C 188.832031 198.664062 188.300781 199.21875 187.808594 199.808594 C 182.863281 205.714844 177.933594 211.636719 172.988281 217.542969 C 170.515625 220.496094 169.011719 220.621094 166.070312 218.167969 C 165.511719 217.703125 164.941406 217.242188 164.398438 216.753906 C 162.070312 214.679688 161.898438 213.109375 163.890625 210.703125 C 169.425781 204.019531 175 197.371094 180.558594 190.710938 C 183.886719 186.726562 187.105469 182.644531 190.601562 178.8125 C 191.621094 177.695312 193.40625 176.671875 194.863281 176.644531 C 203.941406 176.453125 213.023438 176.585938 222.105469 176.539062 C 224.085938 176.527344 225.414062 177.367188 226.640625 178.847656 C 235.902344 190.015625 245.214844 201.144531 254.511719 212.285156 C 254.511719 213.09375 254.511719 213.90625 254.511719 214.71875 C 253.304688 215.902344 252.15625 217.160156 250.871094 218.257812 C 248.117188 220.617188 246.519531 220.445312 244.148438 217.609375 C 239.101562 211.585938 234.074219 205.546875 229.03125 199.523438 C 228.550781 198.945312 228.003906 198.421875 227.035156 197.394531 C 227.035156 198.929688 227.035156 199.796875 227.035156 200.664062 C 227.035156 210.707031 226.953125 220.757812 227.085938 230.804688 C 227.125 234.023438 226.253906 236.488281 223.375 238.078125 C 213.484375 238.078125 203.589844 238.078125 193.699219 238.078125 Z M 193.699219 238.078125 " fill-opacity="1" fill-rule="evenodd"/></g><g clip-path="url(#clip-6)"><path fill="rgb(57.249451%, 54.508972%, 52.159119%)" d="M 294.597656 142.222656 C 286.085938 142.203125 279.179688 149.066406 279.089844 157.636719 C 278.996094 166.253906 286.007812 173.339844 294.59375 173.308594 C 303.078125 173.28125 309.972656 166.3125 309.976562 157.761719 C 309.980469 149.21875 303.078125 142.246094 294.597656 142.222656 Z M 294.597656 142.222656 " fill-opacity="1" fill-rule="nonzero"/></g><g clip-path="url(#clip-7)"><path fill="rgb(57.249451%, 54.508972%, 52.159119%)" d="M 279.820312 238.078125 C 276.890625 236.722656 275.832031 234.441406 275.871094 231.226562 C 275.992188 221.007812 275.914062 210.785156 275.914062 200.566406 C 275.914062 199.796875 275.914062 199.023438 275.914062 197.605469 C 274.957031 198.664062 274.421875 199.21875 273.929688 199.808594 C 268.988281 205.714844 264.054688 211.636719 259.109375 217.542969 C 256.636719 220.496094 255.132812 220.621094 252.191406 218.167969 C 251.632812 217.703125 251.066406 217.242188 250.519531 216.753906 C 248.191406 214.679688 248.019531 213.109375 250.011719 210.703125 C 255.546875 204.019531 261.121094 197.371094 266.683594 190.710938 C 270.007812 186.726562 273.230469 182.644531 276.722656 178.8125 C 277.746094 177.695312 279.53125 176.671875 280.984375 176.644531 C 290.0625 176.453125 299.144531 176.585938 308.226562 176.539062 C 310.210938 176.527344 311.539062 177.367188 312.761719 178.847656 C 322.023438 190.015625 331.335938 201.144531 340.632812 212.285156 C 340.632812 213.09375 340.632812 213.90625 340.632812 214.71875 C 339.425781 215.902344 338.277344 217.160156 336.996094 218.257812 C 334.238281 220.617188 332.644531 220.445312 330.269531 217.609375 C 325.222656 211.585938 320.195312 205.546875 315.152344 199.523438 C 314.671875 198.945312 314.125 198.421875 313.160156 197.394531 C 313.160156 198.929688 313.160156 199.796875 313.160156 200.664062 C 313.160156 210.707031 313.074219 220.757812 313.207031 230.804688 C 313.25 234.023438 312.375 236.488281 309.5 238.078125 C 299.605469 238.078125 289.714844 238.078125 279.820312 238.078125 Z M 279.820312 238.078125 " fill-opacity="1" fill-rule="evenodd"/></g></svg>