<?xml version="1.0" encoding="UTF-8"?><svg xmlns="http://www.w3.org/2000/svg" xmlns:xlink="http://www.w3.org/1999/xlink" contentScriptType="text/ecmascript" width="224.87999" zoomAndPan="magnify" contentStyleType="text/css" viewBox="0 0 224.87999 225" height="225" preserveAspectRatio="xMidYMid meet" version="1.0"><defs><clipPath id="clip-0"><path d="M 0 12.992188 L 224.761719 12.992188 L 224.761719 98 L 0 98 Z M 0 12.992188 " clip-rule="nonzero"/></clipPath><clipPath id="clip-1"><path d="M 4 55 L 224 55 L 224 212.382812 L 4 212.382812 Z M 4 55 " clip-rule="nonzero"/></clipPath></defs><g clip-path="url(#clip-0)"><path fill="rgb(38.42926%, 36.468506%, 34.509277%)" d="M 81.5 52.816406 C 75.382812 56.449219 69.285156 60.113281 63.144531 63.703125 L 44.746094 74.519531 L 26.339844 85.316406 L 7.894531 96.050781 L 7.039062 93.574219 L 45.527344 87.292969 L 84.035156 81.140625 L 103.296875 78.097656 L 122.5625 75.101562 C 135.40625 73.113281 148.246094 71.078125 161.101562 69.148438 L 159.617188 70.175781 C 161.382812 67.035156 163.875 64.222656 166.898438 62.1875 C 169.914062 60.136719 173.351562 58.851562 176.816406 58.183594 C 180.289062 57.503906 183.800781 57.390625 187.25 57.628906 C 188.976562 57.75 190.6875 57.960938 192.386719 58.257812 C 193.238281 58.402344 194.082031 58.574219 194.925781 58.761719 C 195.78125 58.960938 196.582031 59.160156 197.492188 59.4375 L 196.429688 59.398438 L 220.65625 53.679688 L 219.734375 56.789062 L 218.101562 55.109375 C 217.558594 54.546875 216.976562 54.019531 216.417969 53.472656 C 215.859375 52.921875 215.269531 52.402344 214.683594 51.875 C 214.101562 51.347656 213.519531 50.820312 212.914062 50.316406 C 211.726562 49.285156 210.496094 48.289062 209.265625 47.300781 C 208.019531 46.332031 206.777344 45.351562 205.496094 44.421875 C 204.230469 43.46875 202.933594 42.558594 201.640625 41.640625 C 200.332031 40.742188 199.03125 39.832031 197.703125 38.964844 C 195.0625 37.203125 192.375 35.496094 189.660156 33.839844 C 184.234375 30.515625 178.671875 27.390625 173.042969 24.402344 C 170.226562 22.910156 167.390625 21.453125 164.535156 20.039062 L 160.234375 17.945312 C 158.800781 17.261719 157.351562 16.582031 155.917969 15.9375 L 157.121094 15.917969 L 134.152344 26.457031 L 122.664062 31.714844 L 111.152344 36.921875 L 111.503906 36.59375 C 111.101562 37.238281 110.714844 37.890625 110.300781 38.527344 C 109.859375 39.148438 109.457031 39.792969 108.992188 40.394531 C 108.527344 40.996094 108.078125 41.609375 107.574219 42.179688 L 106.832031 43.042969 L 106.050781 43.871094 C 105.542969 44.4375 104.960938 44.933594 104.421875 45.464844 C 103.835938 45.949219 103.285156 46.472656 102.671875 46.921875 C 102.078125 47.398438 101.457031 47.828125 100.828125 48.257812 C 100.195312 48.664062 99.558594 49.082031 98.890625 49.4375 C 98.234375 49.816406 97.550781 50.140625 96.875 50.472656 C 96.179688 50.777344 95.492188 51.078125 94.78125 51.332031 C 94.074219 51.59375 93.355469 51.835938 92.628906 52.027344 C 92.265625 52.132812 91.902344 52.222656 91.535156 52.304688 C 91.167969 52.394531 90.800781 52.472656 90.433594 52.542969 C 89.699219 52.691406 88.953125 52.800781 88.207031 52.886719 C 87.464844 52.972656 86.714844 53.027344 85.96875 53.058594 C 84.472656 53.101562 82.972656 53.058594 81.5 52.816406 Z M 81.5 52.816406 C 82.984375 52.980469 84.476562 52.941406 85.953125 52.816406 C 86.691406 52.746094 87.429688 52.65625 88.15625 52.53125 C 88.886719 52.40625 89.613281 52.261719 90.328125 52.074219 C 90.691406 51.988281 91.046875 51.890625 91.398438 51.785156 C 91.753906 51.6875 92.105469 51.574219 92.457031 51.453125 C 93.15625 51.226562 93.84375 50.960938 94.523438 50.683594 C 95.207031 50.40625 95.871094 50.082031 96.53125 49.761719 C 97.179688 49.414062 97.828125 49.070312 98.449219 48.679688 C 99.082031 48.308594 99.679688 47.878906 100.28125 47.460938 C 100.871094 47.023438 101.453125 46.582031 102.007812 46.101562 C 102.582031 45.644531 103.09375 45.117188 103.640625 44.628906 C 104.140625 44.09375 104.679688 43.597656 105.148438 43.03125 L 105.867188 42.203125 L 106.550781 41.34375 C 107.011719 40.777344 107.421875 40.167969 107.84375 39.570312 C 108.269531 38.976562 108.636719 38.339844 109.035156 37.726562 C 109.410156 37.097656 109.757812 36.453125 110.117188 35.816406 L 110.242188 35.597656 L 110.476562 35.484375 L 121.804688 29.894531 L 133.160156 24.34375 L 155.878906 13.277344 L 156.464844 12.992188 L 157.082031 13.261719 C 158.578125 13.910156 160.035156 14.574219 161.496094 15.246094 L 165.863281 17.304688 C 168.761719 18.695312 171.640625 20.125 174.503906 21.59375 C 180.21875 24.539062 185.875 27.621094 191.414062 30.914062 C 192.800781 31.730469 194.175781 32.578125 195.550781 33.417969 C 196.914062 34.277344 198.285156 35.128906 199.636719 36.019531 C 200.992188 36.890625 202.324219 37.804688 203.664062 38.710938 C 204.992188 39.636719 206.320312 40.554688 207.621094 41.519531 C 208.9375 42.460938 210.21875 43.453125 211.507812 44.441406 C 212.78125 45.449219 214.050781 46.460938 215.292969 47.519531 C 215.917969 48.035156 216.527344 48.578125 217.136719 49.121094 C 217.746094 49.660156 218.363281 50.195312 218.953125 50.765625 C 219.542969 51.332031 220.148438 51.878906 220.726562 52.460938 L 222.457031 54.21875 L 224.742188 56.535156 L 221.53125 57.324219 L 197.363281 63.28125 L 196.84375 63.40625 L 196.296875 63.242188 C 195.621094 63.039062 194.808594 62.835938 194.050781 62.667969 C 193.273438 62.492188 192.496094 62.339844 191.710938 62.207031 C 190.140625 61.9375 188.558594 61.75 186.976562 61.644531 C 183.8125 61.433594 180.640625 61.558594 177.597656 62.164062 C 174.5625 62.761719 171.671875 63.875 169.195312 65.570312 C 166.714844 67.257812 164.691406 69.546875 163.210938 72.195312 L 162.722656 73.066406 L 161.726562 73.226562 C 148.882812 75.242188 136.027344 77.15625 123.179688 79.121094 L 103.902344 82.054688 L 84.617188 84.933594 L 46.039062 90.632812 L 7.445312 96.207031 L 0.195312 97.253906 L 6.585938 93.730469 L 25.273438 83.425781 L 43.996094 73.1875 L 62.726562 62.96875 C 68.960938 59.542969 75.242188 56.199219 81.5 52.816406 " fill-opacity="1" fill-rule="nonzero"/></g><path fill="rgb(38.42926%, 36.468506%, 34.509277%)" d="M 148.625 194.101562 C 144.113281 189.820312 135.628906 191.128906 130.078125 191.847656 C 120.339844 193.109375 110.085938 194.734375 100.957031 198.433594 C 99.050781 199.203125 99.882812 202.335938 101.816406 201.554688 C 110.152344 198.175781 119.144531 196.929688 127.957031 195.414062 C 130.980469 194.890625 134.035156 194.597656 137.097656 194.503906 C 139.960938 194.414062 144.101562 194.265625 146.339844 196.390625 C 147.851562 197.824219 150.144531 195.539062 148.625 194.101562 " fill-opacity="1" fill-rule="nonzero"/><path fill="rgb(38.42926%, 36.468506%, 34.509277%)" d="M 196.121094 60.472656 C 194.359375 59.34375 192.738281 62.148438 194.492188 63.265625 C 202.265625 68.230469 193.015625 82.667969 188.003906 86.433594 C 183.746094 89.636719 177.347656 87.820312 173.125 85.558594 C 168.230469 82.929688 163.996094 78.027344 164.179688 72.230469 C 164.246094 70.140625 161.011719 70.144531 160.949219 72.230469 C 160.558594 84.703125 178.125 96.308594 189.226562 89.511719 C 196.9375 84.789062 206.273438 66.949219 196.121094 60.472656 " fill-opacity="1" fill-rule="nonzero"/><path fill="rgb(38.42926%, 36.468506%, 34.509277%)" d="M 106.039062 40.40625 C 97.816406 42.726562 90.925781 48.417969 83.558594 52.523438 C 83.195312 52.726562 83.519531 53.285156 83.886719 53.082031 C 91.195312 49.007812 98.050781 43.332031 106.210938 41.03125 C 106.613281 40.917969 106.441406 40.292969 106.039062 40.40625 " fill-opacity="1" fill-rule="nonzero"/><path fill="rgb(38.42926%, 36.468506%, 34.509277%)" d="M 85.976562 104.210938 C 75.402344 104.210938 66.800781 113.019531 66.800781 123.847656 C 66.800781 134.679688 75.402344 143.488281 85.976562 143.488281 C 96.546875 143.488281 105.148438 134.679688 105.148438 123.847656 C 105.148438 113.019531 96.546875 104.210938 85.976562 104.210938 Z M 85.976562 146.078125 C 73.980469 146.078125 64.21875 136.105469 64.21875 123.847656 C 64.21875 111.59375 73.980469 101.621094 85.976562 101.621094 C 97.972656 101.621094 107.734375 111.59375 107.734375 123.847656 C 107.734375 136.105469 97.972656 146.078125 85.976562 146.078125 " fill-opacity="1" fill-rule="nonzero"/><path fill="rgb(38.42926%, 36.468506%, 34.509277%)" d="M 176.996094 132.480469 C 167.375 132.480469 159.546875 140.496094 159.546875 150.355469 C 159.546875 160.214844 167.375 168.230469 176.996094 168.230469 C 186.617188 168.230469 194.445312 160.214844 194.445312 150.355469 C 194.445312 140.496094 186.617188 132.480469 176.996094 132.480469 Z M 176.996094 170.820312 C 165.949219 170.820312 156.964844 161.640625 156.964844 150.355469 C 156.964844 139.070312 165.949219 129.886719 176.996094 129.886719 C 188.042969 129.886719 197.03125 139.070312 197.03125 150.355469 C 197.03125 161.640625 188.042969 170.820312 176.996094 170.820312 " fill-opacity="1" fill-rule="nonzero"/><g clip-path="url(#clip-1)"><path fill="rgb(38.42926%, 36.468506%, 34.509277%)" d="M 5.085938 94.875 L 8.382812 149.003906 L 7.789062 148.59375 C 9.195312 148.140625 10.65625 147.851562 12.132812 147.734375 C 12.859375 147.671875 13.632812 147.671875 14.339844 147.691406 C 14.707031 147.703125 15.085938 147.738281 15.460938 147.765625 C 15.828125 147.8125 16.195312 147.847656 16.5625 147.90625 C 18.027344 148.140625 19.464844 148.546875 20.839844 149.109375 C 22.214844 149.671875 23.515625 150.414062 24.722656 151.28125 C 27.144531 153.011719 29.136719 155.328125 30.554688 157.949219 C 31.953125 160.582031 32.78125 163.535156 32.90625 166.523438 L 32.921875 167.085938 L 32.929688 167.382812 L 32.925781 167.652344 C 32.917969 168.015625 32.917969 168.371094 32.886719 168.757812 C 32.84375 169.523438 32.753906 170.253906 32.621094 171 C 32.367188 172.472656 31.945312 173.925781 31.359375 175.304688 C 30.203125 178.074219 28.410156 180.582031 26.144531 182.570312 C 25.023438 183.570312 23.769531 184.429688 22.441406 185.140625 C 21.113281 185.847656 19.699219 186.417969 18.234375 186.792969 C 16.773438 187.171875 15.265625 187.378906 13.753906 187.410156 L 13.445312 187.414062 L 13.175781 187.410156 L 12.632812 187.398438 C 12.277344 187.394531 11.871094 187.347656 11.488281 187.320312 C 10.726562 187.246094 9.984375 187.121094 9.246094 186.96875 L 10.375 186.023438 L 11.566406 211.171875 L 10.390625 210.132812 L 97.808594 202.394531 L 96.558594 203.246094 C 97.242188 201.894531 97.957031 200.6875 98.726562 199.457031 C 99.496094 198.242188 100.304688 197.054688 101.164062 195.898438 C 102.882812 193.589844 104.78125 191.402344 106.90625 189.414062 C 109.03125 187.429688 111.382812 185.636719 114.003906 184.234375 C 116.617188 182.832031 119.507812 181.820312 122.515625 181.457031 C 124.019531 181.261719 125.542969 181.242188 127.050781 181.363281 L 127.375 181.386719 L 127.632812 181.417969 L 128.15625 181.480469 C 128.507812 181.523438 128.835938 181.546875 129.207031 181.609375 C 129.949219 181.738281 130.710938 181.84375 131.421875 182.019531 C 132.871094 182.316406 134.296875 182.753906 135.691406 183.28125 C 137.089844 183.800781 138.445312 184.460938 139.738281 185.21875 C 142.332031 186.738281 144.667969 188.722656 146.578125 191.058594 C 147.527344 192.226562 148.390625 193.46875 149.128906 194.789062 C 149.503906 195.445312 149.84375 196.125 150.15625 196.820312 C 150.3125 197.167969 150.457031 197.523438 150.597656 197.882812 C 150.738281 198.265625 150.859375 198.582031 150.996094 199.066406 L 148.925781 197.628906 L 180.273438 194.175781 L 195.953125 192.480469 L 211.640625 190.878906 L 209.75 192.8125 L 211.25 175.632812 L 212.832031 158.457031 C 213.867188 147.003906 214.996094 135.5625 216.085938 124.113281 L 219.542969 89.789062 C 220.113281 84.070312 220.757812 78.355469 221.363281 72.636719 C 221.96875 66.914062 222.589844 61.199219 223.25 55.484375 L 223.664062 55.519531 C 223.355469 61.265625 223.011719 67.003906 222.652344 72.742188 C 222.289062 78.480469 221.96875 84.226562 221.574219 89.960938 L 219.234375 124.382812 C 218.390625 135.851562 217.589844 147.320312 216.691406 158.785156 L 215.375 175.980469 L 213.976562 193.171875 L 213.835938 194.917969 L 212.082031 195.109375 L 196.402344 196.792969 L 180.714844 198.378906 L 149.324219 201.492188 L 147.683594 201.65625 L 147.253906 200.058594 C 147.199219 199.867188 147.085938 199.523438 146.988281 199.25 C 146.875 198.957031 146.761719 198.664062 146.632812 198.375 C 146.382812 197.789062 146.101562 197.210938 145.789062 196.648438 C 145.179688 195.519531 144.453125 194.445312 143.652344 193.4375 C 142.046875 191.421875 140.082031 189.699219 137.871094 188.367188 C 136.765625 187.699219 135.605469 187.113281 134.390625 186.644531 C 133.179688 186.171875 131.929688 185.769531 130.648438 185.488281 C 130.003906 185.320312 129.378906 185.230469 128.746094 185.109375 C 128.433594 185.050781 128.0625 185.015625 127.722656 184.964844 L 127.207031 184.898438 L 126.945312 184.863281 L 126.75 184.847656 C 125.472656 184.730469 124.191406 184.730469 122.921875 184.878906 C 120.371094 185.152344 117.882812 185.976562 115.558594 187.183594 C 113.238281 188.394531 111.085938 189.988281 109.109375 191.800781 C 107.132812 193.609375 105.328125 195.640625 103.6875 197.800781 C 102.867188 198.882812 102.085938 199.996094 101.347656 201.136719 C 100.621094 202.269531 99.902344 203.472656 99.316406 204.605469 L 98.90625 205.394531 L 98.066406 205.460938 L 10.570312 212.300781 L 9.433594 212.390625 L 9.398438 211.261719 L 8.519531 186.101562 L 8.476562 184.894531 L 9.652344 185.152344 C 10.320312 185.300781 11 185.421875 11.671875 185.5 C 12.015625 185.523438 12.324219 185.570312 12.6875 185.582031 L 13.226562 185.601562 L 13.496094 185.609375 L 13.730469 185.605469 C 15.101562 185.59375 16.472656 185.425781 17.808594 185.101562 C 19.144531 184.78125 20.433594 184.28125 21.660156 183.652344 C 22.882812 183.019531 24.039062 182.246094 25.085938 181.34375 C 27.1875 179.546875 28.871094 177.261719 29.980469 174.714844 C 30.539062 173.441406 30.941406 172.105469 31.199219 170.738281 C 31.332031 170.058594 31.425781 169.355469 31.472656 168.679688 C 31.507812 168.347656 31.515625 167.980469 31.527344 167.617188 L 31.535156 167.347656 L 31.53125 167.105469 L 31.519531 166.582031 C 31.445312 163.789062 30.710938 161.027344 29.433594 158.546875 C 28.140625 156.070312 26.300781 153.871094 24.042969 152.207031 C 22.921875 151.378906 21.707031 150.660156 20.417969 150.113281 C 19.128906 149.566406 17.777344 149.164062 16.394531 148.925781 C 16.050781 148.863281 15.703125 148.824219 15.355469 148.773438 C 15.007812 148.75 14.671875 148.710938 14.316406 148.695312 C 13.585938 148.664062 12.914062 148.65625 12.203125 148.703125 C 10.800781 148.792969 9.410156 149.054688 8.0625 149.464844 L 7.5 149.640625 L 7.472656 149.054688 L 4.671875 94.902344 L 5.085938 94.875 " fill-opacity="1" fill-rule="nonzero"/></g><path fill="rgb(38.42926%, 36.468506%, 34.509277%)" d="M 12.179688 148.351562 C 11.59375 147.246094 9.921875 148.226562 10.507812 149.332031 C 16.296875 160.289062 14.488281 173.863281 12.023438 185.488281 C 11.761719 186.714844 13.632812 187.230469 13.894531 186.007812 C 16.480469 173.820312 18.238281 159.8125 12.179688 148.351562 " fill-opacity="1" fill-rule="nonzero"/><path fill="rgb(38.42926%, 36.468506%, 34.509277%)" d="M 218.890625 82.449219 C 218.820312 74.066406 214.535156 66.683594 212.421875 58.761719 C 212.3125 58.355469 211.6875 58.53125 211.796875 58.933594 C 213.964844 67.046875 218.175781 74.433594 218.25 83.03125 C 218.289062 87.875 218.683594 92.828125 217.953125 97.636719 C 217.464844 100.835938 216.335938 104.523438 217.398438 107.710938 C 217.53125 108.101562 218.15625 107.933594 218.019531 107.535156 C 216.890625 104.144531 218.285156 100.214844 218.722656 96.800781 C 219.328125 92.078125 218.929688 87.199219 218.890625 82.449219 " fill-opacity="1" fill-rule="nonzero"/><path fill="rgb(38.42926%, 36.468506%, 34.509277%)" d="M 218.679688 58.414062 C 218.65625 57.164062 216.714844 57.164062 216.742188 58.414062 C 216.960938 69.960938 222.699219 82.777344 218.066406 93.984375 C 217.589844 95.140625 219.464844 95.640625 219.9375 94.5 C 224.648438 83.097656 218.902344 70.113281 218.679688 58.414062 " fill-opacity="1" fill-rule="nonzero"/><path fill="rgb(38.42926%, 36.468506%, 34.509277%)" d="M 220.835938 57.121094 C 220.71875 55.882812 218.78125 55.871094 218.894531 57.121094 C 219.617188 65.003906 220.488281 72.945312 219.757812 80.859375 C 219.640625 82.105469 221.582031 82.097656 221.695312 80.859375 C 222.425781 72.945312 221.554688 65.003906 220.835938 57.121094 " fill-opacity="1" fill-rule="nonzero"/><path fill="rgb(38.42926%, 36.468506%, 34.509277%)" d="M 223.417969 57.121094 C 223.324219 55.878906 221.386719 55.871094 221.480469 57.121094 C 221.792969 61.355469 220.570312 65.449219 220.1875 69.636719 C 220.074219 70.886719 222.011719 70.875 222.125 69.636719 C 222.507812 65.441406 223.734375 61.363281 223.417969 57.121094 " fill-opacity="1" fill-rule="nonzero"/><path fill="rgb(38.42926%, 36.468506%, 34.509277%)" d="M 219.746094 83.363281 C 217.667969 75.09375 216.324219 66.667969 214.574219 58.328125 C 214.488281 57.917969 213.867188 58.09375 213.953125 58.5 C 215.703125 66.839844 217.042969 75.269531 219.121094 83.535156 C 219.222656 83.941406 219.847656 83.769531 219.746094 83.363281 " fill-opacity="1" fill-rule="nonzero"/><path fill="rgb(38.42926%, 36.468506%, 34.509277%)" d="M 219.542969 79.566406 C 219.519531 86.121094 218.628906 92.550781 218.125 99.066406 C 217.691406 104.589844 218.449219 110.425781 216.539062 115.738281 C 216.394531 116.132812 217.019531 116.300781 217.160156 115.910156 C 218.972656 110.875 218.460938 105.277344 218.710938 100.023438 C 218.867188 96.746094 219.375 93.476562 219.671875 90.210938 C 219.988281 86.671875 220.175781 83.121094 220.1875 79.566406 C 220.1875 79.148438 219.542969 79.148438 219.542969 79.566406 " fill-opacity="1" fill-rule="nonzero"/><path fill="rgb(38.42926%, 36.468506%, 34.509277%)" d="M 34.390625 208.828125 C 25.769531 207.921875 16.078125 203.398438 10.757812 196.375 C 10.511719 196.046875 9.949219 196.371094 10.203125 196.703125 C 15.402344 203.574219 24.558594 208.074219 33.074219 209.304688 C 32.933594 209.503906 33.011719 209.84375 33.316406 209.8125 C 33.898438 209.757812 34.199219 209.820312 34.621094 209.382812 C 34.828125 209.160156 34.664062 208.855469 34.390625 208.828125 " fill-opacity="1" fill-rule="nonzero"/><path fill="rgb(38.42926%, 36.468506%, 34.509277%)" d="M 29.824219 207.042969 C 23.191406 204.625 16.660156 201.945312 10.136719 199.25 C 9.75 199.089844 9.585938 199.714844 9.964844 199.875 C 15.914062 202.332031 21.871094 204.765625 27.902344 207.007812 C 27.839844 207.007812 27.777344 207.007812 27.714844 207.007812 C 27.296875 206.996094 27.296875 207.644531 27.714844 207.65625 C 28.390625 207.671875 29.0625 207.664062 29.738281 207.675781 C 30.121094 207.683594 30.152344 207.160156 29.824219 207.042969 " fill-opacity="1" fill-rule="nonzero"/><path fill="rgb(38.42926%, 36.468506%, 34.509277%)" d="M 29.699219 208.269531 C 29.082031 207.835938 28.511719 207.671875 27.800781 207.449219 C 27.5 207.359375 27.332031 207.683594 27.429688 207.90625 C 21.046875 206.746094 14.597656 203.734375 9.351562 200.144531 C 9.007812 199.910156 8.683594 200.46875 9.023438 200.703125 C 14.941406 204.75 22.378906 208.046875 29.535156 208.875 C 29.886719 208.914062 29.933594 208.433594 29.699219 208.269531 " fill-opacity="1" fill-rule="nonzero"/><path fill="rgb(38.42926%, 36.468506%, 34.509277%)" d="M 28.707031 209.207031 C 27.777344 208.050781 26.558594 207.628906 25.128906 207.441406 C 24.71875 207.382812 24.722656 208.03125 25.128906 208.085938 C 26.078125 208.214844 26.890625 208.464844 27.585938 209.003906 C 24.558594 208.605469 21.542969 207.59375 18.695312 206.589844 C 15.714844 205.539062 11.46875 204.210938 9.464844 201.554688 C 9.21875 201.230469 8.65625 201.550781 8.910156 201.882812 C 10.90625 204.53125 14.773438 205.816406 17.75 206.933594 C 21.152344 208.207031 24.835938 209.433594 28.476562 209.757812 C 28.789062 209.785156 28.863281 209.398438 28.707031 209.207031 " fill-opacity="1" fill-rule="nonzero"/><path fill="rgb(38.42926%, 36.468506%, 34.509277%)" d="M 26.625 210.046875 C 25.867188 209.90625 25.109375 209.765625 24.355469 209.609375 C 24.195312 209.578125 24.078125 209.648438 24.007812 209.753906 C 19.117188 208.839844 14.660156 205.898438 10.136719 203.996094 C 9.75 203.835938 9.585938 204.464844 9.964844 204.621094 C 15.324219 206.875 20.546875 210.519531 26.539062 210.683594 C 26.898438 210.695312 26.988281 210.117188 26.625 210.046875 " fill-opacity="1" fill-rule="nonzero"/><path fill="rgb(38.42926%, 36.468506%, 34.509277%)" d="M 23.277344 209.261719 C 19.035156 208.828125 15.167969 206.890625 10.996094 206.15625 C 10.589844 206.085938 10.417969 206.707031 10.828125 206.78125 C 14 207.339844 17 208.574219 20.121094 209.339844 C 20.03125 209.507812 20.066406 209.746094 20.304688 209.800781 C 21.519531 210.089844 22.269531 210.421875 23.4375 209.863281 C 23.761719 209.714844 23.5625 209.292969 23.277344 209.261719 " fill-opacity="1" fill-rule="nonzero"/><path fill="rgb(38.42926%, 36.468506%, 34.509277%)" d="M 20.421875 209.242188 C 20.015625 209.035156 19.617188 208.898438 19.183594 208.746094 C 19.0625 208.703125 18.96875 208.738281 18.902344 208.800781 C 17.605469 208.417969 16.316406 208.003906 15.023438 207.601562 C 14.230469 207.335938 13.441406 207.070312 12.640625 206.886719 C 11.773438 206.644531 10.898438 206.417969 10.019531 206.222656 C 9.734375 206.15625 9.523438 206.484375 9.652344 206.699219 C 9.371094 206.800781 9.335938 207.191406 9.65625 207.308594 C 9.828125 207.371094 10.003906 207.425781 10.175781 207.484375 C 9.984375 207.632812 9.964844 207.976562 10.269531 208.042969 C 11.832031 208.398438 13.320312 208.984375 14.886719 209.257812 C 14.902344 209.265625 14.925781 209.277344 14.941406 209.289062 C 13.605469 209.113281 12.265625 209.050781 10.910156 209.164062 C 10.5 209.199219 10.496094 209.847656 10.910156 209.8125 C 12.730469 209.660156 14.507812 209.816406 16.296875 210.15625 C 16.582031 210.210938 16.882812 209.839844 16.609375 209.613281 C 16.511719 209.53125 16.402344 209.464844 16.296875 209.386719 C 16.574219 209.304688 16.566406 208.875 16.273438 208.765625 C 16.261719 208.761719 16.25 208.757812 16.238281 208.753906 C 16.554688 208.820312 16.871094 208.886719 17.1875 208.957031 C 18.183594 209.265625 19.175781 209.5625 20.171875 209.835938 C 20.519531 209.925781 20.753906 209.414062 20.421875 209.242188 " fill-opacity="1" fill-rule="nonzero"/><path fill="rgb(38.42926%, 36.468506%, 34.509277%)" d="M 13.648438 94.078125 C 10.90625 98.9375 6.453125 102.664062 5.429688 108.402344 C 5.359375 108.808594 5.980469 108.980469 6.054688 108.570312 C 7.066406 102.886719 11.492188 99.214844 14.207031 94.40625 C 14.410156 94.042969 13.851562 93.714844 13.648438 94.078125 " fill-opacity="1" fill-rule="nonzero"/><path fill="rgb(38.42926%, 36.468506%, 34.509277%)" d="M 10.253906 94.445312 C 8.683594 96.214844 7.617188 98.296875 6.691406 100.460938 C 6.285156 101.40625 5.921875 102.371094 5.5625 103.335938 C 5.351562 103.898438 4.757812 104.824219 5.199219 105.414062 C 5.335938 105.59375 5.53125 105.617188 5.710938 105.476562 C 5.945312 105.292969 6.066406 105.046875 6.335938 104.882812 C 6.6875 104.660156 6.363281 104.101562 6.007812 104.320312 C 5.914062 104.378906 5.835938 104.449219 5.761719 104.519531 C 5.925781 103.855469 6.425781 102.871094 6.53125 102.585938 C 6.882812 101.664062 7.257812 100.75 7.65625 99.847656 C 8.445312 98.070312 9.414062 96.363281 10.710938 94.902344 C 10.984375 94.589844 10.53125 94.132812 10.253906 94.445312 " fill-opacity="1" fill-rule="nonzero"/><path fill="rgb(38.42926%, 36.468506%, 34.509277%)" d="M 11.113281 94.875 C 9.136719 97.414062 7.050781 100.207031 6.785156 103.523438 C 6.761719 103.859375 7.234375 103.949219 7.390625 103.6875 C 7.777344 103.039062 7.976562 102.382812 8.207031 101.664062 C 8.28125 101.4375 8.105469 101.289062 7.921875 101.273438 C 8.683594 99.085938 10.175781 97.125 11.570312 95.332031 C 11.824219 95.007812 11.371094 94.546875 11.113281 94.875 " fill-opacity="1" fill-rule="nonzero"/><path fill="rgb(38.42926%, 36.468506%, 34.509277%)" d="M 12.355469 94.078125 C 10.730469 96.707031 8.53125 98.917969 7.585938 101.925781 C 7.460938 102.324219 8.082031 102.492188 8.207031 102.097656 C 9.136719 99.148438 11.320312 96.984375 12.914062 94.40625 C 13.132812 94.046875 12.574219 93.722656 12.355469 94.078125 " fill-opacity="1" fill-rule="nonzero"/><path fill="rgb(38.42926%, 36.468506%, 34.509277%)" d="M 7.585938 95.449219 C 6.769531 98.4375 5.109375 101.210938 5.074219 104.375 C 5.070312 104.640625 5.441406 104.824219 5.625 104.601562 C 6.054688 104.097656 6.183594 103.652344 6.449219 103.039062 C 6.617188 102.660156 6.0625 102.328125 5.894531 102.710938 C 6.328125 100.285156 7.554688 98.019531 8.207031 95.621094 C 8.316406 95.21875 7.695312 95.046875 7.585938 95.449219 " fill-opacity="1" fill-rule="nonzero"/><path fill="rgb(38.42926%, 36.468506%, 34.509277%)" d="M 8.671875 96.519531 C 8.105469 96.753906 7.667969 96.808594 7.285156 96.980469 C 7.320312 96.683594 7.355469 96.390625 7.378906 96.089844 C 7.398438 95.816406 7.085938 95.710938 6.890625 95.816406 C 6.777344 95.648438 6.480469 95.582031 6.324219 95.804688 C 6.132812 96.074219 5.96875 96.355469 5.824219 96.640625 C 5.792969 96.464844 5.761719 96.285156 5.71875 96.109375 C 5.628906 95.738281 5.105469 95.84375 5.085938 96.195312 C 4.976562 97.828125 4.96875 99.460938 4.976562 101.097656 C 4.96875 101.683594 4.980469 102.269531 4.984375 102.84375 C 4.984375 103.066406 4.988281 103.289062 4.988281 103.507812 C 4.988281 103.929688 5.632812 103.929688 5.632812 103.507812 C 5.636719 103.332031 5.632812 103.152344 5.632812 102.972656 C 5.632812 102.949219 5.632812 102.929688 5.632812 102.90625 C 5.796875 103.050781 6.089844 103.035156 6.148438 102.765625 C 6.359375 101.820312 6.511719 100.859375 6.664062 99.902344 C 6.867188 99.238281 7.023438 98.566406 7.144531 97.886719 C 7.617188 97.289062 8.15625 97.429688 8.84375 97.144531 C 9.222656 96.988281 9.054688 96.359375 8.671875 96.519531 " fill-opacity="1" fill-rule="nonzero"/><path fill="rgb(38.42926%, 36.468506%, 34.509277%)" d="M 161.757812 19.757812 C 159.847656 19.183594 157.894531 18.765625 155.929688 18.429688 C 154.128906 18.121094 152.289062 17.894531 150.460938 17.949219 C 149.496094 17.980469 148.214844 18.089844 147.636719 18.972656 C 147.40625 19.324219 147.964844 19.644531 148.195312 19.296875 C 148.804688 18.375 150.714844 18.570312 151.648438 18.597656 C 153.402344 18.644531 155.144531 18.929688 156.863281 19.25 C 158.453125 19.550781 160.03125 19.929688 161.585938 20.378906 C 162.164062 20.546875 162.738281 20.738281 163.304688 20.949219 C 163.332031 20.960938 163.347656 20.964844 163.371094 20.96875 C 163.335938 20.984375 163.304688 20.992188 163.261719 21.015625 C 162.890625 21.203125 163.21875 21.761719 163.585938 21.574219 C 163.640625 21.546875 164.019531 21.609375 164.136719 21.613281 C 164.300781 21.621094 164.472656 21.460938 164.460938 21.292969 C 164.378906 20.234375 162.539062 19.988281 161.757812 19.757812 " fill-opacity="1" fill-rule="nonzero"/><path fill="rgb(38.42926%, 36.468506%, 34.509277%)" d="M 160.625 17.554688 C 157.976562 16.898438 155.238281 16.796875 152.816406 15.402344 C 152.457031 15.195312 152.128906 15.753906 152.492188 15.964844 C 154.324219 17.019531 156.34375 17.402344 158.402344 17.773438 C 159.605469 17.988281 160.789062 18.234375 161.953125 18.601562 C 162.632812 18.816406 163.21875 19.054688 163.902344 19.207031 C 163.683594 19.15625 163.546875 19.175781 163.339844 19.253906 C 162.957031 19.402344 163.121094 20.03125 163.511719 19.878906 C 163.65625 19.824219 163.949219 19.886719 164.132812 19.878906 C 164.300781 19.878906 164.464844 19.734375 164.453125 19.554688 C 164.386719 18.25 161.546875 17.785156 160.625 17.554688 " fill-opacity="1" fill-rule="nonzero"/><path fill="rgb(38.42926%, 36.468506%, 34.509277%)" d="M 169.855469 21.445312 C 163.984375 19.183594 157.4375 15.414062 150.933594 16.222656 C 150.523438 16.273438 150.519531 16.921875 150.933594 16.871094 C 156.695312 16.15625 162.519531 19.097656 167.851562 21.328125 C 167.855469 21.449219 167.921875 21.566406 168.078125 21.605469 C 168.621094 21.746094 169.152344 21.882812 169.683594 22.066406 C 170.082031 22.207031 170.238281 21.59375 169.855469 21.445312 " fill-opacity="1" fill-rule="nonzero"/><path fill="rgb(38.42926%, 36.468506%, 34.509277%)" d="M 172.269531 24.515625 C 171.441406 23.476562 170.121094 22.863281 168.941406 22.3125 C 167.003906 21.410156 164.953125 20.734375 162.914062 20.101562 C 158.886719 18.847656 154.746094 17.804688 150.585938 17.097656 C 150.179688 17.027344 150.003906 17.652344 150.414062 17.71875 C 154.179688 18.359375 157.90625 19.304688 161.570312 20.375 C 163.75 21.007812 165.921875 21.71875 168.011719 22.605469 C 169.332031 23.164062 170.898438 23.824219 171.816406 24.976562 C 172.070312 25.304688 172.527344 24.839844 172.269531 24.515625 " fill-opacity="1" fill-rule="nonzero"/><path fill="rgb(38.42926%, 36.468506%, 34.509277%)" d="M 173.5625 23.65625 C 167.722656 18.5 159.097656 19.3125 152.816406 14.972656 C 152.472656 14.734375 152.152344 15.292969 152.492188 15.53125 C 158.71875 19.839844 167.332031 19.019531 173.105469 24.113281 C 173.417969 24.386719 173.875 23.929688 173.5625 23.65625 " fill-opacity="1" fill-rule="nonzero"/><path fill="rgb(38.42926%, 36.468506%, 34.509277%)" d="M 210.058594 190.371094 C 209.246094 190.839844 206.550781 189.304688 205.902344 189.019531 C 203.96875 188.167969 202.078125 187.222656 200.179688 186.296875 C 196.90625 184.699219 193.46875 182.675781 189.878906 181.886719 C 189.066406 181.710938 188.71875 182.957031 189.535156 183.136719 C 193.941406 184.101562 198.148438 186.757812 202.179688 188.703125 C 203.917969 189.542969 208.648438 192.675781 210.710938 191.488281 C 211.433594 191.070312 210.785156 189.953125 210.058594 190.371094 " fill-opacity="1" fill-rule="nonzero"/><path fill="rgb(38.42926%, 36.468506%, 34.509277%)" d="M 211.851562 187.066406 C 204.375 184.953125 197.835938 180.207031 191.324219 176.125 C 190.617188 175.679688 189.96875 176.804688 190.671875 177.242188 C 197.285156 181.386719 203.914062 186.167969 211.507812 188.316406 C 212.308594 188.542969 212.648438 187.292969 211.851562 187.066406 " fill-opacity="1" fill-rule="nonzero"/><path fill="rgb(38.42926%, 36.468506%, 34.509277%)" d="M 210.859375 180.59375 C 208.742188 181.015625 205.734375 178.957031 203.945312 178.042969 C 201.625 176.859375 199.359375 175.550781 197.140625 174.183594 C 196.429688 173.746094 195.78125 174.867188 196.488281 175.300781 C 199.105469 176.914062 201.789062 178.421875 204.542969 179.792969 C 206.410156 180.722656 209.03125 182.273438 211.203125 181.84375 C 212.019531 181.679688 211.671875 180.429688 210.859375 180.59375 " fill-opacity="1" fill-rule="nonzero"/><path fill="rgb(38.42926%, 36.468506%, 34.509277%)" d="M 212.648438 175.480469 C 209.234375 173.542969 205.835938 171.617188 202.15625 170.234375 C 201.375 169.9375 201.039062 171.191406 201.8125 171.480469 C 205.390625 172.824219 208.683594 174.71875 212 176.597656 C 212.722656 177.007812 213.375 175.890625 212.648438 175.480469 " fill-opacity="1" fill-rule="nonzero"/><path fill="rgb(38.42926%, 36.468506%, 34.509277%)" d="M 214.4375 168.292969 C 210.296875 166.570312 207.265625 162.96875 202.632812 162.441406 C 201.804688 162.34375 201.8125 163.644531 202.632812 163.734375 C 207.019531 164.234375 210.144531 167.898438 214.089844 169.539062 C 214.863281 169.859375 215.191406 168.605469 214.4375 168.292969 " fill-opacity="1" fill-rule="nonzero"/><path fill="rgb(38.42926%, 36.468506%, 34.509277%)" d="M 215.082031 161.167969 C 211.0625 159.476562 207.765625 156.339844 203.449219 155.34375 C 202.636719 155.152344 202.292969 156.402344 203.105469 156.589844 C 207.386719 157.582031 210.738281 160.730469 214.738281 162.417969 C 215.507812 162.742188 215.839844 161.488281 215.082031 161.167969 " fill-opacity="1" fill-rule="nonzero"/><path fill="rgb(38.42926%, 36.468506%, 34.509277%)" d="M 215.082031 156.636719 C 211.382812 155.359375 207.574219 153.375 205.027344 150.328125 C 204.492188 149.6875 203.582031 150.609375 204.113281 151.242188 C 206.804688 154.460938 210.832031 156.535156 214.738281 157.886719 C 215.527344 158.15625 215.863281 156.90625 215.082031 156.636719 " fill-opacity="1" fill-rule="nonzero"/><path fill="rgb(38.42926%, 36.468506%, 34.509277%)" d="M 216.527344 153.464844 C 212.613281 151.367188 209 148.730469 204.894531 146.988281 C 204.136719 146.667969 203.476562 147.785156 204.246094 148.109375 C 208.347656 149.847656 211.960938 152.488281 215.875 154.582031 C 216.609375 154.976562 217.261719 153.859375 216.527344 153.464844 " fill-opacity="1" fill-rule="nonzero"/><path fill="rgb(38.42926%, 36.468506%, 34.509277%)" d="M 218.464844 148.285156 C 214.183594 145.273438 209.324219 143.28125 204.894531 140.515625 C 204.1875 140.070312 203.539062 141.191406 204.246094 141.632812 C 208.671875 144.398438 213.53125 146.394531 217.8125 149.402344 C 218.496094 149.882812 219.144531 148.761719 218.464844 148.285156 " fill-opacity="1" fill-rule="nonzero"/><path fill="rgb(38.42926%, 36.468506%, 34.509277%)" d="M 203.144531 193.203125 C 202.878906 193.113281 202.609375 193.03125 202.339844 192.949219 C 201.167969 191.558594 195.136719 187.464844 194.585938 187.113281 C 191.363281 185.054688 187.824219 183.300781 184.058594 182.535156 C 183.246094 182.371094 182.902344 183.617188 183.71875 183.785156 C 190.300781 185.125 196.402344 189.375 201.414062 193.800781 C 201.476562 193.941406 201.597656 194.058594 201.773438 194.121094 C 201.9375 194.269531 202.101562 194.414062 202.265625 194.558594 C 202.515625 194.789062 202.929688 194.828125 203.179688 194.558594 C 203.261719 194.46875 203.347656 194.375 203.429688 194.285156 C 203.765625 193.914062 203.617188 193.355469 203.144531 193.203125 " fill-opacity="1" fill-rule="nonzero"/><path fill="rgb(38.42926%, 36.468506%, 34.509277%)" d="M 198.433594 195.550781 C 192.085938 191.246094 185.4375 187.582031 178.398438 184.542969 C 177.644531 184.214844 176.984375 185.332031 177.746094 185.660156 C 184.785156 188.703125 191.4375 192.363281 197.78125 196.667969 C 198.472656 197.136719 199.117188 196.015625 198.433594 195.550781 " fill-opacity="1" fill-rule="nonzero"/><path fill="rgb(38.42926%, 36.468506%, 34.509277%)" d="M 137.816406 130.257812 C 123.832031 117.460938 114.898438 100.328125 101.628906 86.878906 C 101.039062 86.28125 100.125 87.199219 100.714844 87.792969 C 113.984375 101.242188 122.917969 118.375 136.902344 131.171875 C 137.515625 131.734375 138.433594 130.820312 137.816406 130.257812 " fill-opacity="1" fill-rule="nonzero"/><path fill="rgb(38.42926%, 36.468506%, 34.509277%)" d="M 142.988281 123.78125 C 136.761719 118.046875 132.664062 110.441406 127.351562 103.917969 C 121.359375 96.558594 114.210938 90.242188 108.089844 82.992188 C 107.550781 82.355469 106.640625 83.273438 107.175781 83.90625 C 113.296875 91.160156 120.347656 97.550781 126.4375 104.832031 C 131.847656 111.304688 135.828125 118.941406 142.074219 124.699219 C 142.683594 125.261719 143.601562 124.347656 142.988281 123.78125 " fill-opacity="1" fill-rule="nonzero"/><path fill="rgb(38.42926%, 36.468506%, 34.509277%)" d="M 146.867188 112.777344 C 139.726562 104.269531 131.78125 96.460938 124.992188 87.65625 C 124.492188 87.003906 123.367188 87.648438 123.875 88.308594 C 130.730469 97.203125 138.738281 105.097656 145.953125 113.691406 C 146.488281 114.332031 147.394531 113.410156 146.867188 112.777344 " fill-opacity="1" fill-rule="nonzero"/><path fill="rgb(38.42926%, 36.468506%, 34.509277%)" d="M 158.496094 101.121094 C 154.015625 96.4375 149.460938 91.816406 144.148438 88.070312 C 143.464844 87.589844 142.820312 88.714844 143.496094 89.1875 C 148.714844 92.871094 153.179688 97.4375 157.582031 102.039062 C 158.160156 102.640625 159.074219 101.722656 158.496094 101.121094 " fill-opacity="1" fill-rule="nonzero"/><path fill="rgb(38.42926%, 36.468506%, 34.509277%)" d="M 155.457031 18.058594 C 154.621094 18.058594 154.621094 19.351562 155.457031 19.351562 C 156.289062 19.351562 156.289062 18.058594 155.457031 18.058594 " fill-opacity="1" fill-rule="nonzero"/><path fill="rgb(38.42926%, 36.468506%, 34.509277%)" d="M 208.773438 56.992188 C 206.652344 55.816406 204.992188 54.039062 203.089844 52.5625 C 202.4375 52.054688 201.515625 52.964844 202.175781 53.476562 C 204.164062 55.019531 205.898438 56.878906 208.121094 58.109375 C 208.851562 58.515625 209.503906 57.394531 208.773438 56.992188 " fill-opacity="1" fill-rule="nonzero"/><path fill="rgb(38.42926%, 36.468506%, 34.509277%)" d="M 213.144531 56.925781 C 210.179688 55.941406 208.292969 52.890625 205.386719 51.746094 C 204.609375 51.445312 204.277344 52.695312 205.042969 52.996094 C 207.949219 54.136719 209.796875 57.175781 212.796875 58.175781 C 213.589844 58.441406 213.929688 57.191406 213.144531 56.925781 " fill-opacity="1" fill-rule="nonzero"/><path fill="rgb(38.42926%, 36.468506%, 34.509277%)" d="M 215.554688 56.90625 C 215.558594 56.664062 214.277344 55.777344 213.945312 55.476562 C 213.199219 54.792969 212.480469 54.078125 211.714844 53.417969 C 209.882812 51.839844 208.34375 50.035156 206.035156 49.160156 C 205.253906 48.863281 204.917969 50.113281 205.6875 50.40625 C 207.695312 51.167969 208.929688 52.804688 210.542969 54.125 C 211.640625 55.019531 212.628906 56.042969 213.691406 56.984375 C 214.640625 57.824219 216.824219 59.195312 216.847656 56.90625 C 216.859375 56.070312 215.566406 56.070312 215.554688 56.90625 " fill-opacity="1" fill-rule="nonzero"/><path fill="rgb(38.42926%, 36.468506%, 34.509277%)" d="M 219.242188 53.855469 C 215.542969 50.898438 211.609375 48.300781 207.480469 45.988281 C 206.753906 45.578125 206.101562 46.695312 206.828125 47.105469 C 210.859375 49.363281 214.714844 51.886719 218.328125 54.773438 C 218.976562 55.285156 219.894531 54.378906 219.242188 53.855469 " fill-opacity="1" fill-rule="nonzero"/><path fill="rgb(38.42926%, 36.468506%, 34.509277%)" d="M 205.882812 42.488281 C 203.621094 49.8125 199.960938 56.140625 192.121094 58.222656 C 191.316406 58.433594 191.65625 59.6875 192.460938 59.46875 C 200.738281 57.273438 204.734375 50.59375 207.132812 42.832031 C 207.378906 42.03125 206.128906 41.691406 205.882812 42.488281 " fill-opacity="1" fill-rule="nonzero"/><path fill="rgb(38.42926%, 36.468506%, 34.509277%)" d="M 204.25 60.230469 C 201.882812 59.132812 200.355469 56.957031 198.566406 55.152344 C 197.976562 54.558594 197.0625 55.476562 197.652344 56.066406 C 199.519531 57.957031 201.125 60.203125 203.597656 61.347656 C 204.347656 61.695312 205.007812 60.582031 204.25 60.230469 " fill-opacity="1" fill-rule="nonzero"/><path fill="rgb(38.42926%, 36.468506%, 34.509277%)" d="M 201.019531 60.230469 C 198.773438 58.953125 196.707031 57.402344 194.6875 55.800781 C 194.042969 55.285156 193.117188 56.195312 193.773438 56.714844 C 195.878906 58.386719 198.023438 60.015625 200.367188 61.347656 C 201.09375 61.761719 201.742188 60.640625 201.019531 60.230469 " fill-opacity="1" fill-rule="nonzero"/><path fill="rgb(38.42926%, 36.468506%, 34.509277%)" d="M 205.671875 59.035156 C 204.078125 57.617188 202.5625 56.109375 201.148438 54.503906 C 200.597656 53.875 199.683594 54.796875 200.234375 55.421875 C 201.648438 57.023438 203.164062 58.53125 204.757812 59.953125 C 205.378906 60.503906 206.296875 59.589844 205.671875 59.035156 " fill-opacity="1" fill-rule="nonzero"/><path fill="rgb(38.42926%, 36.468506%, 34.509277%)" d="M 218.597656 54.503906 C 214.972656 51.222656 211.449219 47.824219 207.613281 44.792969 C 206.964844 44.28125 206.042969 45.191406 206.699219 45.707031 C 210.539062 48.742188 214.058594 52.140625 217.683594 55.421875 C 218.300781 55.976562 219.214844 55.0625 218.597656 54.503906 " fill-opacity="1" fill-rule="nonzero"/><path fill="rgb(38.42926%, 36.468506%, 34.509277%)" d="M 206.507812 61.4375 C 206.410156 60.617188 205.117188 60.609375 205.214844 61.4375 C 205.71875 65.691406 203.414062 70.792969 201.753906 74.570312 C 200.292969 77.890625 196.605469 86.199219 191.816406 84.769531 C 191.015625 84.527344 190.675781 85.78125 191.472656 86.015625 C 196.304688 87.460938 199.8125 81.195312 201.644531 77.757812 C 204.039062 73.265625 207.132812 66.695312 206.507812 61.4375 " fill-opacity="1" fill-rule="nonzero"/><path fill="rgb(38.42926%, 36.468506%, 34.509277%)" d="M 200.066406 61.265625 C 199.355469 63.921875 199.378906 66.71875 199.363281 69.457031 C 199.355469 71.003906 199.191406 72.695312 199.394531 74.242188 C 199.40625 74.320312 199.410156 74.375 199.417969 74.433594 C 199.53125 75.179688 200.667969 74.960938 200.6875 74.261719 C 200.691406 74.085938 200.691406 73.914062 200.691406 73.738281 C 200.691406 73.613281 200.65625 73.511719 200.609375 73.425781 C 200.554688 72.363281 200.65625 70.960938 200.65625 69.917969 C 200.65625 67.15625 200.597656 64.28125 201.316406 61.609375 C 201.53125 60.800781 200.285156 60.457031 200.066406 61.265625 " fill-opacity="1" fill-rule="nonzero"/><path fill="rgb(38.42926%, 36.468506%, 34.509277%)" d="M 203.253906 70.976562 C 202.605469 67.769531 202.609375 64.472656 201.960938 61.265625 C 201.796875 60.445312 200.550781 60.792969 200.714844 61.609375 C 201.367188 64.816406 201.359375 68.109375 202.007812 71.320312 C 202.175781 72.140625 203.417969 71.789062 203.253906 70.976562 " fill-opacity="1" fill-rule="nonzero"/><path fill="rgb(38.42926%, 36.468506%, 34.509277%)" d="M 204.613281 67.300781 C 204.574219 65.78125 204.578125 64.253906 204.570312 62.730469 C 204.566406 61.898438 203.273438 61.898438 203.277344 62.730469 C 203.289062 65.089844 203.265625 67.449219 203.417969 69.800781 C 203.449219 70.261719 203.957031 70.652344 204.390625 70.359375 C 205.398438 69.691406 205.074219 68.972656 205.214844 67.914062 C 205.273438 67.480469 204.949219 67.285156 204.613281 67.300781 " fill-opacity="1" fill-rule="nonzero"/><path fill="rgb(38.42926%, 36.468506%, 34.509277%)" d="M 205.214844 62.082031 L 205.214844 65.320312 C 205.214844 66.15625 206.507812 66.15625 206.507812 65.320312 L 206.507812 62.082031 C 206.507812 61.246094 205.214844 61.246094 205.214844 62.082031 " fill-opacity="1" fill-rule="nonzero"/><path fill="rgb(38.42926%, 36.468506%, 34.509277%)" d="M 199.085938 77.929688 C 198.382812 78.558594 197.59375 79.105469 196.769531 79.621094 C 199.503906 76.355469 201.785156 72.652344 203.699219 68.828125 C 202.839844 72.277344 201.65625 75.632812 199.085938 77.929688 Z M 205.304688 62.074219 C 203.980469 65.417969 202.390625 68.828125 200.492188 72.066406 C 200.960938 71.003906 201.421875 69.9375 201.894531 68.882812 C 202.238281 68.128906 201.125 67.472656 200.78125 68.230469 C 199.3125 71.484375 197.96875 74.777344 196.082031 77.816406 C 194.796875 79.871094 192.945312 81.449219 191.320312 83.214844 C 191.082031 83.425781 190.855469 83.648438 190.640625 83.875 C 190.226562 84.207031 189.808594 84.527344 189.378906 84.835938 C 189.003906 85.105469 189.039062 85.578125 189.265625 85.851562 C 189.214844 85.960938 189.15625 86.054688 189.109375 86.164062 C 188.785156 86.910156 189.816406 87.570312 190.226562 86.820312 C 190.675781 86 191.222656 85.269531 191.808594 84.574219 C 192.476562 84.023438 193.125 83.449219 193.753906 82.847656 C 196.167969 81.125 199.117188 79.824219 201.09375 77.800781 C 204.761719 74.042969 205.179688 67.21875 206.550781 62.417969 C 206.78125 61.597656 205.601562 61.316406 205.304688 62.074219 " fill-opacity="1" fill-rule="nonzero"/><path fill="rgb(38.42926%, 36.468506%, 34.509277%)" d="M 176.527344 138.863281 C 172.152344 138.972656 168.460938 140.160156 165.035156 143.03125 C 162.191406 145.421875 157.199219 151.058594 158.707031 155.167969 C 158.996094 155.945312 160.246094 155.605469 159.957031 154.824219 C 158.460938 150.757812 164.46875 145.011719 167.25 142.910156 C 170.019531 140.816406 173.191406 140.269531 176.527344 140.160156 C 178.933594 140.082031 193.480469 139.753906 192.3125 144.140625 C 192.097656 144.949219 193.347656 145.289062 193.558594 144.484375 C 195.257812 138.101562 179.707031 138.789062 176.527344 138.863281 " fill-opacity="1" fill-rule="nonzero"/><path fill="rgb(38.42926%, 36.468506%, 34.509277%)" d="M 163.183594 147.21875 C 163.089844 146.972656 162.917969 146.804688 162.800781 146.574219 C 162.714844 146.414062 162.597656 146.332031 162.472656 146.289062 C 162.222656 145.703125 161.890625 144.773438 161.835938 144.636719 C 161.523438 143.875 161.214844 143.113281 160.859375 142.367188 C 160.503906 141.613281 159.390625 142.269531 159.742188 143.019531 C 160.214844 144.019531 160.609375 145.050781 161.042969 146.066406 C 161.300781 146.667969 161.613281 147.898438 162.386719 148.015625 C 162.816406 148.078125 163.382812 147.734375 163.183594 147.21875 " fill-opacity="1" fill-rule="nonzero"/><path fill="rgb(38.42926%, 36.468506%, 34.509277%)" d="M 164.414062 143.984375 C 163.675781 142.503906 163.105469 140.945312 162.050781 139.644531 C 161.523438 138.996094 160.617188 139.917969 161.136719 140.5625 C 162.113281 141.761719 162.617188 143.269531 163.296875 144.636719 C 163.671875 145.386719 164.785156 144.730469 164.414062 143.984375 " fill-opacity="1" fill-rule="nonzero"/><path fill="rgb(38.42926%, 36.468506%, 34.509277%)" d="M 166.03125 143.339844 C 165.015625 141.527344 164.078125 139.675781 163.121094 137.835938 C 162.738281 137.09375 161.621094 137.746094 162.007812 138.488281 C 162.960938 140.332031 163.898438 142.179688 164.914062 143.992188 C 165.320312 144.71875 166.4375 144.066406 166.03125 143.339844 " fill-opacity="1" fill-rule="nonzero"/><path fill="rgb(38.42926%, 36.468506%, 34.509277%)" d="M 166.820312 142.140625 C 165.761719 140.34375 164.84375 138.425781 164.480469 136.371094 C 164.332031 135.550781 163.089844 135.898438 163.234375 136.714844 C 163.671875 139.191406 164.894531 141.519531 166.214844 143.632812 C 166.324219 143.8125 166.546875 143.976562 166.769531 143.953125 C 167.710938 143.859375 167.480469 143.480469 167.710938 142.863281 C 167.929688 142.277344 167.28125 141.941406 166.820312 142.140625 " fill-opacity="1" fill-rule="nonzero"/><path fill="rgb(38.42926%, 36.468506%, 34.509277%)" d="M 168.703125 141.722656 C 168.707031 141.359375 168.460938 141.164062 168.1875 141.117188 C 167.433594 139.335938 166.476562 137.632812 166.09375 135.722656 C 165.929688 134.90625 164.6875 135.25 164.847656 136.066406 C 165.324219 138.441406 166.6875 140.480469 167.441406 142.757812 C 167.664062 143.433594 168.730469 143.34375 168.710938 142.589844 C 168.699219 142.296875 168.695312 142.007812 168.703125 141.722656 " fill-opacity="1" fill-rule="nonzero"/><path fill="rgb(38.42926%, 36.468506%, 34.509277%)" d="M 169.558594 139.824219 C 168.660156 138.171875 167.679688 136.535156 167.734375 134.601562 C 167.757812 133.765625 166.464844 133.765625 166.441406 134.601562 C 166.367188 137.242188 167.945312 139.34375 169.039062 141.628906 C 169.269531 142.105469 170.144531 142.023438 170.222656 141.472656 C 170.273438 141.097656 170.308594 140.804688 170.316406 140.425781 C 170.332031 139.953125 169.921875 139.757812 169.558594 139.824219 " fill-opacity="1" fill-rule="nonzero"/><path fill="rgb(38.42926%, 36.468506%, 34.509277%)" d="M 170.773438 139.492188 C 170.761719 139.464844 170.75 139.445312 170.722656 139.402344 C 170.589844 139.175781 170.484375 138.925781 170.386719 138.683594 C 170.160156 138.140625 169.972656 137.578125 169.792969 137.015625 C 169.476562 136.035156 169.125 134.984375 169.023438 133.953125 C 168.945312 133.128906 167.652344 133.121094 167.734375 133.953125 C 167.824219 134.875 169.449219 142.175781 171.101562 140.5625 C 171.511719 140.15625 171.199219 139.609375 170.773438 139.492188 " fill-opacity="1" fill-rule="nonzero"/><path fill="rgb(38.42926%, 36.468506%, 34.509277%)" d="M 172.167969 138.804688 C 171.09375 137.164062 170.476562 135.257812 170.316406 133.304688 C 170.25 132.480469 168.957031 132.472656 169.023438 133.304688 C 169.203125 135.488281 169.851562 137.625 171.054688 139.460938 C 171.511719 140.152344 172.628906 139.503906 172.167969 138.804688 " fill-opacity="1" fill-rule="nonzero"/><path fill="rgb(38.42926%, 36.468506%, 34.509277%)" d="M 173.683594 138.351562 C 172.304688 137.113281 171.441406 134.457031 171.289062 132.65625 C 171.214844 131.832031 169.921875 131.824219 169.996094 132.65625 C 170.179688 134.78125 171.136719 137.796875 172.769531 139.265625 C 173.386719 139.820312 174.304688 138.910156 173.683594 138.351562 " fill-opacity="1" fill-rule="nonzero"/><path fill="rgb(38.42926%, 36.468506%, 34.509277%)" d="M 175.945312 137.703125 C 174.339844 135.863281 173.679688 133.539062 173.203125 131.191406 C 173.039062 130.371094 171.792969 130.71875 171.957031 131.535156 C 172.480469 134.121094 173.273438 136.601562 175.03125 138.617188 C 175.582031 139.25 176.492188 138.328125 175.945312 137.703125 " fill-opacity="1" fill-rule="nonzero"/><path fill="rgb(38.42926%, 36.468506%, 34.509277%)" d="M 178.695312 138.957031 C 177.601562 136.300781 176.082031 133.691406 175.464844 130.867188 C 175.289062 130.050781 174.042969 130.394531 174.21875 131.210938 C 174.835938 134.035156 176.355469 136.648438 177.453125 139.304688 C 177.761719 140.066406 179.015625 139.730469 178.695312 138.957031 " fill-opacity="1" fill-rule="nonzero"/><path fill="rgb(38.42926%, 36.468506%, 34.509277%)" d="M 181.113281 138.996094 C 179.496094 137.195312 178.613281 134.394531 178.398438 132.007812 C 178.320312 131.1875 177.027344 131.179688 177.105469 132.007812 C 177.355469 134.75 178.335938 137.839844 180.203125 139.914062 C 180.761719 140.535156 181.671875 139.617188 181.113281 138.996094 " fill-opacity="1" fill-rule="nonzero"/><path fill="rgb(38.42926%, 36.468506%, 34.509277%)" d="M 184.023438 138.671875 C 182.617188 136.871094 181.589844 134.425781 181.28125 132.164062 C 181.171875 131.339844 179.925781 131.6875 180.035156 132.503906 C 180.371094 134.996094 181.570312 137.617188 183.109375 139.589844 C 183.625 140.246094 184.53125 139.324219 184.023438 138.671875 " fill-opacity="1" fill-rule="nonzero"/><path fill="rgb(38.42926%, 36.468506%, 34.509277%)" d="M 186.609375 139.324219 C 185.074219 137.410156 185.15625 134.695312 183.800781 132.652344 C 183.339844 131.960938 182.222656 132.609375 182.683594 133.308594 C 184.109375 135.449219 184.054688 138.195312 185.695312 140.234375 C 186.214844 140.890625 187.125 139.964844 186.609375 139.324219 " fill-opacity="1" fill-rule="nonzero"/><path fill="rgb(38.42926%, 36.468506%, 34.509277%)" d="M 192.203125 141.070312 C 190.984375 139.316406 190.25 137.285156 188.972656 135.566406 C 188.480469 134.90625 187.355469 135.550781 187.855469 136.222656 C 189.132812 137.9375 189.867188 139.972656 191.085938 141.722656 C 191.558594 142.40625 192.679688 141.757812 192.203125 141.070312 " fill-opacity="1" fill-rule="nonzero"/><path fill="rgb(38.42926%, 36.468506%, 34.509277%)" d="M 193.605469 141.550781 C 192.152344 147.410156 192.644531 153.210938 189.308594 158.480469 C 188.714844 159.417969 181.78125 169.210938 181.113281 168.457031 C 180.5625 167.832031 179.652344 168.75 180.203125 169.375 C 182.304688 171.761719 187.429688 163.527344 188.289062 162.3125 C 189.71875 160.296875 191.269531 158.183594 192.28125 155.914062 C 194.230469 151.546875 193.714844 146.460938 194.851562 141.894531 C 195.054688 141.085938 193.808594 140.738281 193.605469 141.550781 " fill-opacity="1" fill-rule="nonzero"/><path fill="rgb(38.42926%, 36.468506%, 34.509277%)" d="M 194.230469 149.8125 C 193.410156 156.632812 190.316406 162.523438 186.242188 167.941406 C 185.734375 168.609375 186.859375 169.253906 187.355469 168.59375 C 191.597656 162.957031 194.675781 156.886719 195.523438 149.8125 C 195.621094 148.988281 194.328125 148.996094 194.230469 149.8125 " fill-opacity="1" fill-rule="nonzero"/><path fill="rgb(38.42926%, 36.468506%, 34.509277%)" d="M 116.488281 193.710938 C 115.007812 191.980469 114.011719 189.714844 112.289062 188.207031 C 111.667969 187.65625 110.75 188.570312 111.378906 189.121094 C 113.089844 190.625 114.09375 192.898438 115.578125 194.621094 C 116.121094 195.257812 117.03125 194.339844 116.488281 193.710938 " fill-opacity="1" fill-rule="nonzero"/><path fill="rgb(38.42926%, 36.468506%, 34.509277%)" d="M 119.402344 193.710938 C 117.574219 191.730469 116.011719 189.390625 115.039062 186.871094 C 114.746094 186.101562 113.496094 186.4375 113.796875 187.214844 C 114.851562 189.953125 116.5 192.472656 118.484375 194.621094 C 119.054688 195.238281 119.964844 194.320312 119.402344 193.710938 " fill-opacity="1" fill-rule="nonzero"/><path fill="rgb(38.42926%, 36.468506%, 34.509277%)" d="M 121.855469 193.933594 C 119.1875 191.886719 117.605469 188.738281 116.660156 185.578125 C 116.417969 184.78125 115.171875 185.121094 115.410156 185.921875 C 116.464844 189.441406 118.25 192.78125 121.203125 195.050781 C 121.863281 195.558594 122.503906 194.433594 121.855469 193.933594 " fill-opacity="1" fill-rule="nonzero"/><path fill="rgb(38.42926%, 36.468506%, 34.509277%)" d="M 124.113281 192.3125 C 121.898438 190.917969 119.984375 187.714844 119.242188 185.253906 C 119 184.453125 117.753906 184.796875 117.996094 185.597656 C 118.839844 188.390625 120.945312 191.847656 123.460938 193.429688 C 124.171875 193.875 124.820312 192.753906 124.113281 192.3125 " fill-opacity="1" fill-rule="nonzero"/><path fill="rgb(38.42926%, 36.468506%, 34.509277%)" d="M 125.488281 191.316406 C 124.933594 190.667969 124.433594 189.875 123.964844 189.257812 C 123.089844 188.113281 122.496094 186.890625 122.496094 185.425781 C 122.5 184.589844 121.207031 184.589844 121.203125 185.425781 C 121.203125 186.859375 121.648438 188.097656 122.414062 189.296875 C 122.78125 189.875 123.226562 190.40625 123.652344 190.9375 C 124.15625 191.558594 124.601562 192.371094 125.21875 192.871094 C 125.429688 193.039062 125.757812 193.15625 126.003906 192.972656 C 126.019531 192.960938 126.035156 192.949219 126.050781 192.9375 C 126.21875 192.8125 126.398438 192.613281 126.371094 192.378906 C 126.351562 192.277344 126.34375 192.175781 126.351562 192.070312 C 126.515625 191.496094 125.925781 191.167969 125.488281 191.316406 " fill-opacity="1" fill-rule="nonzero"/><path fill="rgb(38.42926%, 36.468506%, 34.509277%)" d="M 129.453125 190.953125 C 127.011719 190.03125 126.242188 186.601562 125.316406 184.449219 C 124.988281 183.683594 123.875 184.347656 124.199219 185.105469 C 125.316406 187.710938 126.183594 191.097656 129.109375 192.199219 C 129.890625 192.496094 130.226562 191.242188 129.453125 190.953125 " fill-opacity="1" fill-rule="nonzero"/><path fill="rgb(38.42926%, 36.468506%, 34.509277%)" d="M 132.683594 188.6875 C 130.570312 188.214844 129.996094 186.160156 129.582031 184.28125 C 129.402344 183.46875 128.15625 183.8125 128.335938 184.625 C 128.847656 186.960938 129.757812 189.363281 132.339844 189.933594 C 133.152344 190.117188 133.5 188.867188 132.683594 188.6875 " fill-opacity="1" fill-rule="nonzero"/><path fill="rgb(38.42926%, 36.468506%, 34.509277%)" d="M 136.238281 188.6875 C 134.402344 188.113281 133.742188 185.996094 133.457031 184.28125 C 133.324219 183.460938 132.078125 183.808594 132.214844 184.625 C 132.578125 186.835938 133.59375 189.21875 135.898438 189.933594 C 136.695312 190.183594 137.03125 188.933594 136.238281 188.6875 " fill-opacity="1" fill-rule="nonzero"/><path fill="rgb(38.42926%, 36.468506%, 34.509277%)" d="M 141.371094 190.792969 C 140.058594 189.261719 138.78125 187.703125 137.59375 186.070312 C 137.109375 185.402344 135.988281 186.046875 136.480469 186.722656 C 137.730469 188.445312 139.074219 190.09375 140.457031 191.710938 C 141 192.34375 141.910156 191.425781 141.371094 190.792969 " fill-opacity="1" fill-rule="nonzero"/><path fill="rgb(38.42926%, 36.468506%, 34.509277%)" d="M 161.117188 195.160156 C 156.992188 194.480469 153.304688 190.164062 149.964844 187.855469 C 145.59375 184.835938 140.066406 185.390625 135.269531 183.503906 C 134.492188 183.199219 134.160156 184.453125 134.925781 184.753906 C 140.292969 186.859375 145.785156 186.394531 150.652344 189.925781 C 153.667969 192.105469 156.949219 195.777344 160.777344 196.410156 C 161.589844 196.542969 161.941406 195.296875 161.117188 195.160156 " fill-opacity="1" fill-rule="nonzero"/><path fill="rgb(38.42926%, 36.468506%, 34.509277%)" d="M 147.839844 192.28125 C 147.296875 191.007812 147.167969 189.367188 146.878906 188.152344 C 146.632812 187.121094 146.25 185.316406 144.964844 185.125 C 144.148438 185.003906 143.796875 186.25 144.621094 186.375 C 145.578125 186.515625 145.855469 189.472656 146.019531 190.222656 C 146.316406 191.589844 146.59375 193.109375 147.515625 194.210938 C 147.90625 194.671875 148.59375 194.265625 148.621094 193.75 C 148.636719 193.457031 148.652344 193.164062 148.667969 192.871094 C 148.699219 192.359375 148.222656 192.164062 147.839844 192.28125 " fill-opacity="1" fill-rule="nonzero"/><path fill="rgb(38.42926%, 36.468506%, 34.509277%)" d="M 150.839844 195.191406 C 150.382812 192.796875 150.582031 190.300781 149.550781 188.011719 C 149.207031 187.25 148.09375 187.910156 148.433594 188.664062 C 149.589844 191.226562 149.0625 194.175781 149.914062 196.828125 C 150.089844 197.378906 151.066406 197.511719 151.160156 196.828125 C 151.210938 196.460938 151.242188 196.160156 151.253906 195.785156 C 151.261719 195.460938 151.074219 195.265625 150.839844 195.191406 " fill-opacity="1" fill-rule="nonzero"/><path fill="rgb(38.42926%, 36.468506%, 34.509277%)" d="M 152.199219 196.515625 C 152.222656 194.695312 152.402344 192.882812 152.847656 191.101562 C 153.050781 190.289062 151.800781 189.949219 151.601562 190.753906 C 150.851562 193.757812 150.800781 196.851562 151.003906 199.921875 C 151.054688 200.683594 152.003906 200.761719 152.273438 200.09375 C 152.652344 199.160156 152.964844 198.238281 153.171875 197.25 C 153.296875 196.632812 152.609375 196.285156 152.199219 196.515625 " fill-opacity="1" fill-rule="nonzero"/><path fill="rgb(38.42926%, 36.468506%, 34.509277%)" d="M 155.644531 196.296875 C 155.597656 196.34375 155.550781 196.386719 155.503906 196.429688 C 155.382812 195.472656 155.457031 194.476562 155.457031 193.519531 C 155.453125 192.683594 154.160156 192.683594 154.164062 193.519531 C 154.167969 194.964844 154.015625 196.492188 154.503906 197.882812 C 154.695312 198.4375 155.351562 198.496094 155.683594 198.035156 C 155.921875 197.710938 156.269531 197.488281 156.558594 197.214844 C 157.160156 196.632812 156.242188 195.71875 155.644531 196.296875 " fill-opacity="1" fill-rule="nonzero"/><path fill="rgb(38.42926%, 36.468506%, 34.509277%)" d="M 159.804688 197.101562 C 159.46875 197.160156 158.980469 197.191406 158.691406 196.964844 C 158.328125 196.683594 158.332031 196.203125 158.363281 195.785156 C 158.425781 194.949219 157.132812 194.957031 157.070312 195.785156 C 157.011719 196.550781 157.183594 197.355469 157.777344 197.882812 C 158.433594 198.464844 159.328125 198.488281 160.152344 198.351562 C 160.972656 198.214844 160.621094 196.96875 159.804688 197.101562 " fill-opacity="1" fill-rule="nonzero"/><path fill="rgb(38.42926%, 36.468506%, 34.509277%)" d="M 163.855469 198.375 L 163.855469 198.699219 C 163.855469 199.535156 165.148438 199.535156 165.148438 198.699219 L 165.148438 198.375 C 165.148438 197.539062 163.855469 197.539062 163.855469 198.375 " fill-opacity="1" fill-rule="nonzero"/><path fill="rgb(38.42926%, 36.468506%, 34.509277%)" d="M 31.933594 164.703125 C 29.273438 159.71875 20.398438 157.277344 15.21875 156.9375 C 14.386719 156.882812 14.394531 158.175781 15.21875 158.230469 C 19.976562 158.546875 28.394531 160.820312 30.816406 165.359375 C 31.210938 166.09375 32.328125 165.4375 31.933594 164.703125 " fill-opacity="1" fill-rule="nonzero"/><path fill="rgb(38.42926%, 36.468506%, 34.509277%)" d="M 20.394531 158.320312 C 18.648438 157.160156 17.925781 154.785156 17.136719 152.941406 C 16.371094 151.152344 15.523438 149.386719 14.0625 148.0625 C 13.445312 147.503906 12.527344 148.414062 13.148438 148.980469 C 16.269531 151.808594 16.167969 157.0625 19.742188 159.4375 C 20.4375 159.902344 21.082031 158.777344 20.394531 158.320312 " fill-opacity="1" fill-rule="nonzero"/><path fill="rgb(38.42926%, 36.468506%, 34.509277%)" d="M 22.976562 157.996094 C 19.441406 155.871094 18.84375 150.792969 16.320312 147.738281 C 15.792969 147.09375 14.882812 148.015625 15.410156 148.652344 C 18.058594 151.867188 18.542969 156.847656 22.328125 159.117188 C 23.042969 159.542969 23.691406 158.425781 22.976562 157.996094 " fill-opacity="1" fill-rule="nonzero"/><path fill="rgb(38.42926%, 36.468506%, 34.509277%)" d="M 25.558594 159.289062 C 25.855469 159.089844 25.71875 159.226562 25.378906 158.832031 C 25.074219 158.476562 24.828125 158.054688 24.574219 157.664062 C 24.09375 156.921875 23.660156 156.152344 23.21875 155.390625 C 21.988281 153.273438 20.5625 151.28125 19.332031 149.164062 C 18.914062 148.441406 17.796875 149.09375 18.214844 149.816406 C 19.8125 152.566406 21.570312 155.222656 23.222656 157.9375 C 23.683594 158.695312 24.960938 161.238281 26.207031 160.410156 C 26.902344 159.949219 26.253906 158.832031 25.558594 159.289062 " fill-opacity="1" fill-rule="nonzero"/><path fill="rgb(38.42926%, 36.468506%, 34.509277%)" d="M 28.960938 160.199219 C 27.21875 159.601562 26.417969 157.246094 25.742188 155.710938 C 25.070312 154.1875 24.472656 152.621094 23.433594 151.300781 C 22.914062 150.644531 22.007812 151.566406 22.515625 152.214844 C 24.664062 154.9375 24.925781 160.1875 28.621094 161.445312 C 29.410156 161.714844 29.746094 160.464844 28.960938 160.199219 " fill-opacity="1" fill-rule="nonzero"/><path fill="rgb(38.42926%, 36.468506%, 34.509277%)" d="M 32.644531 162.59375 C 31.679688 159.902344 28.953125 157.960938 28.792969 154.996094 C 28.746094 154.164062 27.453125 154.160156 27.5 154.996094 C 27.675781 158.238281 30.363281 160.054688 31.398438 162.9375 C 31.679688 163.714844 32.929688 163.378906 32.644531 162.59375 " fill-opacity="1" fill-rule="nonzero"/><path fill="rgb(38.42926%, 36.468506%, 34.509277%)" d="M 15.953125 147.222656 C 16.15625 146.863281 16.269531 147.179688 15.761719 146.761719 C 15.386719 146.453125 15.058594 146.085938 14.730469 145.734375 C 13.796875 144.71875 12.953125 143.613281 12.125 142.511719 C 10.816406 140.773438 9.566406 138.992188 8.347656 137.1875 C 7.882812 136.5 6.761719 137.148438 7.230469 137.839844 C 8.941406 140.371094 10.710938 142.867188 12.625 145.25 C 13.179688 145.9375 15.976562 149.8125 17.070312 147.875 C 17.484375 147.148438 16.363281 146.496094 15.953125 147.222656 " fill-opacity="1" fill-rule="nonzero"/><path fill="rgb(38.42926%, 36.468506%, 34.509277%)" d="M 8.921875 145.65625 C 8.765625 143.613281 8.730469 141.535156 9.382812 139.628906 C 9.652344 138.835938 8.402344 138.5 8.136719 139.285156 C 7.148438 142.167969 7.628906 145.386719 7.859375 148.355469 C 7.917969 149.085938 8.886719 149.238281 9.128906 148.53125 C 9.390625 147.761719 9.398438 147.058594 9.402344 146.253906 C 9.40625 145.90625 9.183594 145.710938 8.921875 145.65625 " fill-opacity="1" fill-rule="nonzero"/><path fill="rgb(38.42926%, 36.468506%, 34.509277%)" d="M 16.511719 146.902344 C 15.363281 147.011719 14.316406 146.109375 13.90625 145.0625 C 13.660156 144.429688 12.585938 144.453125 12.636719 145.234375 C 12.664062 145.734375 12.601562 146.195312 12.507812 146.65625 C 12.191406 146.21875 12.039062 145.660156 11.976562 145.070312 C 12.058594 144.371094 12.058594 143.671875 11.988281 143.015625 C 11.988281 143 11.988281 142.984375 11.988281 142.96875 C 11.976562 142.914062 11.972656 142.855469 11.964844 142.796875 C 11.863281 142.039062 10.738281 142.28125 10.695312 142.96875 C 10.660156 143.601562 10.640625 144.308594 10.703125 145.011719 C 10.632812 145.523438 10.515625 146.035156 10.355469 146.519531 C 9.828125 144.90625 9.90625 143.011719 10.050781 141.398438 C 10.125 140.566406 8.832031 140.574219 8.757812 141.398438 C 8.554688 143.671875 8.535156 146.421875 9.808594 148.417969 C 10.066406 148.824219 10.667969 148.847656 10.921875 148.417969 C 11.113281 148.09375 11.273438 147.738281 11.417969 147.371094 C 11.699219 147.792969 12.070312 148.148438 12.578125 148.390625 C 12.933594 148.5625 13.425781 148.441406 13.527344 148.003906 C 13.597656 147.6875 13.671875 147.375 13.738281 147.070312 C 14.472656 147.8125 15.445312 148.296875 16.511719 148.195312 C 17.335938 148.117188 17.339844 146.820312 16.511719 146.902344 " fill-opacity="1" fill-rule="nonzero"/><path fill="rgb(38.42926%, 36.468506%, 34.509277%)" d="M 18.777344 147.960938 C 15.796875 146.683594 13.320312 144.644531 10.699219 142.78125 C 10.019531 142.296875 9.371094 143.421875 10.046875 143.898438 C 12.671875 145.765625 15.144531 147.800781 18.125 149.078125 C 18.882812 149.402344 19.542969 148.289062 18.777344 147.960938 " fill-opacity="1" fill-rule="nonzero"/><path fill="rgb(38.42926%, 36.468506%, 34.509277%)" d="M 30.105469 176.835938 C 28.675781 186.738281 18.078125 189.5 9.699219 191.066406 C 9.523438 190.960938 9.308594 190.917969 9.078125 191.019531 C 8.8125 191.132812 8.546875 191.25 8.277344 191.363281 C 7.5625 191.675781 8.109375 192.667969 8.777344 192.546875 C 17.730469 190.933594 29.777344 188.089844 31.351562 177.179688 C 31.472656 176.363281 30.226562 176.011719 30.105469 176.835938 " fill-opacity="1" fill-rule="nonzero"/><path fill="rgb(38.42926%, 36.468506%, 34.509277%)" d="M 13.738281 189.824219 C 12.65625 188.964844 11.550781 188.140625 10.507812 187.234375 C 9.882812 186.691406 8.960938 187.601562 9.59375 188.148438 C 10.636719 189.054688 11.742188 189.882812 12.824219 190.738281 C 13.46875 191.25 14.390625 190.34375 13.738281 189.824219 " fill-opacity="1" fill-rule="nonzero"/><path fill="rgb(38.42926%, 36.468506%, 34.509277%)" d="M 17.007812 189.980469 C 14.71875 189.082031 12.675781 187.183594 11.152344 185.292969 C 10.628906 184.640625 9.722656 185.5625 10.238281 186.207031 C 11.910156 188.285156 14.164062 190.25 16.664062 191.230469 C 17.441406 191.535156 17.773438 190.28125 17.007812 189.980469 " fill-opacity="1" fill-rule="nonzero"/><path fill="rgb(38.42926%, 36.468506%, 34.509277%)" d="M 19.421875 188.75 C 17.90625 188.074219 16.667969 186.933594 15.070312 186.417969 C 14.273438 186.164062 13.933594 187.414062 14.726562 187.667969 C 16.207031 188.144531 17.363281 189.242188 18.769531 189.867188 C 19.527344 190.207031 20.183594 189.089844 19.421875 188.75 " fill-opacity="1" fill-rule="nonzero"/><path fill="rgb(38.42926%, 36.468506%, 34.509277%)" d="M 21.171875 188.207031 C 20.535156 187.570312 19.839844 186.996094 19.101562 186.484375 C 18.414062 186.011719 17.765625 187.132812 18.449219 187.605469 C 19.097656 188.050781 19.695312 188.5625 20.257812 189.121094 C 20.847656 189.710938 21.761719 188.792969 21.171875 188.207031 " fill-opacity="1" fill-rule="nonzero"/><path fill="rgb(38.42926%, 36.468506%, 34.509277%)" d="M 22.65625 186.808594 C 22.023438 186.34375 21.421875 185.828125 20.847656 185.292969 C 20.234375 184.722656 19.320312 185.636719 19.933594 186.207031 C 20.589844 186.820312 21.28125 187.394531 22 187.925781 C 22.289062 188.136719 22.722656 187.972656 22.886719 187.695312 C 23.078125 187.367188 22.9375 187.015625 22.65625 186.808594 " fill-opacity="1" fill-rule="nonzero"/><path fill="rgb(38.42926%, 36.468506%, 34.509277%)" d="M 23.855469 185.746094 C 23.40625 184.96875 22.65625 184.128906 21.683594 184.132812 C 20.851562 184.132812 20.851562 185.429688 21.683594 185.425781 C 21.789062 185.425781 21.972656 185.5 22.144531 185.644531 C 22.390625 185.855469 22.578125 186.117188 22.742188 186.398438 C 23.15625 187.121094 24.273438 186.46875 23.855469 185.746094 " fill-opacity="1" fill-rule="nonzero"/><path fill="rgb(38.42926%, 36.468506%, 34.509277%)" d="M 26.441406 184.777344 C 25.808594 183.839844 24.976562 183.078125 23.945312 182.601562 C 23.195312 182.253906 22.539062 183.367188 23.292969 183.71875 C 24.125 184.101562 24.8125 184.671875 25.324219 185.429688 C 25.789062 186.117188 26.910156 185.46875 26.441406 184.777344 " fill-opacity="1" fill-rule="nonzero"/><path fill="rgb(38.42926%, 36.468506%, 34.509277%)" d="M 28.792969 182.601562 C 28.15625 182.152344 27.511719 181.722656 26.855469 181.304688 C 26.148438 180.859375 25.5 181.980469 26.203125 182.421875 C 26.859375 182.839844 27.507812 183.269531 28.140625 183.71875 C 28.824219 184.203125 29.46875 183.078125 28.792969 182.601562 " fill-opacity="1" fill-rule="nonzero"/><path fill="rgb(38.42926%, 36.468506%, 34.509277%)" d="M 29.761719 177.980469 L 29.4375 177.980469 C 28.605469 177.980469 28.605469 179.273438 29.4375 179.273438 L 29.761719 179.273438 C 30.59375 179.273438 30.59375 177.980469 29.761719 177.980469 " fill-opacity="1" fill-rule="nonzero"/><path fill="rgb(38.42926%, 36.468506%, 34.509277%)" d="M 79.820312 205.648438 C 78.289062 200.417969 73.945312 196.867188 71.355469 192.222656 C 70.949219 191.492188 69.832031 192.144531 70.238281 192.875 C 72.765625 197.410156 77.082031 200.898438 78.574219 205.992188 C 78.808594 206.792969 80.058594 206.453125 79.820312 205.648438 " fill-opacity="1" fill-rule="nonzero"/><path fill="rgb(38.42926%, 36.468506%, 34.509277%)" d="M 84.992188 205 C 83.53125 201.171875 82.027344 197.183594 79.332031 194.03125 C 78.789062 193.398438 77.878906 194.316406 78.417969 194.949219 C 80.957031 197.917969 82.367188 201.738281 83.746094 205.34375 C 84.039062 206.117188 85.289062 205.785156 84.992188 205 " fill-opacity="1" fill-rule="nonzero"/><path fill="rgb(38.42926%, 36.468506%, 34.509277%)" d="M 89.839844 204.03125 C 88.917969 201.152344 87.285156 198.570312 85.574219 196.105469 C 85.101562 195.425781 83.976562 196.070312 84.457031 196.761719 C 86.101562 199.125 87.710938 201.609375 88.589844 204.375 C 88.84375 205.164062 90.089844 204.828125 89.839844 204.03125 " fill-opacity="1" fill-rule="nonzero"/><path fill="rgb(38.42926%, 36.468506%, 34.509277%)" d="M 109.898438 145.695312 C 106.878906 143.554688 104.042969 141.167969 101.628906 138.351562 C 101.082031 137.714844 100.171875 138.636719 100.714844 139.265625 C 103.199219 142.167969 106.140625 144.609375 109.246094 146.8125 C 109.929688 147.296875 110.570312 146.171875 109.898438 145.695312 " fill-opacity="1" fill-rule="nonzero"/><path fill="rgb(38.42926%, 36.468506%, 34.509277%)" d="M 112.160156 139.222656 C 109.910156 137.570312 107.78125 135.65625 106.25 133.300781 C 105.800781 132.605469 104.679688 133.253906 105.136719 133.957031 C 106.792969 136.507812 109.070312 138.550781 111.507812 140.339844 C 112.183594 140.832031 112.824219 139.707031 112.160156 139.222656 " fill-opacity="1" fill-rule="nonzero"/><path fill="rgb(38.42926%, 36.468506%, 34.509277%)" d="M 112.160156 130.480469 C 110.703125 129.445312 109.332031 128.308594 108.089844 127.019531 C 107.511719 126.417969 106.597656 127.332031 107.175781 127.933594 C 108.496094 129.300781 109.960938 130.5 111.507812 131.597656 C 112.1875 132.082031 112.832031 130.960938 112.160156 130.480469 " fill-opacity="1" fill-rule="nonzero"/><path fill="rgb(38.42926%, 36.468506%, 34.509277%)" d="M 39.78125 184.867188 C 35.558594 182.726562 32.765625 178.761719 29.996094 175.0625 C 29.503906 174.402344 28.378906 175.046875 28.878906 175.714844 C 31.78125 179.589844 34.703125 183.742188 39.128906 185.984375 C 39.871094 186.359375 40.523438 185.242188 39.78125 184.867188 " fill-opacity="1" fill-rule="nonzero"/><path fill="rgb(38.42926%, 36.468506%, 34.509277%)" d="M 39.265625 178.816406 C 36.953125 176.925781 34.691406 174.878906 32.902344 172.472656 C 32.410156 171.8125 31.289062 172.457031 31.789062 173.125 C 33.648438 175.628906 35.945312 177.765625 38.351562 179.730469 C 38.992188 180.253906 39.910156 179.34375 39.265625 178.816406 " fill-opacity="1" fill-rule="nonzero"/><path fill="rgb(38.42926%, 36.468506%, 34.509277%)" d="M 38.941406 170.726562 L 36.03125 167.808594 C 35.445312 167.21875 34.53125 168.132812 35.117188 168.726562 L 38.027344 171.636719 C 38.617188 172.230469 39.53125 171.316406 38.941406 170.726562 " fill-opacity="1" fill-rule="nonzero"/><path fill="rgb(38.42926%, 36.468506%, 34.509277%)" d="M 76.378906 74.058594 C 74.722656 76.808594 72.527344 79.199219 71.207031 82.152344 C 70.871094 82.910156 71.984375 83.566406 72.324219 82.804688 C 73.644531 79.855469 75.839844 77.464844 77.492188 74.714844 C 77.925781 73.996094 76.808594 73.34375 76.378906 74.058594 " fill-opacity="1" fill-rule="nonzero"/><path fill="rgb(38.42926%, 36.468506%, 34.509277%)" d="M 84.457031 72.117188 C 82.445312 76.261719 80.414062 80.957031 76.800781 83.964844 C 76.160156 84.496094 77.082031 85.410156 77.714844 84.878906 C 81.417969 81.796875 83.515625 77.015625 85.574219 72.769531 C 85.9375 72.023438 84.820312 71.367188 84.457031 72.117188 " fill-opacity="1" fill-rule="nonzero"/><path fill="rgb(38.42926%, 36.468506%, 34.509277%)" d="M 88.4375 75.222656 C 86.296875 77.214844 84.882812 79.820312 83.164062 82.152344 C 82.667969 82.824219 83.789062 83.46875 84.28125 82.804688 C 85.933594 80.5625 87.292969 78.054688 89.347656 76.140625 C 89.960938 75.570312 89.046875 74.65625 88.4375 75.222656 " fill-opacity="1" fill-rule="nonzero"/><path fill="rgb(38.42926%, 36.468506%, 34.509277%)" d="M 92.3125 74.898438 C 91.0625 76.289062 90.421875 78.117188 89.082031 79.433594 C 88.484375 80.015625 89.398438 80.929688 89.996094 80.347656 C 91.347656 79.023438 91.976562 77.203125 93.226562 75.816406 C 93.78125 75.195312 92.871094 74.277344 92.3125 74.898438 " fill-opacity="1" fill-rule="nonzero"/><path fill="rgb(38.42926%, 36.468506%, 34.509277%)" d="M 54.292969 69.679688 C 54.148438 68.859375 52.902344 69.210938 53.050781 70.027344 C 53.570312 72.949219 50.636719 75.75 49.558594 78.265625 C 49.234375 79.023438 50.347656 79.6875 50.675781 78.917969 C 51.945312 75.953125 54.914062 73.15625 54.292969 69.679688 " fill-opacity="1" fill-rule="nonzero"/><path fill="rgb(38.42926%, 36.468506%, 34.509277%)" d="M 105.828125 116.984375 C 103.605469 114.519531 100.65625 112.9375 97.613281 111.710938 C 93.9375 110.230469 90.054688 111.023438 86.308594 111.78125 C 82.214844 112.609375 78.921875 113.082031 75.910156 116.164062 C 72.734375 119.414062 68.960938 121.96875 65.816406 125.238281 C 65.238281 125.839844 66.152344 126.757812 66.730469 126.15625 C 68.910156 123.886719 71.4375 122.035156 73.847656 120.03125 C 75.199219 118.90625 76.34375 117.570312 77.570312 116.316406 C 79.277344 114.570312 81.429688 114.027344 83.71875 113.589844 C 87.617188 112.839844 91.695312 111.621094 95.667969 112.4375 C 99 113.125 102.65625 115.398438 104.914062 117.898438 C 105.472656 118.519531 106.386719 117.601562 105.828125 116.984375 " fill-opacity="1" fill-rule="nonzero"/><path fill="rgb(38.42926%, 36.468506%, 34.509277%)" d="M 69.253906 122.457031 C 68.546875 121.300781 67.847656 120.144531 67.316406 118.894531 C 66.988281 118.128906 65.878906 118.789062 66.199219 119.550781 C 66.730469 120.796875 67.433594 121.957031 68.136719 123.109375 C 68.574219 123.820312 69.691406 123.171875 69.253906 122.457031 " fill-opacity="1" fill-rule="nonzero"/><path fill="rgb(38.42926%, 36.468506%, 34.509277%)" d="M 70.980469 121.210938 C 70.917969 121.179688 70.855469 121.140625 70.800781 121.089844 C 70.730469 121.039062 70.667969 121.011719 70.601562 120.992188 C 69.414062 119.582031 68.695312 117.816406 67.964844 116.144531 C 67.628906 115.382812 66.515625 116.042969 66.84375 116.796875 C 67.710938 118.773438 68.574219 120.824219 70.113281 122.378906 C 70.402344 122.671875 70.925781 122.609375 71.128906 122.246094 C 71.15625 122.199219 71.183594 122.148438 71.214844 122.09375 C 71.382812 121.792969 71.292969 121.382812 70.980469 121.210938 " fill-opacity="1" fill-rule="nonzero"/><path fill="rgb(38.42926%, 36.468506%, 34.509277%)" d="M 72.898438 119.710938 C 72.171875 119.640625 71.230469 117.773438 70.898438 117.246094 C 70.28125 116.261719 69.609375 115.167969 69.320312 114.03125 C 69.113281 113.222656 67.867188 113.566406 68.074219 114.375 C 68.4375 115.804688 69.300781 117.160156 70.089844 118.378906 C 70.714844 119.34375 71.625 120.886719 72.898438 121 C 73.726562 121.082031 73.71875 119.785156 72.898438 119.710938 " fill-opacity="1" fill-rule="nonzero"/><path fill="rgb(38.42926%, 36.468506%, 34.509277%)" d="M 75.9375 117.46875 C 74.15625 115.808594 72.644531 113.835938 71.355469 111.773438 C 70.914062 111.066406 69.796875 111.714844 70.238281 112.425781 C 71.582031 114.578125 73.167969 116.65625 75.023438 118.382812 C 75.632812 118.953125 76.550781 118.039062 75.9375 117.46875 " fill-opacity="1" fill-rule="nonzero"/><path fill="rgb(38.42926%, 36.468506%, 34.509277%)" d="M 77.394531 114.394531 C 76.53125 113.445312 76.136719 112.183594 75.445312 111.121094 C 74.785156 110.101562 73.695312 109.472656 73.132812 108.375 C 72.753906 107.628906 71.636719 108.285156 72.015625 109.027344 C 72.632812 110.230469 73.800781 110.953125 74.527344 112.078125 C 75.222656 113.148438 75.609375 114.347656 76.480469 115.308594 C 77.042969 115.929688 77.953125 115.011719 77.394531 114.394531 " fill-opacity="1" fill-rule="nonzero"/><path fill="rgb(38.42926%, 36.468506%, 34.509277%)" d="M 79.496094 113.746094 C 77.910156 111.941406 75.71875 109.769531 75.480469 107.246094 C 75.40625 106.421875 74.113281 106.414062 74.1875 107.246094 C 74.460938 110.175781 76.730469 112.550781 78.582031 114.664062 C 79.128906 115.292969 80.042969 114.371094 79.496094 113.746094 " fill-opacity="1" fill-rule="nonzero"/><path fill="rgb(38.42926%, 36.468506%, 34.509277%)" d="M 81.210938 112.90625 C 79.859375 110.652344 77.898438 108.707031 77.234375 106.101562 C 77.03125 105.292969 75.785156 105.636719 75.992188 106.445312 C 76.683594 109.179688 78.679688 111.203125 80.09375 113.5625 C 80.523438 114.273438 81.640625 113.625 81.210938 112.90625 " fill-opacity="1" fill-rule="nonzero"/><path fill="rgb(38.42926%, 36.468506%, 34.509277%)" d="M 84.28125 112.90625 C 83.410156 111.71875 82.714844 110.433594 81.960938 109.171875 C 81.070312 107.679688 79.902344 106.433594 79.660156 104.644531 C 79.546875 103.820312 78.300781 104.171875 78.414062 104.988281 C 78.617188 106.5 79.398438 107.667969 80.25 108.902344 C 81.296875 110.410156 82.078125 112.078125 83.164062 113.5625 C 83.652344 114.226562 84.773438 113.582031 84.28125 112.90625 " fill-opacity="1" fill-rule="nonzero"/><path fill="rgb(38.42926%, 36.468506%, 34.509277%)" d="M 87.570312 111.480469 C 85.628906 109.199219 84.175781 106.4375 83.050781 103.671875 C 82.742188 102.910156 81.492188 103.242188 81.804688 104.015625 C 83.019531 107.007812 84.558594 109.929688 86.65625 112.394531 C 87.199219 113.035156 88.109375 112.113281 87.570312 111.480469 " fill-opacity="1" fill-rule="nonzero"/><path fill="rgb(38.42926%, 36.468506%, 34.509277%)" d="M 91.125 110.996094 C 89.265625 108.929688 87.636719 106.269531 87.089844 103.511719 C 86.929688 102.691406 85.683594 103.039062 85.847656 103.855469 C 86.433594 106.832031 88.203125 109.683594 90.210938 111.910156 C 90.773438 112.53125 91.683594 111.613281 91.125 110.996094 " fill-opacity="1" fill-rule="nonzero"/><path fill="rgb(38.42926%, 36.468506%, 34.509277%)" d="M 94.355469 111.15625 C 93.433594 110.386719 93.105469 109.160156 92.640625 108.097656 C 92.011719 106.671875 91.074219 105.414062 90.417969 104.003906 C 90.066406 103.246094 88.953125 103.90625 89.304688 104.65625 C 89.988281 106.132812 90.972656 107.4375 91.601562 108.941406 C 92.070312 110.0625 92.484375 111.273438 93.441406 112.074219 C 94.078125 112.601562 95 111.695312 94.355469 111.15625 " fill-opacity="1" fill-rule="nonzero"/><path fill="rgb(38.42926%, 36.468506%, 34.509277%)" d="M 97.78125 111.863281 C 96.667969 111.296875 96.507812 109.765625 96.03125 108.726562 C 95.453125 107.46875 94.527344 106.414062 93.972656 105.136719 C 93.644531 104.371094 92.527344 105.035156 92.859375 105.789062 C 93.527344 107.332031 94.632812 108.582031 95.207031 110.175781 C 95.601562 111.265625 96.039062 112.425781 97.128906 112.984375 C 97.871094 113.359375 98.523438 112.242188 97.78125 111.863281 " fill-opacity="1" fill-rule="nonzero"/><path fill="rgb(38.42926%, 36.468506%, 34.509277%)" d="M 102.210938 113.714844 C 100.816406 111.421875 98.925781 109.234375 98.238281 106.585938 C 98.03125 105.777344 96.785156 106.121094 96.992188 106.929688 C 97.710938 109.699219 99.636719 111.96875 101.097656 114.367188 C 101.53125 115.082031 102.648438 114.433594 102.210938 113.714844 " fill-opacity="1" fill-rule="nonzero"/><path fill="rgb(38.42926%, 36.468506%, 34.509277%)" d="M 198.328125 72.710938 C 186.707031 70.199219 173.996094 74.070312 165.359375 82.160156 C 164.75 82.730469 165.667969 83.640625 166.273438 83.074219 C 174.558594 75.316406 186.828125 71.546875 197.984375 73.960938 C 198.796875 74.132812 199.140625 72.886719 198.328125 72.710938 " fill-opacity="1" fill-rule="nonzero"/><path fill="rgb(38.42926%, 36.468506%, 34.509277%)" d="M 170.46875 78.347656 C 167.746094 75.910156 165.566406 73.042969 163.949219 69.757812 C 163.578125 69.011719 162.464844 69.667969 162.832031 70.414062 C 164.496094 73.789062 166.753906 76.757812 169.554688 79.261719 C 170.175781 79.816406 171.09375 78.90625 170.46875 78.347656 " fill-opacity="1" fill-rule="nonzero"/><path fill="rgb(38.42926%, 36.468506%, 34.509277%)" d="M 172.878906 78.054688 C 170.5 74.699219 168.121094 71.34375 165.746094 67.988281 C 165.269531 67.3125 164.144531 67.960938 164.628906 68.640625 C 167.007812 71.996094 169.382812 75.351562 171.761719 78.707031 C 172.238281 79.378906 173.363281 78.734375 172.878906 78.054688 " fill-opacity="1" fill-rule="nonzero"/><path fill="rgb(38.42926%, 36.468506%, 34.509277%)" d="M 174.902344 75.832031 L 168.003906 66.1875 C 167.523438 65.515625 166.398438 66.160156 166.886719 66.839844 C 169.1875 70.054688 171.488281 73.273438 173.785156 76.488281 C 174.269531 77.160156 175.386719 76.511719 174.902344 75.832031 " fill-opacity="1" fill-rule="nonzero"/><path fill="rgb(38.42926%, 36.468506%, 34.509277%)" d="M 177.230469 74.984375 C 175.121094 71.222656 172.71875 67.664062 170.027344 64.296875 C 169.507812 63.644531 168.597656 64.566406 169.113281 65.210938 C 171.734375 68.496094 174.058594 71.972656 176.113281 75.636719 C 176.523438 76.367188 177.636719 75.710938 177.230469 74.984375 " fill-opacity="1" fill-rule="nonzero"/><path fill="rgb(38.42926%, 36.468506%, 34.509277%)" d="M 180.050781 72.605469 C 178.054688 69.417969 175.8125 66.417969 173.328125 63.597656 C 172.773438 62.972656 171.863281 63.890625 172.414062 64.515625 C 174.824219 67.253906 176.996094 70.164062 178.933594 73.257812 C 179.375 73.960938 180.496094 73.3125 180.050781 72.605469 " fill-opacity="1" fill-rule="nonzero"/><path fill="rgb(38.42926%, 36.468506%, 34.509277%)" d="M 183.421875 72.726562 C 181.050781 69.351562 178.617188 66.015625 176.121094 62.726562 C 175.625 62.070312 174.503906 62.714844 175.007812 63.378906 C 177.5 66.671875 179.933594 70.003906 182.304688 73.378906 C 182.785156 74.058594 183.902344 73.410156 183.421875 72.726562 " fill-opacity="1" fill-rule="nonzero"/><path fill="rgb(38.42926%, 36.468506%, 34.509277%)" d="M 188.835938 72.566406 C 188.023438 70.59375 187.050781 68.695312 185.722656 67.011719 C 183.894531 64.699219 181.539062 62.710938 180.765625 59.761719 C 180.554688 58.953125 179.308594 59.296875 179.519531 60.101562 C 180.011719 61.984375 181.019531 63.453125 182.25 64.929688 C 184.367188 67.46875 186.308594 69.8125 187.589844 72.910156 C 187.902344 73.667969 189.15625 73.335938 188.835938 72.566406 " fill-opacity="1" fill-rule="nonzero"/><path fill="rgb(38.42926%, 36.468506%, 34.509277%)" d="M 192.289062 72.804688 C 191.398438 70.996094 190.414062 69.261719 189.316406 67.570312 C 188.015625 65.558594 185.613281 63.496094 185.40625 60.996094 C 185.335938 60.171875 184.042969 60.164062 184.113281 60.996094 C 184.285156 63.089844 185.472656 64.496094 186.714844 66.113281 C 188.460938 68.394531 189.90625 70.886719 191.171875 73.460938 C 191.539062 74.210938 192.65625 73.554688 192.289062 72.804688 " fill-opacity="1" fill-rule="nonzero"/><path fill="rgb(38.42926%, 36.468506%, 34.509277%)" d="M 195.570312 71.734375 C 194.238281 67.269531 190.625 64.144531 188.65625 60.011719 C 188.296875 59.257812 187.183594 59.914062 187.539062 60.664062 C 189.457031 64.6875 193.03125 67.742188 194.324219 72.074219 C 194.5625 72.875 195.8125 72.535156 195.570312 71.734375 " fill-opacity="1" fill-rule="nonzero"/><path fill="rgb(38.42926%, 36.468506%, 34.509277%)" d="M 198.304688 72.71875 C 196.316406 69.113281 193.785156 65.453125 192.582031 61.492188 C 192.34375 60.695312 191.09375 61.03125 191.335938 61.835938 C 192.578125 65.921875 195.140625 69.65625 197.1875 73.375 C 197.59375 74.101562 198.707031 73.449219 198.304688 72.71875 " fill-opacity="1" fill-rule="nonzero"/><path fill="rgb(38.42926%, 36.468506%, 34.509277%)" d="M 187.949219 72.941406 C 185.242188 69.09375 182.53125 65.246094 179.820312 61.398438 C 179.34375 60.722656 178.222656 61.371094 178.703125 62.054688 C 181.414062 65.898438 184.125 69.746094 186.835938 73.59375 C 187.3125 74.269531 188.433594 73.625 187.949219 72.941406 " fill-opacity="1" fill-rule="nonzero"/><path fill="rgb(38.42926%, 36.468506%, 34.509277%)" d="M 106.40625 124.886719 C 106.097656 132.125 100.453125 136.925781 94.101562 139.296875 C 88.429688 141.414062 80.789062 142.671875 74.945312 140.800781 C 74.148438 140.546875 73.8125 141.796875 74.601562 142.050781 C 81.21875 144.167969 90.460938 142.589844 96.648438 139.667969 C 102.632812 136.839844 107.40625 131.777344 107.699219 124.886719 C 107.734375 124.050781 106.441406 124.050781 106.40625 124.886719 " fill-opacity="1" fill-rule="nonzero"/><path fill="rgb(38.42926%, 36.468506%, 34.509277%)" d="M 192.289062 86.078125 C 189.113281 85.761719 186.023438 86.144531 183.019531 87.222656 C 182.242188 87.503906 182.578125 88.753906 183.363281 88.472656 C 186.261719 87.429688 189.222656 87.066406 192.289062 87.375 C 193.117188 87.457031 193.105469 86.160156 192.289062 86.078125 " fill-opacity="1" fill-rule="nonzero"/><path fill="rgb(38.42926%, 36.468506%, 34.509277%)" d="M 97.46875 48.472656 C 96.570312 48.238281 95.667969 48.003906 94.769531 47.769531 C 94.101562 47.59375 93.742188 48.367188 94.140625 48.851562 C 94.132812 48.988281 94.128906 49.125 94.121094 49.265625 C 93.753906 49.722656 93.328125 49.785156 92.84375 49.460938 C 92.359375 49.230469 91.972656 48.757812 91.613281 48.375 C 91.042969 47.765625 90.132812 48.683594 90.699219 49.289062 C 91.527344 50.175781 93.066406 51.574219 94.382812 50.730469 C 94.957031 50.367188 95.34375 49.84375 95.4375 49.28125 C 96 49.429688 96.5625 49.574219 97.125 49.722656 C 97.933594 49.933594 98.277344 48.683594 97.46875 48.472656 " fill-opacity="1" fill-rule="nonzero"/><path fill="rgb(38.42926%, 36.468506%, 34.509277%)" d="M 101.503906 48.144531 C 100.476562 47.019531 99.449219 45.894531 98.421875 44.769531 C 97.855469 44.152344 96.945312 45.070312 97.507812 45.6875 C 98.535156 46.8125 99.5625 47.933594 100.589844 49.058594 C 101.15625 49.675781 102.066406 48.757812 101.503906 48.144531 " fill-opacity="1" fill-rule="nonzero"/><path fill="rgb(38.42926%, 36.468506%, 34.509277%)" d="M 103.269531 44.671875 C 102.507812 44.484375 101.984375 43.894531 101.84375 43.128906 C 101.6875 42.308594 100.441406 42.65625 100.597656 43.472656 C 100.820312 44.660156 101.761719 45.628906 102.925781 45.921875 C 103.734375 46.125 104.078125 44.875 103.269531 44.671875 " fill-opacity="1" fill-rule="nonzero"/><path fill="rgb(38.42926%, 36.468506%, 34.509277%)" d="M 105.140625 42.441406 C 105.550781 41.714844 104.4375 41.0625 104.023438 41.789062 C 103.949219 41.917969 103.875 42.054688 103.796875 42.1875 C 103.738281 42.230469 103.683594 42.273438 103.625 42.316406 C 103.464844 42.289062 103.304688 42.285156 103.140625 42.300781 C 103.148438 41.992188 103.152344 41.683594 103.160156 41.375 C 103.171875 40.652344 102.054688 40.488281 101.890625 41.207031 L 101.296875 43.789062 C 101.15625 44.382812 101.773438 44.722656 102.199219 44.542969 C 102.269531 44.578125 102.347656 44.601562 102.425781 44.609375 C 102.246094 44.921875 102.070312 45.234375 101.894531 45.546875 C 101.589844 46.085938 102.222656 46.8125 102.777344 46.433594 C 103.792969 45.738281 104.480469 44.796875 104.820312 43.683594 C 104.890625 43.566406 104.921875 43.4375 104.914062 43.300781 C 104.964844 43.089844 105 42.875 105.023438 42.648438 C 105.0625 42.578125 105.101562 42.511719 105.140625 42.441406 " fill-opacity="1" fill-rule="nonzero"/><path fill="rgb(38.42926%, 36.468506%, 34.509277%)" d="M 26.78125 182.195312 C 27.300781 181.050781 27.765625 179.886719 28.167969 178.703125 C 28.152344 178.8125 28.140625 178.925781 28.121094 179.035156 C 27.984375 179.847656 29.113281 180.191406 29.367188 179.378906 C 29.535156 178.84375 29.703125 178.304688 29.871094 177.769531 C 29.9375 177.695312 29.996094 177.609375 30.019531 177.496094 C 30.058594 177.320312 30.085938 177.148438 30.117188 176.976562 C 30.589844 175.464844 31.066406 173.953125 31.539062 172.441406 C 31.085938 176.269531 29.917969 179.933594 26.78125 182.195312 Z M 31.867188 167.058594 C 31.480469 168.296875 31.09375 169.539062 30.707031 170.777344 C 30.699219 170.472656 30.699219 170.164062 30.6875 169.859375 C 30.75 168.210938 30.546875 166.546875 30.074219 164.851562 C 30.042969 164.734375 29.980469 164.648438 29.90625 164.578125 C 29.816406 163.582031 29.707031 162.585938 29.5625 161.589844 C 29.441406 160.765625 28.199219 161.121094 28.316406 161.933594 C 28.550781 163.574219 28.710938 165.210938 28.800781 166.84375 C 28.792969 167.679688 28.792969 168.515625 28.789062 169.351562 C 28.394531 174.292969 27.050781 179.019531 24.714844 183.492188 C 24.398438 184.101562 25.019531 184.636719 25.597656 184.378906 C 32.324219 181.382812 33.007812 173.726562 33.136719 167.230469 C 33.152344 166.480469 32.082031 166.375 31.867188 167.058594 " fill-opacity="1" fill-rule="nonzero"/><path fill="rgb(38.42926%, 36.468506%, 34.509277%)" d="M 148.046875 17.777344 C 146.179688 23.339844 144.3125 28.902344 142.449219 34.46875 C 142.179688 35.261719 143.429688 35.597656 143.691406 34.8125 C 145.558594 29.25 147.425781 23.683594 149.292969 18.121094 C 149.558594 17.328125 148.308594 16.992188 148.046875 17.777344 " fill-opacity="1" fill-rule="nonzero"/><path fill="rgb(38.42926%, 36.468506%, 34.509277%)" d="M 153.792969 18.109375 C 152.3125 22.890625 150.589844 27.578125 148.613281 32.171875 C 148.289062 32.933594 149.402344 33.59375 149.730469 32.828125 C 151.75 28.128906 153.527344 23.34375 155.039062 18.457031 C 155.285156 17.65625 154.039062 17.316406 153.792969 18.109375 " fill-opacity="1" fill-rule="nonzero"/><path fill="rgb(38.42926%, 36.468506%, 34.509277%)" d="M 162.609375 20.742188 C 161.144531 27.355469 159.683594 33.96875 158.21875 40.578125 C 158.035156 41.394531 159.28125 41.738281 159.464844 40.921875 C 160.929688 34.3125 162.394531 27.699219 163.859375 21.085938 C 164.039062 20.273438 162.792969 19.929688 162.609375 20.742188 " fill-opacity="1" fill-rule="nonzero"/><path fill="rgb(38.42926%, 36.468506%, 34.509277%)" d="M 172.777344 23.460938 C 172.300781 27.808594 171.441406 32.0625 170.21875 36.257812 C 169.988281 37.058594 171.234375 37.402344 171.46875 36.601562 C 172.722656 32.292969 173.578125 27.921875 174.066406 23.460938 C 174.160156 22.632812 172.867188 22.640625 172.777344 23.460938 " fill-opacity="1" fill-rule="nonzero"/><path fill="rgb(38.42926%, 36.468506%, 34.509277%)" d="M 178.144531 26.800781 C 177.199219 30.378906 176.257812 33.953125 175.316406 37.527344 C 175.101562 38.335938 176.347656 38.679688 176.5625 37.871094 C 177.503906 34.300781 178.445312 30.722656 179.390625 27.148438 C 179.601562 26.335938 178.355469 25.996094 178.144531 26.800781 " fill-opacity="1" fill-rule="nonzero"/><path fill="rgb(38.42926%, 36.468506%, 34.509277%)" d="M 184.847656 30.632812 L 181.207031 51.316406 C 181.0625 52.128906 182.304688 52.480469 182.453125 51.660156 C 183.667969 44.765625 184.878906 37.871094 186.09375 30.976562 C 186.238281 30.15625 184.992188 29.808594 184.847656 30.632812 " fill-opacity="1" fill-rule="nonzero"/><path fill="rgb(38.42926%, 36.468506%, 34.509277%)" d="M 194.699219 34.074219 C 193.34375 39.09375 191.992188 44.113281 190.636719 49.132812 C 190.417969 49.941406 191.667969 50.28125 191.882812 49.476562 C 193.238281 44.457031 194.589844 39.4375 195.945312 34.421875 C 196.164062 33.613281 194.914062 33.269531 194.699219 34.074219 " fill-opacity="1" fill-rule="nonzero"/><path fill="rgb(38.42926%, 36.468506%, 34.509277%)" d="M 198.234375 40.585938 C 197.410156 43.007812 197.082031 45.5 197.242188 48.054688 C 197.296875 48.882812 198.589844 48.890625 198.535156 48.054688 C 198.378906 45.609375 198.691406 43.25 199.484375 40.925781 C 199.753906 40.136719 198.503906 39.796875 198.234375 40.585938 " fill-opacity="1" fill-rule="nonzero"/><path fill="rgb(38.42926%, 36.468506%, 34.509277%)" d="M 216.136719 138.03125 C 213.339844 136.71875 210.539062 135.410156 207.742188 134.097656 C 206.992188 133.746094 206.335938 134.863281 207.089844 135.21875 C 209.886719 136.527344 212.6875 137.839844 215.484375 139.148438 C 216.234375 139.5 216.890625 138.382812 216.136719 138.03125 " fill-opacity="1" fill-rule="nonzero"/><path fill="rgb(38.42926%, 36.468506%, 34.509277%)" d="M 216.503906 133.886719 C 214.402344 133.175781 212.472656 132.164062 210.675781 130.859375 C 210 130.367188 209.355469 131.492188 210.023438 131.976562 C 211.910156 133.34375 213.957031 134.390625 216.160156 135.136719 C 216.953125 135.40625 217.289062 134.15625 216.503906 133.886719 " fill-opacity="1" fill-rule="nonzero"/><path fill="rgb(38.42926%, 36.468506%, 34.509277%)" d="M 187.917969 194.121094 C 184.105469 192.378906 180.378906 190.480469 176.726562 188.421875 C 175.996094 188.011719 175.347656 189.132812 176.074219 189.542969 C 179.722656 191.601562 183.453125 193.5 187.265625 195.242188 C 188.019531 195.582031 188.675781 194.46875 187.917969 194.121094 " fill-opacity="1" fill-rule="nonzero"/><path fill="rgb(38.42926%, 36.468506%, 34.509277%)" d="M 183.96875 195.753906 C 183.671875 195.621094 183.355469 195.664062 183.148438 195.914062 C 182.328125 195.621094 181.09375 194.671875 180.660156 194.417969 C 179.738281 193.878906 178.8125 193.355469 177.871094 192.855469 C 176.1875 191.949219 174.425781 191.242188 172.578125 190.742188 C 171.773438 190.527344 171.429688 191.773438 172.234375 191.992188 C 174.765625 192.671875 177.046875 193.835938 179.316406 195.132812 C 180.550781 195.839844 182.53125 197.726562 184.050781 197.230469 C 184.300781 197.152344 184.558594 196.898438 184.523438 196.605469 C 184.46875 196.164062 184.398438 195.941406 183.96875 195.753906 " fill-opacity="1" fill-rule="nonzero"/><path fill="rgb(38.42926%, 36.468506%, 34.509277%)" d="M 177.15625 196.257812 C 174.949219 195.078125 172.742188 193.894531 170.539062 192.707031 C 169.800781 192.316406 169.148438 193.433594 169.886719 193.828125 C 172.089844 195.011719 174.296875 196.195312 176.5 197.378906 C 177.234375 197.773438 177.890625 196.65625 177.15625 196.257812 " fill-opacity="1" fill-rule="nonzero"/></svg>