<?xml version="1.0" encoding="UTF-8"?><svg xmlns="http://www.w3.org/2000/svg" xmlns:xlink="http://www.w3.org/1999/xlink" contentScriptType="text/ecmascript" width="375" zoomAndPan="magnify" contentStyleType="text/css" viewBox="0 0 375 112.499997" height="112.499997" preserveAspectRatio="xMidYMid meet" version="1.0"><defs><clipPath id="clip-0"><path d="M 130 36 L 374.167969 36 L 374.167969 68 L 130 68 Z M 130 36 " clip-rule="nonzero"/></clipPath></defs><g clip-path="url(#clip-0)"><path fill="rgb(13.729858%, 12.159729%, 12.548828%)" d="M 164.636719 66.742188 L 164.636719 53.269531 C 164.636719 48.183594 161.378906 44.761719 156.140625 44.71875 C 155.394531 44.667969 154.65625 44.71875 153.925781 44.871094 C 153.191406 45.019531 152.492188 45.261719 151.824219 45.597656 C 151.160156 45.9375 150.546875 46.355469 149.992188 46.855469 C 149.441406 47.351562 148.960938 47.917969 148.558594 48.542969 C 148.191406 47.933594 147.75 47.386719 147.234375 46.894531 C 146.71875 46.40625 146.148438 45.992188 145.519531 45.65625 C 144.894531 45.316406 144.230469 45.070312 143.539062 44.910156 C 142.84375 44.753906 142.140625 44.6875 141.425781 44.71875 C 140.808594 44.6875 140.191406 44.738281 139.585938 44.867188 C 138.980469 44.996094 138.398438 45.203125 137.84375 45.484375 C 137.292969 45.761719 136.785156 46.109375 136.320312 46.523438 C 135.859375 46.933594 135.457031 47.398438 135.117188 47.914062 L 135.117188 45.222656 L 130.417969 45.222656 L 130.417969 66.742188 L 135.160156 66.742188 L 135.160156 54.824219 C 135.160156 51.085938 137.234375 49.109375 140.445312 49.109375 C 143.652344 49.109375 145.140625 51.132812 145.140625 54.777344 L 145.140625 66.742188 L 149.855469 66.742188 L 149.855469 54.824219 C 149.855469 51.085938 152.019531 49.109375 155.140625 49.109375 C 158.261719 49.109375 159.882812 51.132812 159.882812 54.777344 L 159.882812 66.742188 Z M 234.808594 45.238281 L 227.136719 45.238281 L 227.136719 38.71875 L 222.394531 38.71875 L 222.394531 45.238281 L 218.011719 45.238281 L 218.011719 49.515625 L 222.394531 49.515625 L 222.394531 59.316406 C 222.394531 64.308594 224.332031 67.28125 229.886719 67.28125 C 232 67.289062 233.957031 66.734375 235.753906 65.621094 L 234.402344 61.613281 C 233.121094 62.375 231.734375 62.777344 230.246094 62.828125 C 227.902344 62.828125 227.125 61.390625 227.125 59.234375 L 227.125 49.515625 L 234.800781 49.515625 Z M 274.867188 44.699219 C 274.292969 44.683594 273.730469 44.742188 273.171875 44.878906 C 272.617188 45.011719 272.089844 45.21875 271.585938 45.496094 C 271.085938 45.773438 270.632812 46.113281 270.222656 46.511719 C 269.816406 46.914062 269.464844 47.359375 269.179688 47.851562 L 269.179688 45.238281 L 264.527344 45.238281 L 264.527344 66.742188 L 269.222656 66.742188 L 269.222656 54.6875 C 269.222656 51.09375 270.757812 49.15625 273.832031 49.15625 C 274.847656 49.140625 275.824219 49.320312 276.769531 49.695312 L 278.210938 45.285156 C 277.132812 44.898438 276.015625 44.703125 274.867188 44.699219 Z M 214.304688 46.945312 C 211.589844 45.339844 208.652344 44.589844 205.496094 44.699219 C 200.03125 44.699219 196.480469 47.3125 196.480469 51.582031 C 196.480469 55.09375 199.09375 57.25 203.925781 57.921875 L 206.136719 58.238281 C 208.707031 58.597656 209.933594 59.269531 209.933594 60.480469 C 209.933594 62.144531 208.21875 63.097656 205.007812 63.097656 C 203.714844 63.136719 202.449219 62.964844 201.210938 62.582031 C 199.976562 62.195312 198.835938 61.617188 197.796875 60.851562 L 195.660156 64.488281 C 197.027344 65.441406 198.511719 66.15625 200.109375 66.632812 C 201.707031 67.113281 203.339844 67.328125 205.007812 67.28125 C 211.238281 67.28125 214.855469 64.355469 214.855469 60.265625 C 214.855469 56.484375 212.007812 54.507812 207.316406 53.835938 L 205.109375 53.519531 C 203.082031 53.25 201.449219 52.847656 201.449219 51.410156 C 201.449219 49.839844 202.980469 48.894531 205.558594 48.894531 C 207.960938 48.929688 210.203125 49.542969 212.285156 50.734375 Z M 340.101562 44.699219 C 339.527344 44.683594 338.964844 44.742188 338.40625 44.878906 C 337.851562 45.011719 337.320312 45.21875 336.820312 45.496094 C 336.320312 45.773438 335.863281 46.113281 335.457031 46.511719 C 335.046875 46.914062 334.699219 47.359375 334.410156 47.851562 L 334.410156 45.238281 L 329.757812 45.238281 L 329.757812 66.742188 L 334.457031 66.742188 L 334.457031 54.6875 C 334.457031 51.09375 335.988281 49.15625 339.0625 49.15625 C 340.078125 49.140625 341.058594 49.320312 342.003906 49.695312 L 343.445312 45.285156 C 342.363281 44.898438 341.25 44.703125 340.101562 44.699219 Z M 279.609375 55.992188 C 279.609375 62.511719 284.171875 67.28125 291.125 67.28125 C 292.535156 67.351562 293.90625 67.164062 295.246094 66.722656 C 296.585938 66.277344 297.800781 65.609375 298.886719 64.714844 L 296.632812 60.929688 C 294.964844 62.195312 293.085938 62.839844 290.988281 62.863281 C 287.238281 62.863281 284.488281 60.113281 284.488281 55.980469 C 284.488281 51.851562 287.246094 49.144531 290.988281 49.101562 C 293.085938 49.125 294.964844 49.769531 296.632812 51.03125 L 298.886719 47.25 C 297.800781 46.355469 296.585938 45.6875 295.246094 45.242188 C 293.90625 44.800781 292.535156 44.613281 291.125 44.683594 C 284.171875 44.683594 279.609375 49.453125 279.609375 55.972656 Z M 323.589844 55.992188 L 323.589844 45.210938 L 318.894531 45.210938 L 318.894531 47.824219 C 318.082031 46.78125 317.074219 45.980469 315.871094 45.425781 C 314.667969 44.867188 313.402344 44.617188 312.078125 44.671875 C 306.027344 44.671875 301.257812 49.398438 301.257812 55.964844 C 301.257812 62.53125 306 67.253906 312.078125 67.253906 C 313.402344 67.3125 314.667969 67.0625 315.871094 66.503906 C 317.074219 65.949219 318.082031 65.148438 318.894531 64.101562 L 318.894531 66.707031 L 323.589844 66.707031 Z M 306.117188 55.992188 C 306.117188 52.210938 308.597656 49.109375 312.664062 49.109375 C 316.550781 49.109375 319.164062 52.082031 319.164062 55.992188 C 319.164062 59.898438 316.550781 62.871094 312.664062 62.871094 C 308.597656 62.871094 306.117188 59.765625 306.117188 55.992188 Z M 249.441406 44.699219 C 243.128906 44.699219 238.695312 49.289062 238.695312 55.992188 C 238.695312 62.828125 243.300781 67.28125 249.757812 67.28125 C 251.367188 67.339844 252.9375 67.105469 254.464844 66.585938 C 255.988281 66.066406 257.371094 65.292969 258.609375 64.265625 L 256.3125 60.796875 C 255.414062 61.511719 254.425781 62.0625 253.34375 62.445312 C 252.265625 62.832031 251.148438 63.03125 250 63.042969 C 246.972656 63.042969 244.222656 61.648438 243.546875 57.777344 L 259.574219 57.777344 C 259.621094 57.195312 259.667969 56.609375 259.667969 55.980469 C 259.667969 49.28125 255.464844 44.691406 249.414062 44.691406 Z M 249.351562 48.886719 C 252.382812 48.886719 254.320312 50.773438 254.816406 54.105469 L 243.625 54.105469 C 244.121094 50.996094 246.015625 48.886719 249.359375 48.886719 Z M 367.148438 55.992188 L 367.148438 36.597656 L 362.453125 36.597656 L 362.453125 47.84375 C 361.640625 46.800781 360.632812 46 359.429688 45.441406 C 358.226562 44.886719 356.960938 44.636719 355.636719 44.691406 C 349.585938 44.691406 344.816406 49.414062 344.816406 55.980469 C 344.816406 62.546875 349.558594 67.273438 355.636719 67.273438 C 356.960938 67.328125 358.226562 67.078125 359.429688 66.523438 C 360.632812 65.964844 361.640625 65.164062 362.453125 64.121094 L 362.453125 66.726562 L 367.148438 66.726562 Z M 372.640625 64.757812 C 372.828125 64.757812 373.007812 64.792969 373.179688 64.867188 C 373.347656 64.9375 373.496094 65.035156 373.621094 65.164062 C 373.75 65.285156 373.847656 65.429688 373.921875 65.59375 C 374.074219 65.945312 374.074219 66.300781 373.921875 66.652344 C 373.847656 66.816406 373.75 66.960938 373.621094 67.085938 C 373.492188 67.210938 373.347656 67.308594 373.179688 67.382812 C 373.007812 67.453125 372.828125 67.492188 372.640625 67.488281 C 372.359375 67.492188 372.101562 67.417969 371.863281 67.265625 C 371.628906 67.113281 371.453125 66.910156 371.339844 66.652344 C 371.191406 66.300781 371.191406 65.945312 371.339844 65.59375 C 371.488281 65.25 371.734375 65.007812 372.082031 64.867188 C 372.265625 64.789062 372.457031 64.753906 372.65625 64.757812 Z M 372.640625 67.183594 C 372.785156 67.1875 372.921875 67.160156 373.054688 67.101562 C 373.179688 67.046875 373.292969 66.972656 373.386719 66.878906 C 373.488281 66.777344 373.566406 66.664062 373.621094 66.53125 C 373.675781 66.402344 373.699219 66.265625 373.699219 66.125 C 373.699219 65.980469 373.675781 65.847656 373.621094 65.714844 C 373.566406 65.585938 373.488281 65.46875 373.386719 65.367188 C 373.292969 65.273438 373.179688 65.199219 373.054688 65.144531 C 372.921875 65.089844 372.785156 65.0625 372.640625 65.0625 C 372.492188 65.0625 372.351562 65.089844 372.214844 65.144531 C 372.054688 65.214844 371.914062 65.316406 371.804688 65.453125 C 371.691406 65.59375 371.617188 65.746094 371.585938 65.921875 C 371.550781 66.09375 371.558594 66.265625 371.609375 66.433594 C 371.660156 66.605469 371.75 66.753906 371.875 66.878906 C 371.972656 66.976562 372.085938 67.050781 372.214844 67.101562 C 372.359375 67.160156 372.503906 67.1875 372.65625 67.183594 Z M 372.722656 65.476562 C 372.859375 65.46875 372.988281 65.503906 373.101562 65.585938 C 373.195312 65.660156 373.242188 65.757812 373.234375 65.882812 C 373.238281 65.984375 373.203125 66.070312 373.125 66.140625 C 373.042969 66.214844 372.941406 66.257812 372.828125 66.265625 L 373.242188 66.742188 L 372.917969 66.742188 L 372.53125 66.265625 L 372.40625 66.265625 L 372.40625 66.742188 L 372.136719 66.742188 L 372.136719 65.484375 Z M 372.40625 65.710938 L 372.40625 66.050781 L 372.722656 66.050781 C 372.777344 66.066406 372.835938 66.066406 372.890625 66.050781 C 372.9375 66.019531 372.957031 65.980469 372.957031 65.925781 C 372.957031 65.871094 372.9375 65.832031 372.890625 65.800781 C 372.835938 65.785156 372.777344 65.785156 372.722656 65.800781 Z M 349.695312 55.992188 C 349.695312 52.210938 352.171875 49.109375 356.238281 49.109375 C 360.125 49.109375 362.738281 52.082031 362.738281 55.992188 C 362.738281 59.898438 360.125 62.871094 356.238281 62.871094 C 352.171875 62.871094 349.695312 59.765625 349.695312 55.992188 Z M 191.097656 55.992188 L 191.097656 45.210938 L 186.398438 45.210938 L 186.398438 47.824219 C 185.585938 46.789062 184.582031 45.996094 183.382812 45.445312 C 182.1875 44.894531 180.929688 44.644531 179.609375 44.699219 C 173.5625 44.699219 168.792969 49.425781 168.792969 55.992188 C 168.792969 62.558594 173.535156 67.28125 179.609375 67.28125 C 180.9375 67.339844 182.199219 67.085938 183.402344 66.53125 C 184.605469 65.972656 185.613281 65.175781 186.425781 64.128906 L 186.425781 66.734375 L 191.125 66.734375 Z M 173.625 55.992188 C 173.625 52.210938 176.101562 49.109375 180.167969 49.109375 C 184.054688 49.109375 186.671875 52.082031 186.671875 55.992188 C 186.671875 59.898438 184.054688 62.871094 180.167969 62.871094 C 176.101562 62.871094 173.625 59.773438 173.625 55.992188 Z M 173.625 55.992188 " fill-opacity="1" fill-rule="nonzero"/></g><path fill="rgb(100%, 37.249756%, 0%)" d="M 42.078125 30.425781 L 70.476562 30.425781 L 70.476562 81.277344 L 42.078125 81.277344 Z M 42.078125 30.425781 " fill-opacity="1" fill-rule="nonzero"/><path fill="rgb(92.158508%, 0%, 10.5896%)" d="M 43.878906 55.867188 C 43.878906 53.417969 44.152344 51 44.703125 48.613281 C 45.253906 46.226562 46.0625 43.933594 47.136719 41.730469 C 48.210938 39.53125 49.519531 37.476562 51.0625 35.570312 C 52.605469 33.664062 54.34375 31.957031 56.277344 30.445312 C 55.484375 29.824219 54.664062 29.238281 53.816406 28.695312 C 52.96875 28.148438 52.09375 27.644531 51.199219 27.183594 C 50.304688 26.71875 49.390625 26.296875 48.457031 25.917969 C 47.519531 25.539062 46.570312 25.203125 45.605469 24.914062 C 44.636719 24.621094 43.660156 24.378906 42.671875 24.175781 C 41.683594 23.976562 40.6875 23.824219 39.683594 23.71875 C 38.679688 23.609375 37.671875 23.550781 36.664062 23.535156 C 35.65625 23.523438 34.648438 23.554688 33.640625 23.632812 C 32.636719 23.714844 31.636719 23.839844 30.640625 24.011719 C 29.648438 24.1875 28.664062 24.40625 27.691406 24.667969 C 26.714844 24.933594 25.757812 25.242188 24.8125 25.59375 C 23.867188 25.949219 22.941406 26.34375 22.035156 26.785156 C 21.125 27.222656 20.242188 27.703125 19.378906 28.226562 C 18.515625 28.75 17.679688 29.308594 16.867188 29.910156 C 16.058594 30.507812 15.277344 31.144531 14.527344 31.816406 C 13.777344 32.488281 13.058594 33.191406 12.375 33.929688 C 11.691406 34.667969 11.042969 35.4375 10.429688 36.238281 C 9.816406 37.035156 9.242188 37.863281 8.707031 38.714844 C 8.171875 39.566406 7.675781 40.441406 7.222656 41.339844 C 6.769531 42.238281 6.359375 43.15625 5.992188 44.089844 C 5.625 45.027344 5.300781 45.980469 5.023438 46.945312 C 4.746094 47.910156 4.511719 48.890625 4.324219 49.875 C 4.136719 50.863281 3.996094 51.859375 3.902344 52.859375 C 3.808594 53.859375 3.761719 54.863281 3.761719 55.871094 C 3.761719 56.875 3.808594 57.878906 3.902344 58.878906 C 3.996094 59.878906 4.136719 60.875 4.324219 61.863281 C 4.511719 62.851562 4.746094 63.828125 5.023438 64.792969 C 5.300781 65.761719 5.625 66.710938 5.992188 67.648438 C 6.359375 68.585938 6.769531 69.5 7.222656 70.398438 C 7.675781 71.296875 8.171875 72.171875 8.707031 73.027344 C 9.242188 73.878906 9.816406 74.703125 10.429688 75.503906 C 11.042969 76.300781 11.691406 77.070312 12.375 77.808594 C 13.058594 78.546875 13.777344 79.253906 14.527344 79.925781 C 15.277344 80.597656 16.058594 81.230469 16.867188 81.832031 C 17.679688 82.429688 18.515625 82.992188 19.378906 83.511719 C 20.242188 84.035156 21.125 84.515625 22.035156 84.953125 C 22.941406 85.394531 23.867188 85.789062 24.8125 86.144531 C 25.757812 86.496094 26.714844 86.804688 27.691406 87.070312 C 28.664062 87.335938 29.648438 87.554688 30.640625 87.726562 C 31.636719 87.898438 32.636719 88.023438 33.640625 88.105469 C 34.648438 88.183594 35.65625 88.21875 36.664062 88.203125 C 37.671875 88.191406 38.679688 88.128906 39.683594 88.023438 C 40.6875 87.914062 41.683594 87.761719 42.671875 87.5625 C 43.660156 87.363281 44.636719 87.117188 45.605469 86.828125 C 46.570312 86.535156 47.519531 86.203125 48.457031 85.820312 C 49.390625 85.441406 50.304688 85.023438 51.199219 84.558594 C 52.09375 84.09375 52.96875 83.589844 53.816406 83.042969 C 54.664062 82.5 55.484375 81.917969 56.277344 81.296875 C 54.34375 79.78125 52.605469 78.074219 51.0625 76.167969 C 49.519531 74.261719 48.210938 72.207031 47.136719 70.003906 C 46.0625 67.800781 45.25 65.507812 44.699219 63.121094 C 44.152344 60.730469 43.878906 58.3125 43.878906 55.867188 Z M 43.878906 55.867188 " fill-opacity="1" fill-rule="nonzero"/><path fill="rgb(96.859741%, 61.959839%, 10.5896%)" d="M 108.796875 55.867188 C 108.796875 57.375 108.691406 58.878906 108.480469 60.371094 C 108.269531 61.867188 107.953125 63.339844 107.535156 64.789062 C 107.117188 66.242188 106.601562 67.65625 105.984375 69.035156 C 105.367188 70.414062 104.65625 71.742188 103.851562 73.023438 C 103.046875 74.300781 102.15625 75.519531 101.183594 76.675781 C 100.207031 77.832031 99.15625 78.914062 98.03125 79.921875 C 96.902344 80.929688 95.710938 81.855469 94.453125 82.699219 C 93.195312 83.539062 91.886719 84.292969 90.523438 84.949219 C 89.160156 85.609375 87.757812 86.171875 86.316406 86.636719 C 84.875 87.101562 83.40625 87.460938 81.914062 87.722656 C 80.421875 87.980469 78.917969 88.136719 77.402344 88.183594 C 75.890625 88.234375 74.378906 88.179688 72.871094 88.015625 C 71.367188 87.855469 69.878906 87.589844 68.40625 87.222656 C 66.9375 86.851562 65.503906 86.382812 64.097656 85.816406 C 62.695312 85.246094 61.339844 84.582031 60.027344 83.824219 C 58.71875 83.066406 57.46875 82.21875 56.277344 81.285156 C 56.757812 80.910156 57.230469 80.519531 57.6875 80.117188 C 58.148438 79.714844 58.59375 79.296875 59.027344 78.867188 C 59.464844 78.441406 59.886719 78 60.296875 77.546875 C 60.707031 77.09375 61.105469 76.632812 61.488281 76.15625 C 61.875 75.683594 62.242188 75.199219 62.601562 74.703125 C 62.957031 74.207031 63.300781 73.703125 63.628906 73.1875 C 63.957031 72.671875 64.269531 72.148438 64.566406 71.617188 C 64.863281 71.082031 65.148438 70.542969 65.414062 69.996094 C 65.683594 69.445312 65.933594 68.890625 66.167969 68.328125 C 66.40625 67.765625 66.625 67.199219 66.828125 66.621094 C 67.03125 66.046875 67.21875 65.46875 67.390625 64.882812 C 67.5625 64.296875 67.714844 63.707031 67.851562 63.113281 C 67.988281 62.519531 68.109375 61.921875 68.214844 61.320312 C 68.316406 60.71875 68.402344 60.117188 68.472656 59.511719 C 68.542969 58.90625 68.59375 58.296875 68.628906 57.6875 C 68.664062 57.078125 68.679688 56.46875 68.679688 55.859375 C 68.679688 55.25 68.664062 54.640625 68.628906 54.035156 C 68.59375 53.425781 68.542969 52.816406 68.472656 52.210938 C 68.402344 51.605469 68.316406 51.003906 68.214844 50.402344 C 68.109375 49.800781 67.988281 49.203125 67.851562 48.609375 C 67.714844 48.015625 67.5625 47.425781 67.390625 46.839844 C 67.21875 46.253906 67.03125 45.675781 66.828125 45.097656 C 66.625 44.523438 66.40625 43.957031 66.167969 43.394531 C 65.933594 42.832031 65.683594 42.273438 65.414062 41.726562 C 65.148438 41.179688 64.863281 40.636719 64.566406 40.105469 C 64.269531 39.574219 63.957031 39.050781 63.628906 38.535156 C 63.300781 38.019531 62.957031 37.515625 62.601562 37.019531 C 62.242188 36.523438 61.875 36.039062 61.488281 35.5625 C 61.105469 35.089844 60.707031 34.625 60.296875 34.171875 C 59.886719 33.722656 59.464844 33.28125 59.027344 32.851562 C 58.59375 32.425781 58.148438 32.007812 57.6875 31.605469 C 57.230469 31.203125 56.757812 30.8125 56.277344 30.433594 C 57.46875 29.503906 58.71875 28.65625 60.03125 27.898438 C 61.339844 27.140625 62.695312 26.476562 64.101562 25.90625 C 65.503906 25.335938 66.941406 24.867188 68.410156 24.5 C 69.878906 24.128906 71.367188 23.867188 72.875 23.703125 C 74.382812 23.542969 75.890625 23.488281 77.40625 23.539062 C 78.921875 23.585938 80.425781 23.742188 81.917969 24 C 83.410156 24.261719 84.878906 24.621094 86.320312 25.085938 C 87.761719 25.550781 89.164062 26.113281 90.527344 26.773438 C 91.890625 27.433594 93.199219 28.183594 94.457031 29.027344 C 95.714844 29.871094 96.90625 30.796875 98.035156 31.804688 C 99.160156 32.8125 100.210938 33.894531 101.1875 35.050781 C 102.160156 36.207031 103.050781 37.425781 103.855469 38.707031 C 104.660156 39.984375 105.371094 41.316406 105.984375 42.695312 C 106.601562 44.074219 107.121094 45.488281 107.539062 46.9375 C 107.957031 48.390625 108.269531 49.863281 108.480469 51.359375 C 108.691406 52.851562 108.796875 54.355469 108.796875 55.867188 Z M 108.796875 55.867188 " fill-opacity="1" fill-rule="nonzero"/><path fill="rgb(96.859741%, 61.959839%, 10.5896%)" d="M 105.675781 75.886719 L 105.675781 74.84375 L 106.101562 74.84375 L 106.101562 74.640625 L 105.046875 74.640625 L 105.046875 74.855469 L 105.46875 74.855469 L 105.46875 75.898438 Z M 107.761719 75.886719 L 107.761719 74.628906 L 107.480469 74.628906 L 107.101562 75.527344 L 106.722656 74.628906 L 106.390625 74.628906 L 106.390625 75.886719 L 106.578125 75.886719 L 106.578125 74.945312 L 106.929688 75.761719 L 107.175781 75.761719 L 107.527344 74.945312 L 107.527344 75.898438 Z M 107.761719 75.886719 " fill-opacity="1" fill-rule="nonzero"/></svg>