<?xml version="1.0" encoding="UTF-8"?><svg xmlns="http://www.w3.org/2000/svg" xmlns:xlink="http://www.w3.org/1999/xlink" contentScriptType="text/ecmascript" width="375" zoomAndPan="magnify" contentStyleType="text/css" viewBox="0 0 375 112.499997" height="112.499997" preserveAspectRatio="xMidYMid meet" version="1.0"><defs><clipPath id="clip-0"><path d="M 61 20 L 142 20 L 142 100.8125 L 61 100.8125 Z M 61 20 " clip-rule="nonzero"/></clipPath><clipPath id="clip-1"><path d="M 52 11.957031 L 133 11.957031 L 133 92 L 52 92 Z M 52 11.957031 " clip-rule="nonzero"/></clipPath></defs><path fill="rgb(7.058716%, 22.349548%, 51.759338%)" d="M 183.976562 49.914062 C 183.976562 53.820312 182.367188 56.964844 179.128906 59.355469 C 175.886719 61.746094 171.363281 62.9375 165.554688 62.9375 L 162.335938 62.9375 L 159.863281 73.605469 L 151.367188 73.605469 L 158.941406 40.835938 L 170.730469 40.835938 C 172.878906 40.835938 174.738281 40.988281 176.332031 41.277344 C 177.921875 41.5625 179.300781 42.082031 180.457031 42.789062 C 181.582031 43.484375 182.457031 44.414062 183.082031 45.585938 C 183.675781 46.769531 183.984375 48.207031 183.984375 49.914062 Z M 174.945312 50.738281 C 174.945312 49.449219 174.488281 48.515625 173.546875 47.878906 C 172.609375 47.242188 171.246094 46.960938 169.421875 46.960938 L 166.011719 46.960938 L 163.746094 56.765625 L 166.796875 56.765625 C 169.367188 56.765625 171.378906 56.246094 172.796875 55.191406 C 174.234375 54.140625 174.945312 52.644531 174.945312 50.714844 Z M 199.605469 71 L 197.800781 72.191406 C 197.09375 72.652344 196.441406 73.015625 195.847656 73.28125 C 195.09375 73.601562 194.320312 73.859375 193.527344 74.050781 C 192.796875 74.222656 191.800781 74.320312 190.535156 74.320312 C 188.484375 74.320312 186.796875 73.746094 185.496094 72.59375 C 184.191406 71.441406 183.539062 69.929688 183.539062 68.066406 C 183.539062 66.113281 184 64.496094 184.921875 63.109375 C 185.84375 61.722656 187.222656 60.65625 189.046875 59.851562 C 190.753906 59.085938 192.785156 58.53125 195.128906 58.183594 L 202.777344 57.4375 L 202.875 57.015625 C 202.933594 56.824219 202.949219 56.59375 202.949219 56.347656 C 202.976562 55.867188 202.855469 55.425781 202.589844 55.023438 C 202.328125 54.621094 201.96875 54.332031 201.519531 54.164062 C 200.566406 53.742188 199.105469 53.53125 197.1875 53.53125 C 195.882812 53.53125 194.445312 53.742188 192.855469 54.183594 L 189.308594 55.273438 L 188.578125 55.273438 L 189.769531 49.414062 C 190.691406 49.183594 192.15625 48.9375 194.0625 48.625 C 195.96875 48.316406 197.9375 48.1875 199.851562 48.1875 C 203.726562 48.1875 206.582031 48.664062 208.386719 49.699219 C 210.207031 50.714844 211.109375 52.285156 211.109375 54.410156 C 211.105469 54.796875 211.082031 55.179688 211.03125 55.558594 C 210.992188 55.972656 210.921875 56.382812 210.824219 56.785156 L 206.949219 73.605469 L 199.070312 73.605469 Z M 201.714844 61.960938 L 197.726562 62.382812 C 196.644531 62.503906 195.589844 62.738281 194.5625 63.089844 C 193.660156 63.414062 192.972656 63.875 192.511719 64.445312 C 192.035156 65.042969 191.800781 65.804688 191.800781 66.78125 C 191.800781 67.625 192.113281 68.210938 192.742188 68.582031 C 193.371094 68.953125 194.273438 69.097656 195.484375 69.097656 C 196.269531 69.097656 197.09375 68.929688 197.996094 68.5625 C 198.886719 68.203125 199.722656 67.742188 200.507812 67.183594 Z M 223.265625 82.683594 L 214.539062 82.683594 L 220.847656 73.128906 L 216.78125 48.917969 L 224.890625 48.917969 L 227.035156 65.105469 L 236.449219 48.917969 L 244.828125 48.917969 Z M 223.265625 82.683594 " fill-opacity="1" fill-rule="nonzero"/><path fill="rgb(0%, 61.569214%, 88.62915%)" d="M 276.542969 49.914062 C 276.542969 53.820312 274.929688 56.964844 271.691406 59.355469 C 268.449219 61.746094 263.925781 62.9375 258.117188 62.9375 L 254.898438 62.9375 L 252.425781 73.605469 L 243.933594 73.605469 L 251.488281 40.855469 L 263.277344 40.855469 C 265.421875 40.855469 267.285156 41.007812 268.875 41.292969 C 270.46875 41.582031 271.847656 42.101562 273.003906 42.808594 C 274.128906 43.503906 275.003906 44.433594 275.628906 45.605469 C 276.242188 46.796875 276.546875 48.207031 276.546875 49.890625 Z M 267.492188 50.738281 C 267.492188 49.449219 267.03125 48.515625 266.089844 47.878906 C 265.152344 47.242188 263.789062 46.960938 261.964844 46.960938 L 258.554688 46.960938 L 256.289062 56.765625 L 259.335938 56.765625 C 261.90625 56.765625 263.917969 56.246094 265.335938 55.191406 C 266.777344 54.140625 267.484375 52.644531 267.484375 50.714844 Z M 292.167969 71 L 290.367188 72.191406 C 289.65625 72.652344 289.007812 73.015625 288.410156 73.28125 C 287.65625 73.601562 286.882812 73.859375 286.089844 74.050781 C 285.359375 74.222656 284.363281 74.320312 283.097656 74.320312 C 281.046875 74.320312 279.359375 73.746094 278.058594 72.59375 C 276.753906 71.441406 276.101562 69.929688 276.101562 68.066406 C 276.101562 66.113281 276.5625 64.496094 277.484375 63.109375 C 278.410156 61.722656 279.785156 60.65625 281.609375 59.851562 C 283.320312 59.085938 285.351562 58.53125 287.691406 58.183594 L 295.34375 57.4375 L 295.4375 57.015625 C 295.496094 56.824219 295.515625 56.59375 295.515625 56.347656 C 295.539062 55.867188 295.417969 55.425781 295.15625 55.023438 C 294.890625 54.621094 294.535156 54.332031 294.082031 54.164062 C 293.128906 53.742188 291.667969 53.53125 289.75 53.53125 C 288.445312 53.53125 287.007812 53.742188 285.417969 54.183594 L 281.871094 55.273438 L 281.140625 55.273438 L 282.332031 49.414062 C 283.253906 49.183594 284.71875 48.9375 286.625 48.625 C 288.535156 48.316406 290.5 48.1875 292.417969 48.1875 C 296.289062 48.1875 299.144531 48.664062 300.949219 49.699219 C 302.769531 50.714844 303.671875 52.285156 303.671875 54.410156 C 303.667969 54.796875 303.644531 55.179688 303.597656 55.558594 C 303.554688 55.972656 303.484375 56.382812 303.386719 56.785156 L 299.511719 73.605469 L 291.613281 73.605469 Z M 294.277344 61.960938 L 290.289062 62.382812 C 289.207031 62.503906 288.152344 62.738281 287.125 63.089844 C 286.222656 63.414062 285.535156 63.875 285.074219 64.445312 C 284.597656 65.042969 284.367188 65.804688 284.367188 66.78125 C 284.367188 67.625 284.675781 68.210938 285.304688 68.582031 C 285.933594 68.953125 286.839844 69.097656 288.046875 69.097656 C 288.835938 69.097656 289.65625 68.929688 290.558594 68.5625 C 291.449219 68.203125 292.289062 67.742188 293.070312 67.183594 Z M 322.59375 39.375 L 314.675781 73.621094 L 306.699219 73.621094 L 314.617188 39.375 Z M 322.59375 39.375 " fill-opacity="1" fill-rule="nonzero"/><path fill="rgb(0%, 61.178589%, 87.059021%)" d="M 140.585938 43.136719 C 140.585938 52.460938 136.703125 59.988281 128.960938 65.707031 C 121.21875 71.429688 110.398438 74.28125 96.488281 74.28125 L 88.796875 74.28125 L 82.898438 99.804688 L 62.574219 99.804688 L 81.34375 21.46875 L 108.859375 21.46875 C 113.988281 21.46875 118.449219 21.828125 122.277344 22.527344 C 126.089844 23.230469 129.390625 24.441406 132.15625 26.164062 C 134.890625 27.890625 136.996094 30.125 138.429688 32.875 C 139.867188 35.605469 140.585938 39.039062 140.585938 43.136719 Z M 140.585938 43.136719 " fill-opacity="1" fill-rule="nonzero"/><g clip-path="url(#clip-0)"><path fill="rgb(100%, 100%, 100%)" d="M 83.582031 100.640625 L 61.515625 100.640625 L 80.695312 20.617188 L 108.859375 20.617188 C 114.007812 20.617188 118.570312 20.976562 122.414062 21.675781 C 126.3125 22.390625 129.730469 23.65625 132.585938 25.414062 C 135.4375 27.207031 137.660156 29.582031 139.164062 32.449219 C 140.667969 35.316406 141.421875 38.902344 141.421875 43.121094 C 141.421875 52.679688 137.40625 60.519531 129.457031 66.375 C 121.59375 72.179688 110.503906 75.117188 96.46875 75.117188 L 89.445312 75.117188 Z M 63.652344 98.96875 L 82.230469 98.96875 L 88.128906 73.441406 L 96.488281 73.441406 C 110.144531 73.441406 120.910156 70.609375 128.464844 65.023438 C 132.210938 62.257812 135.0625 59.015625 136.925781 55.394531 C 138.789062 51.777344 139.730469 47.644531 139.730469 43.136719 C 139.730469 39.191406 139.027344 35.863281 137.660156 33.234375 C 136.292969 30.621094 134.292969 28.488281 131.695312 26.847656 C 129.03125 25.191406 125.800781 24.015625 122.109375 23.332031 C 118.363281 22.648438 113.902344 22.289062 108.84375 22.289062 L 82.007812 22.289062 Z M 63.652344 98.96875 " fill-opacity="1" fill-rule="nonzero"/></g><path fill="rgb(5.879211%, 20.779419%, 44.709778%)" d="M 131.558594 34.410156 C 131.558594 43.734375 127.679688 51.265625 119.9375 56.984375 C 112.195312 62.703125 101.375 65.554688 87.460938 65.554688 L 79.769531 65.554688 L 73.875 91.078125 L 53.550781 91.078125 L 71.652344 12.726562 L 99.835938 12.726562 C 104.964844 12.726562 109.425781 13.085938 113.253906 13.785156 C 117.066406 14.488281 120.363281 15.699219 123.132812 17.421875 C 125.867188 19.148438 127.96875 21.386719 129.40625 24.132812 C 130.839844 26.867188 131.558594 30.296875 131.558594 34.410156 Z M 131.558594 34.410156 " fill-opacity="1" fill-rule="nonzero"/><g clip-path="url(#clip-1)"><path fill="rgb(100%, 100%, 100%)" d="M 74.539062 91.917969 L 52.492188 91.917969 L 70.96875 11.890625 L 99.835938 11.890625 C 104.980469 11.890625 109.546875 12.25 113.390625 12.949219 C 117.289062 13.667969 120.707031 14.929688 123.558594 16.691406 C 126.414062 18.480469 128.636719 20.855469 130.140625 23.722656 C 131.644531 26.59375 132.398438 30.179688 132.398438 34.394531 C 132.398438 43.957031 128.378906 51.792969 120.433594 57.648438 C 112.570312 63.453125 101.476562 66.390625 87.445312 66.390625 L 80.421875 66.390625 Z M 54.609375 90.226562 L 73.207031 90.226562 L 79.105469 64.699219 L 87.460938 64.699219 C 101.117188 64.699219 111.886719 61.867188 119.441406 56.285156 C 123.183594 53.519531 126.039062 50.273438 127.902344 46.652344 C 129.765625 43.035156 130.703125 38.902344 130.703125 34.394531 C 130.703125 30.449219 130.003906 27.121094 128.636719 24.492188 C 127.269531 21.878906 125.269531 19.746094 122.671875 18.105469 C 120.003906 16.449219 116.773438 15.273438 113.082031 14.589844 C 109.339844 13.90625 104.878906 13.546875 99.820312 13.546875 L 72.300781 13.546875 Z M 110.671875 37.195312 C 110.519531 39.585938 110.039062 41.34375 108.570312 43.375 C 107.117188 45.40625 105.410156 46.722656 103.117188 47.816406 C 101.734375 48.464844 100.296875 48.890625 98.792969 49.09375 C 97.289062 49.300781 95.496094 49.417969 93.394531 49.417969 L 83.292969 49.417969 L 88.949219 29.171875 L 98.128906 29.171875 C 100.46875 29.171875 102.347656 29.203125 103.769531 29.527344 C 105.1875 29.835938 106.347656 30.261719 107.21875 30.792969 C 108.433594 31.507812 109.40625 32.378906 109.972656 33.488281 C 110.671875 34.789062 110.757812 35.625 110.671875 37.195312 Z M 110.671875 37.195312 " fill-opacity="1" fill-rule="nonzero"/></g></svg>