<?xml version="1.0" encoding="UTF-8"?><svg xmlns="http://www.w3.org/2000/svg" xmlns:xlink="http://www.w3.org/1999/xlink" contentScriptType="text/ecmascript" width="224.87999" zoomAndPan="magnify" contentStyleType="text/css" viewBox="0 0 224.87999 225" height="225" preserveAspectRatio="xMidYMid meet" version="1.0"><defs><clipPath id="clip-0"><path d="M 13.554688 13.613281 L 211.449219 13.613281 L 211.449219 211.507812 L 13.554688 211.507812 Z M 13.554688 13.613281 " clip-rule="nonzero"/></clipPath></defs><g clip-path="url(#clip-0)"><path fill="rgb(8.628845%, 23.919678%, 16.468811%)" d="M 112.5 13.613281 C 57.957031 13.613281 13.554688 58.015625 13.554688 112.5625 C 13.554688 146.449219 30.621094 176.382812 56.84375 194.191406 C 72.675781 205.078125 91.84375 211.507812 112.5 211.507812 C 133.15625 211.507812 152.328125 205.078125 168.160156 194.191406 C 194.378906 176.382812 211.449219 146.449219 211.449219 112.5625 C 211.449219 58.015625 167.046875 13.613281 112.5 13.613281 Z M 168.160156 178.582031 L 168.160156 155.851562 C 168.160156 138.535156 143.667969 124.929688 112.5 124.929688 C 81.332031 124.929688 56.84375 138.535156 56.84375 155.851562 L 56.84375 178.59375 C 37.386719 162.269531 25.921875 138.210938 25.921875 112.5625 C 25.921875 64.820312 64.757812 25.980469 112.5 25.980469 C 160.242188 25.980469 199.078125 64.820312 199.078125 112.5625 C 199.078125 138.199219 187.640625 162.230469 168.160156 178.582031 Z M 168.160156 178.582031 " fill-opacity="1" fill-rule="nonzero"/></g><path fill="rgb(8.628845%, 23.919678%, 16.468811%)" d="M 143.421875 81.640625 C 143.421875 82.652344 143.371094 83.664062 143.273438 84.671875 C 143.171875 85.679688 143.023438 86.679688 142.828125 87.671875 C 142.628906 88.664062 142.382812 89.648438 142.089844 90.617188 C 141.796875 91.585938 141.457031 92.535156 141.066406 93.472656 C 140.679688 94.410156 140.246094 95.324219 139.769531 96.214844 C 139.292969 97.109375 138.773438 97.976562 138.210938 98.820312 C 137.648438 99.660156 137.046875 100.472656 136.402344 101.253906 C 135.761719 102.039062 135.082031 102.789062 134.363281 103.503906 C 133.648438 104.21875 132.898438 104.898438 132.117188 105.542969 C 131.332031 106.183594 130.523438 106.785156 129.679688 107.347656 C 128.835938 107.914062 127.96875 108.433594 127.078125 108.910156 C 126.183594 109.386719 125.269531 109.820312 124.332031 110.207031 C 123.398438 110.59375 122.445312 110.933594 121.476562 111.230469 C 120.507812 111.523438 119.527344 111.769531 118.53125 111.964844 C 117.539062 112.164062 116.539062 112.3125 115.53125 112.410156 C 114.523438 112.511719 113.511719 112.5625 112.5 112.5625 C 111.488281 112.5625 110.476562 112.511719 109.46875 112.410156 C 108.460938 112.3125 107.460938 112.164062 106.46875 111.964844 C 105.476562 111.769531 104.492188 111.523438 103.523438 111.230469 C 102.554688 110.933594 101.601562 110.59375 100.667969 110.207031 C 99.730469 109.820312 98.816406 109.386719 97.925781 108.910156 C 97.03125 108.433594 96.164062 107.914062 95.320312 107.347656 C 94.480469 106.785156 93.667969 106.183594 92.882812 105.542969 C 92.101562 104.898438 91.351562 104.21875 90.636719 103.503906 C 89.921875 102.789062 89.242188 102.039062 88.597656 101.253906 C 87.957031 100.472656 87.351562 99.660156 86.789062 98.820312 C 86.226562 97.976562 85.707031 97.109375 85.230469 96.214844 C 84.753906 95.324219 84.320312 94.410156 83.933594 93.472656 C 83.546875 92.535156 83.207031 91.585938 82.910156 90.617188 C 82.617188 89.648438 82.371094 88.664062 82.175781 87.671875 C 81.976562 86.679688 81.828125 85.679688 81.730469 84.671875 C 81.628906 83.664062 81.578125 82.652344 81.578125 81.640625 C 81.578125 80.628906 81.628906 79.617188 81.730469 78.609375 C 81.828125 77.601562 81.976562 76.601562 82.175781 75.605469 C 82.371094 74.613281 82.617188 73.632812 82.910156 72.664062 C 83.207031 71.695312 83.546875 70.742188 83.933594 69.808594 C 84.320312 68.871094 84.753906 67.957031 85.230469 67.0625 C 85.707031 66.171875 86.226562 65.304688 86.789062 64.460938 C 87.351562 63.617188 87.957031 62.804688 88.597656 62.023438 C 89.242188 61.242188 89.921875 60.492188 90.636719 59.773438 C 91.351562 59.058594 92.101562 58.378906 92.882812 57.738281 C 93.667969 57.09375 94.480469 56.492188 95.320312 55.929688 C 96.164062 55.367188 97.03125 54.847656 97.925781 54.371094 C 98.816406 53.890625 99.730469 53.460938 100.667969 53.074219 C 101.601562 52.683594 102.554688 52.34375 103.523438 52.050781 C 104.492188 51.757812 105.476562 51.511719 106.46875 51.3125 C 107.460938 51.117188 108.460938 50.96875 109.46875 50.867188 C 110.476562 50.769531 111.488281 50.71875 112.5 50.71875 C 113.511719 50.71875 114.523438 50.769531 115.53125 50.867188 C 116.539062 50.96875 117.539062 51.117188 118.53125 51.3125 C 119.527344 51.511719 120.507812 51.757812 121.476562 52.050781 C 122.445312 52.34375 123.398438 52.683594 124.332031 53.074219 C 125.269531 53.460938 126.183594 53.890625 127.078125 54.371094 C 127.96875 54.847656 128.835938 55.367188 129.679688 55.929688 C 130.523438 56.492188 131.332031 57.09375 132.117188 57.738281 C 132.898438 58.378906 133.648438 59.058594 134.363281 59.773438 C 135.082031 60.492188 135.761719 61.242188 136.402344 62.023438 C 137.046875 62.804688 137.648438 63.617188 138.210938 64.460938 C 138.773438 65.304688 139.292969 66.171875 139.769531 67.0625 C 140.246094 67.957031 140.679688 68.871094 141.066406 69.808594 C 141.457031 70.742188 141.796875 71.695312 142.089844 72.664062 C 142.382812 73.632812 142.628906 74.613281 142.828125 75.605469 C 143.023438 76.601562 143.171875 77.601562 143.273438 78.609375 C 143.371094 79.617188 143.421875 80.628906 143.421875 81.640625 Z M 143.421875 81.640625 " fill-opacity="1" fill-rule="nonzero"/></svg>