<svg xmlns="http://www.w3.org/2000/svg" width="300" viewBox="0 0 300 75" height="75" version="1.0"><defs><clipPath id="a"><path d="M 23 17 L 64 17 L 64 57 L 23 57 Z M 23 17"/></clipPath><clipPath id="b"><path d="M 19.089844 23.621094 L 57.417969 13.089844 L 67.949219 51.417969 L 29.621094 61.949219 Z M 19.089844 23.621094"/></clipPath><clipPath id="c"><path d="M 19.089844 23.621094 L 57.417969 13.089844 L 67.949219 51.417969 L 29.621094 61.949219 Z M 19.089844 23.621094"/></clipPath></defs><g fill="#737373"><g><g><path d="M 14.15625 -1.84375 C 14.3125 -1.726562 14.429688 -1.585938 14.515625 -1.421875 C 14.609375 -1.265625 14.65625 -1.101562 14.65625 -0.9375 C 14.65625 -0.613281 14.550781 -0.375 14.34375 -0.21875 C 14.144531 -0.0703125 13.898438 0 13.609375 0 C 13.316406 0 13.070312 -0.0625 12.875 -0.1875 C 12.414062 -0.445312 12.039062 -0.867188 11.75 -1.453125 C 11.457031 -2.035156 11.3125 -2.890625 11.3125 -4.015625 C 11.3125 -4.785156 11.078125 -5.351562 10.609375 -5.71875 C 10.148438 -6.09375 9.554688 -6.28125 8.828125 -6.28125 L 4.1875 -6.28125 L 4.1875 -1.109375 C 4.1875 -0.785156 4.09375 -0.519531 3.90625 -0.3125 C 3.71875 -0.101562 3.476562 0 3.1875 0 C 2.84375 0 2.539062 -0.101562 2.28125 -0.3125 C 2.03125 -0.53125 1.90625 -0.796875 1.90625 -1.109375 L 1.90625 -14.984375 C 1.90625 -15.296875 2.007812 -15.554688 2.21875 -15.765625 C 2.4375 -15.984375 2.703125 -16.09375 3.015625 -16.09375 L 9.46875 -16.09375 C 10.289062 -16.09375 11.046875 -15.890625 11.734375 -15.484375 C 12.429688 -15.078125 12.984375 -14.515625 13.390625 -13.796875 C 13.804688 -13.085938 14.015625 -12.289062 14.015625 -11.40625 C 14.015625 -10.539062 13.785156 -9.738281 13.328125 -9 C 12.867188 -8.257812 12.28125 -7.703125 11.5625 -7.328125 C 12.125 -7.035156 12.570312 -6.628906 12.90625 -6.109375 C 13.238281 -5.585938 13.421875 -4.984375 13.453125 -4.296875 C 13.503906 -3.421875 13.566406 -2.828125 13.640625 -2.515625 C 13.722656 -2.203125 13.894531 -1.976562 14.15625 -1.84375 Z M 9.421875 -8.1875 C 9.804688 -8.21875 10.171875 -8.367188 10.515625 -8.640625 C 10.859375 -8.921875 11.132812 -9.289062 11.34375 -9.75 C 11.5625 -10.21875 11.671875 -10.742188 11.671875 -11.328125 C 11.671875 -12.066406 11.441406 -12.691406 10.984375 -13.203125 C 10.535156 -13.710938 9.992188 -13.96875 9.359375 -13.96875 L 4.1875 -13.96875 L 4.1875 -8.1875 Z M 9.421875 -8.1875" transform="translate(95.907 45.757)"/></g></g></g><g fill="#737373"><g><g><path d="M 12.203125 -6.484375 C 12.191406 -6.203125 12.078125 -5.96875 11.859375 -5.78125 C 11.640625 -5.59375 11.382812 -5.5 11.09375 -5.5 L 3.015625 -5.5 C 3.117188 -4.375 3.539062 -3.472656 4.28125 -2.796875 C 5.03125 -2.128906 5.941406 -1.796875 7.015625 -1.796875 C 7.742188 -1.796875 8.335938 -1.898438 8.796875 -2.109375 C 9.265625 -2.328125 9.671875 -2.601562 10.015625 -2.9375 C 10.242188 -3.082031 10.46875 -3.15625 10.6875 -3.15625 C 10.945312 -3.15625 11.164062 -3.0625 11.34375 -2.875 C 11.519531 -2.6875 11.609375 -2.472656 11.609375 -2.234375 C 11.609375 -1.910156 11.453125 -1.617188 11.140625 -1.359375 C 10.703125 -0.910156 10.113281 -0.53125 9.375 -0.21875 C 8.644531 0.0820312 7.894531 0.234375 7.125 0.234375 C 5.882812 0.234375 4.789062 -0.0234375 3.84375 -0.546875 C 2.90625 -1.066406 2.175781 -1.796875 1.65625 -2.734375 C 1.144531 -3.671875 0.890625 -4.726562 0.890625 -5.90625 C 0.890625 -7.195312 1.15625 -8.328125 1.6875 -9.296875 C 2.21875 -10.265625 2.914062 -11.007812 3.78125 -11.53125 C 4.644531 -12.050781 5.578125 -12.3125 6.578125 -12.3125 C 7.554688 -12.3125 8.472656 -12.054688 9.328125 -11.546875 C 10.191406 -11.046875 10.882812 -10.351562 11.40625 -9.46875 C 11.925781 -8.582031 12.191406 -7.585938 12.203125 -6.484375 Z M 6.578125 -10.296875 C 5.710938 -10.296875 4.96875 -10.050781 4.34375 -9.5625 C 3.71875 -9.082031 3.304688 -8.335938 3.109375 -7.328125 L 9.890625 -7.328125 L 9.890625 -7.515625 C 9.804688 -8.328125 9.4375 -8.992188 8.78125 -9.515625 C 8.132812 -10.035156 7.398438 -10.296875 6.578125 -10.296875 Z M 6.578125 -10.296875" transform="translate(111.532 45.757)"/></g></g></g><g fill="#737373"><g><g><path d="M 10.828125 -12.15625 C 11.117188 -12.15625 11.363281 -12.054688 11.5625 -11.859375 C 11.757812 -11.671875 11.859375 -11.445312 11.859375 -11.1875 C 11.859375 -11.050781 11.804688 -10.863281 11.703125 -10.625 L 7.328125 -0.6875 C 7.234375 -0.488281 7.101562 -0.328125 6.9375 -0.203125 C 6.769531 -0.078125 6.585938 -0.0078125 6.390625 0 C 6.140625 0.03125 5.910156 -0.015625 5.703125 -0.140625 C 5.503906 -0.265625 5.347656 -0.445312 5.234375 -0.6875 L 0.875 -10.625 C 0.800781 -10.851562 0.765625 -11.039062 0.765625 -11.1875 C 0.765625 -11.4375 0.863281 -11.660156 1.0625 -11.859375 C 1.257812 -12.054688 1.519531 -12.15625 1.84375 -12.15625 C 2.070312 -12.15625 2.273438 -12.097656 2.453125 -11.984375 C 2.640625 -11.867188 2.785156 -11.695312 2.890625 -11.46875 L 6.359375 -3.40625 L 9.84375 -11.46875 C 10.050781 -11.925781 10.378906 -12.15625 10.828125 -12.15625 Z M 10.828125 -12.15625" transform="translate(124.629 45.757)"/></g></g></g><g fill="#737373"><g><g><path d="M 12.203125 -6.484375 C 12.191406 -6.203125 12.078125 -5.96875 11.859375 -5.78125 C 11.640625 -5.59375 11.382812 -5.5 11.09375 -5.5 L 3.015625 -5.5 C 3.117188 -4.375 3.539062 -3.472656 4.28125 -2.796875 C 5.03125 -2.128906 5.941406 -1.796875 7.015625 -1.796875 C 7.742188 -1.796875 8.335938 -1.898438 8.796875 -2.109375 C 9.265625 -2.328125 9.671875 -2.601562 10.015625 -2.9375 C 10.242188 -3.082031 10.46875 -3.15625 10.6875 -3.15625 C 10.945312 -3.15625 11.164062 -3.0625 11.34375 -2.875 C 11.519531 -2.6875 11.609375 -2.472656 11.609375 -2.234375 C 11.609375 -1.910156 11.453125 -1.617188 11.140625 -1.359375 C 10.703125 -0.910156 10.113281 -0.53125 9.375 -0.21875 C 8.644531 0.0820312 7.894531 0.234375 7.125 0.234375 C 5.882812 0.234375 4.789062 -0.0234375 3.84375 -0.546875 C 2.90625 -1.066406 2.175781 -1.796875 1.65625 -2.734375 C 1.144531 -3.671875 0.890625 -4.726562 0.890625 -5.90625 C 0.890625 -7.195312 1.15625 -8.328125 1.6875 -9.296875 C 2.21875 -10.265625 2.914062 -11.007812 3.78125 -11.53125 C 4.644531 -12.050781 5.578125 -12.3125 6.578125 -12.3125 C 7.554688 -12.3125 8.472656 -12.054688 9.328125 -11.546875 C 10.191406 -11.046875 10.882812 -10.351562 11.40625 -9.46875 C 11.925781 -8.582031 12.191406 -7.585938 12.203125 -6.484375 Z M 6.578125 -10.296875 C 5.710938 -10.296875 4.96875 -10.050781 4.34375 -9.5625 C 3.71875 -9.082031 3.304688 -8.335938 3.109375 -7.328125 L 9.890625 -7.328125 L 9.890625 -7.515625 C 9.804688 -8.328125 9.4375 -8.992188 8.78125 -9.515625 C 8.132812 -10.035156 7.398438 -10.296875 6.578125 -10.296875 Z M 6.578125 -10.296875" transform="translate(137.22 45.757)"/></g></g></g><g fill="#737373"><g><g><path d="M 7.625 -12.3125 C 8.03125 -12.3125 8.378906 -12.207031 8.671875 -12 C 8.960938 -11.800781 9.109375 -11.546875 9.109375 -11.234375 C 9.109375 -10.867188 9.007812 -10.585938 8.8125 -10.390625 C 8.625 -10.203125 8.390625 -10.109375 8.109375 -10.109375 C 7.972656 -10.109375 7.769531 -10.15625 7.5 -10.25 C 7.175781 -10.351562 6.921875 -10.40625 6.734375 -10.40625 C 6.253906 -10.40625 5.789062 -10.238281 5.34375 -9.90625 C 4.894531 -9.582031 4.523438 -9.132812 4.234375 -8.5625 C 3.953125 -7.988281 3.8125 -7.347656 3.8125 -6.640625 L 3.8125 -1.109375 C 3.8125 -0.796875 3.707031 -0.53125 3.5 -0.3125 C 3.289062 -0.101562 3.03125 0 2.71875 0 C 2.394531 0 2.128906 -0.101562 1.921875 -0.3125 C 1.722656 -0.519531 1.625 -0.785156 1.625 -1.109375 L 1.625 -10.9375 C 1.625 -11.25 1.726562 -11.507812 1.9375 -11.71875 C 2.144531 -11.9375 2.40625 -12.046875 2.71875 -12.046875 C 3.03125 -12.046875 3.289062 -11.9375 3.5 -11.71875 C 3.707031 -11.507812 3.8125 -11.25 3.8125 -10.9375 L 3.8125 -9.765625 C 4.15625 -10.515625 4.660156 -11.125 5.328125 -11.59375 C 6.003906 -12.0625 6.769531 -12.300781 7.625 -12.3125 Z M 7.625 -12.3125" transform="translate(150.318 45.757)"/></g></g></g><g fill="#737373"><g><g><path d="M 4.890625 -9.90625 L 4.890625 -3.0625 C 4.890625 -2.289062 5.238281 -1.90625 5.9375 -1.90625 C 6.039062 -1.90625 6.179688 -1.929688 6.359375 -1.984375 C 6.546875 -2.035156 6.691406 -2.0625 6.796875 -2.0625 C 7.003906 -2.0625 7.175781 -1.976562 7.3125 -1.8125 C 7.445312 -1.644531 7.515625 -1.429688 7.515625 -1.171875 C 7.515625 -0.847656 7.328125 -0.570312 6.953125 -0.34375 C 6.585938 -0.113281 6.175781 0 5.71875 0 C 5.21875 0 4.753906 -0.0507812 4.328125 -0.15625 C 3.910156 -0.269531 3.535156 -0.539062 3.203125 -0.96875 C 2.878906 -1.40625 2.71875 -2.070312 2.71875 -2.96875 L 2.71875 -9.90625 L 1.375 -9.90625 C 1.082031 -9.90625 0.84375 -10 0.65625 -10.1875 C 0.46875 -10.382812 0.375 -10.628906 0.375 -10.921875 C 0.375 -11.210938 0.46875 -11.445312 0.65625 -11.625 C 0.84375 -11.8125 1.082031 -11.90625 1.375 -11.90625 L 2.71875 -11.90625 L 2.71875 -13.84375 C 2.71875 -14.144531 2.816406 -14.398438 3.015625 -14.609375 C 3.222656 -14.828125 3.488281 -14.9375 3.8125 -14.9375 C 4.125 -14.9375 4.378906 -14.828125 4.578125 -14.609375 C 4.785156 -14.398438 4.890625 -14.144531 4.890625 -13.84375 L 4.890625 -11.90625 L 6.796875 -11.90625 C 7.085938 -11.90625 7.328125 -11.804688 7.515625 -11.609375 C 7.710938 -11.421875 7.8125 -11.179688 7.8125 -10.890625 C 7.8125 -10.597656 7.710938 -10.359375 7.515625 -10.171875 C 7.328125 -9.992188 7.085938 -9.90625 6.796875 -9.90625 Z M 4.890625 -9.90625" transform="translate(159.808 45.757)"/></g></g></g><g fill="#737373"><g><g><path d="M 13.375 -15.140625 C 13.738281 -14.941406 13.921875 -14.640625 13.921875 -14.234375 C 13.921875 -13.953125 13.832031 -13.695312 13.65625 -13.46875 C 13.46875 -13.21875 13.210938 -13.09375 12.890625 -13.09375 C 12.679688 -13.09375 12.476562 -13.148438 12.28125 -13.265625 C 11.320312 -13.796875 10.289062 -14.0625 9.1875 -14.0625 C 8.039062 -14.0625 7.023438 -13.804688 6.140625 -13.296875 C 5.265625 -12.796875 4.582031 -12.085938 4.09375 -11.171875 C 3.601562 -10.265625 3.359375 -9.222656 3.359375 -8.046875 C 3.359375 -6.773438 3.609375 -5.675781 4.109375 -4.75 C 4.617188 -3.832031 5.316406 -3.132812 6.203125 -2.65625 C 7.085938 -2.175781 8.082031 -1.9375 9.1875 -1.9375 C 10.320312 -1.9375 11.351562 -2.210938 12.28125 -2.765625 C 12.457031 -2.847656 12.65625 -2.890625 12.875 -2.890625 C 13.207031 -2.890625 13.472656 -2.757812 13.671875 -2.5 C 13.859375 -2.269531 13.953125 -2.023438 13.953125 -1.765625 C 13.953125 -1.585938 13.898438 -1.414062 13.796875 -1.25 C 13.703125 -1.09375 13.570312 -0.96875 13.40625 -0.875 C 12.800781 -0.539062 12.128906 -0.269531 11.390625 -0.0625 C 10.648438 0.132812 9.914062 0.234375 9.1875 0.234375 C 7.707031 0.234375 6.34375 -0.09375 5.09375 -0.75 C 3.84375 -1.414062 2.84375 -2.375 2.09375 -3.625 C 1.351562 -4.882812 0.984375 -6.359375 0.984375 -8.046875 C 0.984375 -9.585938 1.335938 -10.984375 2.046875 -12.234375 C 2.765625 -13.484375 3.75 -14.460938 5 -15.171875 C 6.25 -15.890625 7.644531 -16.25 9.1875 -16.25 C 10.675781 -16.25 12.070312 -15.878906 13.375 -15.140625 Z M 13.375 -15.140625" transform="translate(174.904 45.757)"/></g></g></g><g fill="#737373"><g><g><path d="M 7.625 -12.25 C 10.320312 -12.25 11.671875 -10.578125 11.671875 -7.234375 L 11.671875 -1.109375 C 11.671875 -0.796875 11.566406 -0.53125 11.359375 -0.3125 C 11.160156 -0.101562 10.898438 0 10.578125 0 C 10.265625 0 10.003906 -0.101562 9.796875 -0.3125 C 9.597656 -0.53125 9.5 -0.796875 9.5 -1.109375 L 9.5 -7.234375 C 9.5 -9.234375 8.65625 -10.234375 6.96875 -10.234375 C 6.0625 -10.234375 5.304688 -9.941406 4.703125 -9.359375 C 4.109375 -8.785156 3.8125 -8.078125 3.8125 -7.234375 L 3.8125 -1.109375 C 3.8125 -0.796875 3.707031 -0.53125 3.5 -0.3125 C 3.289062 -0.101562 3.03125 0 2.71875 0 C 2.394531 0 2.128906 -0.101562 1.921875 -0.3125 C 1.722656 -0.519531 1.625 -0.785156 1.625 -1.109375 L 1.625 -15.90625 C 1.625 -16.207031 1.726562 -16.46875 1.9375 -16.6875 C 2.144531 -16.90625 2.40625 -17.015625 2.71875 -17.015625 C 3.03125 -17.015625 3.289062 -16.90625 3.5 -16.6875 C 3.707031 -16.46875 3.8125 -16.207031 3.8125 -15.90625 L 3.8125 -10.09375 C 4.195312 -10.6875 4.734375 -11.191406 5.421875 -11.609375 C 6.109375 -12.035156 6.84375 -12.25 7.625 -12.25 Z M 7.625 -12.25" transform="translate(189.564 45.757)"/></g></g></g><g fill="#737373"><g><g><path d="M 11.40625 -12.203125 C 11.726562 -12.203125 11.988281 -12.097656 12.1875 -11.890625 C 12.394531 -11.679688 12.5 -11.410156 12.5 -11.078125 L 12.5 -1.109375 C 12.5 -0.796875 12.394531 -0.53125 12.1875 -0.3125 C 11.988281 -0.101562 11.726562 0 11.40625 0 C 11.082031 0 10.816406 -0.101562 10.609375 -0.3125 C 10.410156 -0.519531 10.3125 -0.785156 10.3125 -1.109375 L 10.3125 -1.703125 C 9.914062 -1.160156 9.375 -0.703125 8.6875 -0.328125 C 8 0.046875 7.253906 0.234375 6.453125 0.234375 C 5.410156 0.234375 4.460938 -0.03125 3.609375 -0.5625 C 2.765625 -1.101562 2.097656 -1.851562 1.609375 -2.8125 C 1.128906 -3.769531 0.890625 -4.847656 0.890625 -6.046875 C 0.890625 -7.242188 1.128906 -8.316406 1.609375 -9.265625 C 2.097656 -10.222656 2.765625 -10.96875 3.609375 -11.5 C 4.453125 -12.039062 5.378906 -12.3125 6.390625 -12.3125 C 7.203125 -12.3125 7.957031 -12.144531 8.65625 -11.8125 C 9.351562 -11.476562 9.90625 -11.050781 10.3125 -10.53125 L 10.3125 -11.078125 C 10.3125 -11.398438 10.410156 -11.664062 10.609375 -11.875 C 10.816406 -12.09375 11.082031 -12.203125 11.40625 -12.203125 Z M 6.71875 -1.796875 C 7.4375 -1.796875 8.070312 -1.976562 8.625 -2.34375 C 9.1875 -2.707031 9.625 -3.210938 9.9375 -3.859375 C 10.25 -4.503906 10.40625 -5.234375 10.40625 -6.046875 C 10.40625 -6.835938 10.25 -7.554688 9.9375 -8.203125 C 9.625 -8.847656 9.1875 -9.359375 8.625 -9.734375 C 8.070312 -10.109375 7.4375 -10.296875 6.71875 -10.296875 C 5.988281 -10.296875 5.34375 -10.109375 4.78125 -9.734375 C 4.226562 -9.367188 3.796875 -8.863281 3.484375 -8.21875 C 3.171875 -7.582031 3.015625 -6.859375 3.015625 -6.046875 C 3.015625 -5.234375 3.171875 -4.503906 3.484375 -3.859375 C 3.796875 -3.210938 4.226562 -2.707031 4.78125 -2.34375 C 5.34375 -1.976562 5.988281 -1.796875 6.71875 -1.796875 Z M 6.71875 -1.796875" transform="translate(202.868 45.757)"/></g></g></g><g fill="#737373"><g><g><path d="M 7.765625 -12.3125 C 10.523438 -12.3125 11.90625 -10.660156 11.90625 -7.359375 L 11.90625 -1.109375 C 11.90625 -0.796875 11.800781 -0.53125 11.59375 -0.3125 C 11.382812 -0.101562 11.117188 0 10.796875 0 C 10.492188 0 10.238281 -0.101562 10.03125 -0.3125 C 9.820312 -0.53125 9.71875 -0.796875 9.71875 -1.109375 L 9.71875 -7.328125 C 9.71875 -8.234375 9.507812 -8.953125 9.09375 -9.484375 C 8.6875 -10.023438 8.015625 -10.296875 7.078125 -10.296875 C 6.460938 -10.296875 5.90625 -10.160156 5.40625 -9.890625 C 4.914062 -9.628906 4.523438 -9.269531 4.234375 -8.8125 C 3.953125 -8.363281 3.8125 -7.867188 3.8125 -7.328125 L 3.8125 -1.109375 C 3.8125 -0.796875 3.707031 -0.53125 3.5 -0.3125 C 3.289062 -0.101562 3.03125 0 2.71875 0 C 2.394531 0 2.128906 -0.101562 1.921875 -0.3125 C 1.722656 -0.519531 1.625 -0.785156 1.625 -1.109375 L 1.625 -10.9375 C 1.625 -11.25 1.726562 -11.507812 1.9375 -11.71875 C 2.144531 -11.9375 2.40625 -12.046875 2.71875 -12.046875 C 3.03125 -12.046875 3.289062 -11.9375 3.5 -11.71875 C 3.707031 -11.507812 3.8125 -11.25 3.8125 -10.9375 L 3.8125 -10.140625 C 4.207031 -10.753906 4.757812 -11.269531 5.46875 -11.6875 C 6.1875 -12.101562 6.953125 -12.3125 7.765625 -12.3125 Z M 7.765625 -12.3125" transform="translate(216.977 45.757)"/></g></g></g><g fill="#737373"><g><g><path d="M 11.703125 -12.203125 C 12.023438 -12.203125 12.285156 -12.097656 12.484375 -11.890625 C 12.691406 -11.679688 12.796875 -11.410156 12.796875 -11.078125 L 12.796875 -0.96875 C 12.796875 0.269531 12.53125 1.304688 12 2.140625 C 11.476562 2.984375 10.765625 3.601562 9.859375 4 C 8.953125 4.394531 7.929688 4.59375 6.796875 4.59375 C 6.191406 4.59375 5.476562 4.484375 4.65625 4.265625 C 3.832031 4.054688 3.304688 3.835938 3.078125 3.609375 C 2.609375 3.359375 2.375 3.050781 2.375 2.6875 C 2.375 2.59375 2.398438 2.472656 2.453125 2.328125 C 2.628906 1.941406 2.914062 1.75 3.3125 1.75 C 3.507812 1.75 3.722656 1.796875 3.953125 1.890625 C 5.179688 2.359375 6.140625 2.59375 6.828125 2.59375 C 8.054688 2.59375 8.992188 2.296875 9.640625 1.703125 C 10.296875 1.117188 10.625 0.3125 10.625 -0.71875 L 10.625 -1.953125 C 10.300781 -1.359375 9.757812 -0.84375 9 -0.40625 C 8.238281 0.0195312 7.4375 0.234375 6.59375 0.234375 C 5.539062 0.234375 4.578125 -0.03125 3.703125 -0.5625 C 2.828125 -1.101562 2.140625 -1.851562 1.640625 -2.8125 C 1.140625 -3.769531 0.890625 -4.847656 0.890625 -6.046875 C 0.890625 -7.242188 1.140625 -8.316406 1.640625 -9.265625 C 2.140625 -10.222656 2.820312 -10.96875 3.6875 -11.5 C 4.550781 -12.039062 5.503906 -12.3125 6.546875 -12.3125 C 7.390625 -12.3125 8.175781 -12.117188 8.90625 -11.734375 C 9.632812 -11.359375 10.207031 -10.894531 10.625 -10.34375 L 10.625 -11.078125 C 10.625 -11.398438 10.722656 -11.664062 10.921875 -11.875 C 11.117188 -12.09375 11.378906 -12.203125 11.703125 -12.203125 Z M 6.84375 -1.796875 C 7.59375 -1.796875 8.257812 -1.972656 8.84375 -2.328125 C 9.425781 -2.691406 9.878906 -3.195312 10.203125 -3.84375 C 10.535156 -4.5 10.703125 -5.234375 10.703125 -6.046875 C 10.703125 -6.859375 10.535156 -7.582031 10.203125 -8.21875 C 9.878906 -8.863281 9.425781 -9.367188 8.84375 -9.734375 C 8.257812 -10.109375 7.59375 -10.296875 6.84375 -10.296875 C 6.113281 -10.296875 5.457031 -10.109375 4.875 -9.734375 C 4.289062 -9.367188 3.832031 -8.859375 3.5 -8.203125 C 3.175781 -7.554688 3.015625 -6.835938 3.015625 -6.046875 C 3.015625 -5.242188 3.175781 -4.515625 3.5 -3.859375 C 3.832031 -3.210938 4.289062 -2.707031 4.875 -2.34375 C 5.457031 -1.976562 6.113281 -1.796875 6.84375 -1.796875 Z M 6.84375 -1.796875" transform="translate(230.51 45.757)"/></g></g></g><g fill="#737373"><g><g><path d="M 12.203125 -6.484375 C 12.191406 -6.203125 12.078125 -5.96875 11.859375 -5.78125 C 11.640625 -5.59375 11.382812 -5.5 11.09375 -5.5 L 3.015625 -5.5 C 3.117188 -4.375 3.539062 -3.472656 4.28125 -2.796875 C 5.03125 -2.128906 5.941406 -1.796875 7.015625 -1.796875 C 7.742188 -1.796875 8.335938 -1.898438 8.796875 -2.109375 C 9.265625 -2.328125 9.671875 -2.601562 10.015625 -2.9375 C 10.242188 -3.082031 10.46875 -3.15625 10.6875 -3.15625 C 10.945312 -3.15625 11.164062 -3.0625 11.34375 -2.875 C 11.519531 -2.6875 11.609375 -2.472656 11.609375 -2.234375 C 11.609375 -1.910156 11.453125 -1.617188 11.140625 -1.359375 C 10.703125 -0.910156 10.113281 -0.53125 9.375 -0.21875 C 8.644531 0.0820312 7.894531 0.234375 7.125 0.234375 C 5.882812 0.234375 4.789062 -0.0234375 3.84375 -0.546875 C 2.90625 -1.066406 2.175781 -1.796875 1.65625 -2.734375 C 1.144531 -3.671875 0.890625 -4.726562 0.890625 -5.90625 C 0.890625 -7.195312 1.15625 -8.328125 1.6875 -9.296875 C 2.21875 -10.265625 2.914062 -11.007812 3.78125 -11.53125 C 4.644531 -12.050781 5.578125 -12.3125 6.578125 -12.3125 C 7.554688 -12.3125 8.472656 -12.054688 9.328125 -11.546875 C 10.191406 -11.046875 10.882812 -10.351562 11.40625 -9.46875 C 11.925781 -8.582031 12.191406 -7.585938 12.203125 -6.484375 Z M 6.578125 -10.296875 C 5.710938 -10.296875 4.96875 -10.050781 4.34375 -9.5625 C 3.71875 -9.082031 3.304688 -8.335938 3.109375 -7.328125 L 9.890625 -7.328125 L 9.890625 -7.515625 C 9.804688 -8.328125 9.4375 -8.992188 8.78125 -9.515625 C 8.132812 -10.035156 7.398438 -10.296875 6.578125 -10.296875 Z M 6.578125 -10.296875" transform="translate(244.917 45.757)"/></g></g></g><g fill="#737373"><g><g><path d="M 0.9375 -1.890625 C 0.800781 -2.097656 0.734375 -2.300781 0.734375 -2.5 C 0.734375 -2.8125 0.894531 -3.070312 1.21875 -3.28125 C 1.375 -3.394531 1.550781 -3.453125 1.75 -3.453125 C 2.019531 -3.453125 2.269531 -3.335938 2.5 -3.109375 C 2.957031 -2.585938 3.453125 -2.195312 3.984375 -1.9375 C 4.515625 -1.675781 5.148438 -1.546875 5.890625 -1.546875 C 6.460938 -1.554688 6.972656 -1.6875 7.421875 -1.9375 C 7.867188 -2.195312 8.09375 -2.609375 8.09375 -3.171875 C 8.09375 -3.691406 7.863281 -4.085938 7.40625 -4.359375 C 6.957031 -4.640625 6.296875 -4.894531 5.421875 -5.125 C 4.566406 -5.351562 3.851562 -5.59375 3.28125 -5.84375 C 2.71875 -6.101562 2.238281 -6.472656 1.84375 -6.953125 C 1.457031 -7.429688 1.265625 -8.0625 1.265625 -8.84375 C 1.265625 -9.539062 1.457031 -10.148438 1.84375 -10.671875 C 2.238281 -11.191406 2.757812 -11.59375 3.40625 -11.875 C 4.0625 -12.164062 4.773438 -12.3125 5.546875 -12.3125 C 6.273438 -12.3125 7.003906 -12.171875 7.734375 -11.890625 C 8.460938 -11.617188 9.054688 -11.203125 9.515625 -10.640625 C 9.703125 -10.421875 9.796875 -10.195312 9.796875 -9.96875 C 9.796875 -9.726562 9.671875 -9.492188 9.421875 -9.265625 C 9.265625 -9.128906 9.070312 -9.0625 8.84375 -9.0625 C 8.570312 -9.0625 8.351562 -9.148438 8.1875 -9.328125 C 7.863281 -9.703125 7.46875 -9.988281 7 -10.1875 C 6.53125 -10.382812 6.015625 -10.484375 5.453125 -10.484375 C 4.867188 -10.484375 4.375 -10.363281 3.96875 -10.125 C 3.5625 -9.882812 3.359375 -9.484375 3.359375 -8.921875 C 3.367188 -8.378906 3.597656 -7.976562 4.046875 -7.71875 C 4.503906 -7.457031 5.203125 -7.207031 6.140625 -6.96875 C 6.953125 -6.75 7.625 -6.515625 8.15625 -6.265625 C 8.695312 -6.023438 9.148438 -5.660156 9.515625 -5.171875 C 9.878906 -4.691406 10.0625 -4.0625 10.0625 -3.28125 C 10.0625 -2.5625 9.851562 -1.9375 9.4375 -1.40625 C 9.03125 -0.882812 8.492188 -0.476562 7.828125 -0.1875 C 7.160156 0.09375 6.453125 0.234375 5.703125 0.234375 C 4.734375 0.234375 3.835938 0.0664062 3.015625 -0.265625 C 2.203125 -0.609375 1.507812 -1.148438 0.9375 -1.890625 Z M 0.9375 -1.890625" transform="translate(258.015 45.757)"/></g></g></g><g clip-path="url(#a)"><g clip-path="url(#b)"><g clip-path="url(#c)"><path fill="#737373" d="M 38.460938 18.472656 C 27.976562 21.351562 21.796875 32.21875 24.675781 42.695312 C 25.628906 46.15625 27.464844 49.238281 30.027344 51.691406 L 28.015625 56.109375 L 42.425781 54.722656 L 34.019531 42.933594 L 32.203125 46.917969 C 30.886719 45.316406 29.902344 43.457031 29.34375 41.414062 C 27.171875 33.507812 31.835938 25.308594 39.742188 23.136719 C 47.644531 20.964844 55.84375 25.632812 58.015625 33.535156 C 60.1875 41.441406 55.523438 49.640625 47.621094 51.8125 L 48.902344 56.476562 C 59.378906 53.597656 65.5625 42.730469 62.683594 32.253906 C 59.804688 21.777344 48.9375 15.59375 38.460938 18.472656"/></g></g></g></svg>