<?xml version="1.0" encoding="UTF-8"?><svg xmlns="http://www.w3.org/2000/svg" xmlns:xlink="http://www.w3.org/1999/xlink" contentScriptType="text/ecmascript" width="500.25" zoomAndPan="magnify" contentStyleType="text/css" viewBox="0 0 500.25 299.999988" height="299.999988" preserveAspectRatio="xMidYMid meet" version="1.0"><defs><clipPath id="clip-0"><path d="M 220 58.679688 L 279 58.679688 L 279 118 L 220 118 Z M 220 58.679688 " clip-rule="nonzero"/></clipPath><clipPath id="clip-1"><path d="M 162 124 L 337.207031 124 L 337.207031 241.40625 L 162 241.40625 Z M 162 124 " clip-rule="nonzero"/></clipPath></defs><g clip-path="url(#clip-0)"><path fill="rgb(57.249451%, 54.508972%, 52.159119%)" d="M 249.523438 58.679688 C 233.324219 58.640625 220.183594 71.722656 220.011719 88.058594 C 219.835938 104.488281 233.171875 117.996094 249.507812 117.9375 C 265.65625 117.882812 278.773438 104.601562 278.78125 88.300781 C 278.789062 72.015625 265.652344 58.71875 249.523438 58.679688 Z M 249.523438 58.679688 " fill-opacity="1" fill-rule="nonzero"/></g><g clip-path="url(#clip-1)"><path fill="rgb(57.249451%, 54.508972%, 52.159119%)" d="M 221.40625 241.40625 C 215.832031 238.820312 213.816406 234.46875 213.886719 228.34375 C 214.117188 208.863281 213.972656 189.378906 213.972656 169.894531 C 213.972656 168.425781 213.972656 166.953125 213.972656 164.253906 C 212.148438 166.273438 211.132812 167.328125 210.195312 168.449219 C 200.792969 179.714844 191.410156 190.996094 182 202.257812 C 177.292969 207.882812 174.433594 208.121094 168.839844 203.449219 C 167.773438 202.558594 166.695312 201.683594 165.65625 200.753906 C 161.226562 196.796875 160.898438 193.800781 164.691406 189.21875 C 175.21875 176.480469 185.828125 163.804688 196.40625 151.105469 C 202.734375 143.511719 208.863281 135.734375 215.511719 128.429688 C 217.453125 126.296875 220.851562 124.347656 223.621094 124.292969 C 240.890625 123.925781 258.167969 124.179688 275.449219 124.09375 C 279.21875 124.074219 281.746094 125.675781 284.078125 128.492188 C 301.699219 149.785156 319.417969 170.996094 337.105469 192.234375 C 337.105469 193.777344 337.105469 195.324219 337.105469 196.871094 C 334.804688 199.132812 332.621094 201.527344 330.179688 203.621094 C 324.9375 208.117188 321.902344 207.789062 317.386719 202.386719 C 307.785156 190.90625 298.222656 179.390625 288.628906 167.902344 C 287.710938 166.804688 286.671875 165.804688 284.832031 163.847656 C 284.832031 166.773438 284.832031 168.425781 284.832031 170.078125 C 284.832031 189.230469 284.671875 208.382812 284.921875 227.535156 C 285.003906 233.671875 283.339844 238.371094 277.867188 241.40625 C 259.046875 241.40625 240.226562 241.40625 221.40625 241.40625 Z M 221.40625 241.40625 " fill-opacity="1" fill-rule="evenodd"/></g></svg>