<?xml version="1.0" encoding="UTF-8"?><svg xmlns="http://www.w3.org/2000/svg" xmlns:xlink="http://www.w3.org/1999/xlink" contentScriptType="text/ecmascript" width="375" zoomAndPan="magnify" contentStyleType="text/css" viewBox="0 0 375 112.499997" height="112.499997" preserveAspectRatio="xMidYMid meet" version="1.0"><defs><clipPath id="clip-0"><path d="M 182 13.710938 L 247 13.710938 L 247 98 L 182 98 Z M 182 13.710938 " clip-rule="nonzero"/></clipPath></defs><path fill="rgb(0%, 44.709778%, 100%)" d="M 182.886719 15.203125 L 161.753906 15.203125 L 148.558594 96.800781 L 169.640625 96.800781 Z M 182.886719 15.203125 " fill-opacity="1" fill-rule="nonzero"/><path fill="rgb(0%, 44.709778%, 100%)" d="M 268.238281 84.554688 L 295.398438 84.554688 C 296.070312 87.386719 297.976562 96.75 297.976562 96.75 L 317.5625 96.75 L 300.550781 15.308594 L 284.007812 15.308594 C 283.425781 15.230469 282.839844 15.203125 282.253906 15.226562 C 281.667969 15.246094 281.085938 15.320312 280.511719 15.441406 C 279.933594 15.5625 279.375 15.734375 278.828125 15.953125 C 278.285156 16.167969 277.761719 16.429688 277.257812 16.738281 C 276.757812 17.046875 276.289062 17.390625 275.847656 17.78125 C 275.40625 18.167969 275 18.589844 274.628906 19.046875 C 274.261719 19.5 273.933594 19.988281 273.648438 20.5 C 273.363281 21.011719 273.121094 21.542969 272.925781 22.097656 L 241.640625 97.058594 L 263.804688 97.058594 C 263.804688 97.058594 267.414062 86.769531 268.238281 84.554688 Z M 282.71875 45.042969 C 282.71875 45.042969 284.472656 40.308594 285.503906 37.273438 L 286.894531 44.324219 L 292.046875 67.886719 L 274.523438 67.886719 C 276.070312 63.203125 282.71875 45.042969 282.71875 45.042969 Z M 282.71875 45.042969 " fill-opacity="1" fill-rule="nonzero"/><g clip-path="url(#clip-0)"><path fill="rgb(0%, 44.709778%, 100%)" d="M 243.136719 70.152344 C 243.136719 60.839844 237.570312 53.789062 225.40625 47.976562 C 218.035156 44.21875 213.5 41.699219 213.550781 37.6875 C 213.605469 33.671875 217.367188 30.691406 225.664062 30.691406 C 231.15625 30.5625 236.414062 31.609375 241.4375 33.828125 L 243.34375 34.753906 L 246.230469 17.054688 C 240.140625 14.726562 233.835938 13.578125 227.3125 13.609375 C 206.699219 13.609375 191.800781 24.671875 191.648438 40.515625 C 191.648438 52.246094 201.957031 58.78125 210.097656 62.691406 C 218.242188 66.601562 221.078125 69.222656 221.078125 72.980469 C 221.078125 78.433594 214.480469 80.953125 208.449219 80.953125 C 205 81.027344 201.59375 80.6875 198.230469 79.929688 C 194.863281 79.171875 191.640625 78.023438 188.554688 76.480469 L 185.824219 75.191406 L 182.886719 93.457031 C 190.445312 96.386719 198.28125 97.824219 206.386719 97.777344 C 228.394531 97.984375 242.980469 87.027344 243.136719 70.152344 Z M 243.136719 70.152344 " fill-opacity="1" fill-rule="nonzero"/></g><path fill="rgb(0%, 44.709778%, 100%)" d="M 97.640625 96.699219 L 120.160156 96.699219 L 153.355469 15.308594 L 130.882812 15.308594 L 110.265625 70.921875 L 108.050781 59.605469 L 100.679688 22.148438 C 100.5625 21.625 100.402344 21.117188 100.191406 20.621094 C 99.984375 20.125 99.730469 19.652344 99.433594 19.203125 C 99.140625 18.757812 98.804688 18.335938 98.433594 17.949219 C 98.0625 17.5625 97.660156 17.210938 97.222656 16.894531 C 96.789062 16.578125 96.328125 16.304688 95.84375 16.074219 C 95.355469 15.84375 94.855469 15.65625 94.335938 15.519531 C 93.816406 15.378906 93.289062 15.285156 92.75 15.242188 C 92.214844 15.199219 91.679688 15.203125 91.144531 15.253906 L 57.746094 15.253906 C 57.5625 15.300781 57.414062 15.398438 57.300781 15.546875 C 57.183594 15.695312 57.125 15.863281 57.125 16.050781 C 57.125 16.242188 57.183594 16.410156 57.300781 16.558594 C 57.414062 16.707031 57.5625 16.804688 57.746094 16.851562 C 62.585938 18.164062 67.273438 19.878906 71.816406 21.996094 C 72.933594 22.507812 73.976562 23.132812 74.953125 23.878906 C 75.929688 24.621094 76.8125 25.460938 77.601562 26.398438 C 78.386719 27.339844 79.066406 28.351562 79.628906 29.441406 C 80.191406 30.527344 80.628906 31.664062 80.941406 32.851562 Z M 97.640625 96.699219 " fill-opacity="1" fill-rule="nonzero"/></svg>